  0
SECTION
  2
HEADER
  9
$ACADVER
  1
AC1024
  9
$ACADMAINTVER
 70
     6
  9
$DWGCODEPAGE
  3
ANSI_1252
  9
$INSBASE
 10
0.0
 20
0.0
 30
0.0
  9
$EXTMIN
 10
1.000000000000000E+20
 20
1.000000000000000E+20
 30
1.000000000000000E+20
  9
$EXTMAX
 10
-1.000000000000000E+20
 20
-1.000000000000000E+20
 30
-1.000000000000000E+20
  9
$LIMMIN
 10
0.0
 20
0.0
  9
$LIMMAX
 10
12.0
 20
9.0
  9
$ORTHOMODE
 70
     0
  9
$REGENMODE
 70
     1
  9
$FILLMODE
 70
     1
  9
$QTEXTMODE
 70
     0
  9
$MIRRTEXT
 70
     1
  9
$LTSCALE
 40
1.0
  9
$ATTMODE
 70
     1
  9
$TEXTSIZE
 40
0.2
  9
$TRACEWID
 40
0.05
  9
$TEXTSTYLE
  7
Standard
  9
$CLAYER
  8
0
  9
$CELTYPE
  6
ByLayer
  9
$CECOLOR
 62
   256
  9
$CELTSCALE
 40
1.0
  9
$DISPSILH
 70
     0
  9
$DIMSCALE
 40
1.0
  9
$DIMASZ
 40
0.18
  9
$DIMEXO
 40
0.0625
  9
$DIMDLI
 40
0.38
  9
$DIMRND
 40
0.0
  9
$DIMDLE
 40
0.0
  9
$DIMEXE
 40
0.18
  9
$DIMTP
 40
0.0
  9
$DIMTM
 40
0.0
  9
$DIMTXT
 40
0.18
  9
$DIMCEN
 40
0.09
  9
$DIMTSZ
 40
0.0
  9
$DIMTOL
 70
     0
  9
$DIMLIM
 70
     0
  9
$DIMTIH
 70
     1
  9
$DIMTOH
 70
     1
  9
$DIMSE1
 70
     0
  9
$DIMSE2
 70
     0
  9
$DIMTAD
 70
     0
  9
$DIMZIN
 70
     0
  9
$DIMBLK
  1

  9
$DIMASO
 70
     1
  9
$DIMSHO
 70
     1
  9
$DIMPOST
  1

  9
$DIMAPOST
  1

  9
$DIMALT
 70
     0
  9
$DIMALTD
 70
     2
  9
$DIMALTF
 40
25.4
  9
$DIMLFAC
 40
1.0
  9
$DIMTOFL
 70
     0
  9
$DIMTVP
 40
0.0
  9
$DIMTIX
 70
     0
  9
$DIMSOXD
 70
     0
  9
$DIMSAH
 70
     0
  9
$DIMBLK1
  1

  9
$DIMBLK2
  1

  9
$DIMSTYLE
  2
Standard
  9
$DIMCLRD
 70
     0
  9
$DIMCLRE
 70
     0
  9
$DIMCLRT
 70
     0
  9
$DIMTFAC
 40
1.0
  9
$DIMGAP
 40
0.09
  9
$DIMJUST
 70
     0
  9
$DIMSD1
 70
     0
  9
$DIMSD2
 70
     0
  9
$DIMTOLJ
 70
     1
  9
$DIMTZIN
 70
     0
  9
$DIMALTZ
 70
     0
  9
$DIMALTTZ
 70
     0
  9
$DIMUPT
 70
     0
  9
$DIMDEC
 70
     4
  9
$DIMTDEC
 70
     4
  9
$DIMALTU
 70
     2
  9
$DIMALTTD
 70
     2
  9
$DIMTXSTY
  7
Standard
  9
$DIMAUNIT
 70
     0
  9
$DIMADEC
 70
     0
  9
$DIMALTRND
 40
0.0
  9
$DIMAZIN
 70
     0
  9
$DIMDSEP
 70
    46
  9
$DIMATFIT
 70
     3
  9
$DIMFRAC
 70
     0
  9
$DIMLDRBLK
  1

  9
$DIMLUNIT
 70
     2
  9
$DIMLWD
 70
    -2
  9
$DIMLWE
 70
    -2
  9
$DIMTMOVE
 70
     0
  9
$DIMFXL
 40
1.0
  9
$DIMFXLON
 70
     0
  9
$DIMJOGANG
 40
0.7853981633974483
  9
$DIMTFILL
 70
     0
  9
$DIMTFILLCLR
 70
     0
  9
$DIMARCSYM
 70
     0
  9
$DIMLTYPE
  6

  9
$DIMLTEX1
  6

  9
$DIMLTEX2
  6

  9
$DIMTXTDIRECTION
 70
     0
  9
$LUNITS
 70
     2
  9
$LUPREC
 70
     4
  9
$SKETCHINC
 40
0.1
  9
$FILLETRAD
 40
0.5
  9
$AUNITS
 70
     0
  9
$AUPREC
 70
     0
  9
$MENU
  1
.
  9
$ELEVATION
 40
0.0
  9
$PELEVATION
 40
0.0
  9
$THICKNESS
 40
0.0
  9
$LIMCHECK
 70
     0
  9
$CHAMFERA
 40
0.5
  9
$CHAMFERB
 40
0.5
  9
$CHAMFERC
 40
1.0
  9
$CHAMFERD
 40
0.0
  9
$SKPOLY
 70
     0
  9
$TDCREATE
 40
2460019.610502917
  9
$TDUCREATE
 40
2460019.81883625
  9
$TDUPDATE
 40
2460019.61050294
  9
$TDUUPDATE
 40
2460019.818836273
  9
$TDINDWG
 40
0.0000000116
  9
$TDUSRTIMER
 40
0.0000000116
  9
$USRTIMER
 70
     1
  9
$ANGBASE
 50
0.0
  9
$ANGDIR
 70
     0
  9
$PDMODE
 70
     0
  9
$PDSIZE
 40
0.0
  9
$PLINEWID
 40
0.0
  9
$SPLFRAME
 70
     0
  9
$SPLINETYPE
 70
     6
  9
$SPLINESEGS
 70
     8
  9
$HANDSEED
  5
56
  9
$SURFTAB1
 70
     6
  9
$SURFTAB2
 70
     6
  9
$SURFTYPE
 70
     6
  9
$SURFU
 70
     6
  9
$SURFV
 70
     6
  9
$UCSBASE
  2

  9
$UCSNAME
  2

  9
$UCSORG
 10
0.0
 20
0.0
 30
0.0
  9
$UCSXDIR
 10
1.0
 20
0.0
 30
0.0
  9
$UCSYDIR
 10
0.0
 20
1.0
 30
0.0
  9
$UCSORTHOREF
  2

  9
$UCSORTHOVIEW
 70
     0
  9
$UCSORGTOP
 10
0.0
 20
0.0
 30
0.0
  9
$UCSORGBOTTOM
 10
0.0
 20
0.0
 30
0.0
  9
$UCSORGLEFT
 10
0.0
 20
0.0
 30
0.0
  9
$UCSORGRIGHT
 10
0.0
 20
0.0
 30
0.0
  9
$UCSORGFRONT
 10
0.0
 20
0.0
 30
0.0
  9
$UCSORGBACK
 10
0.0
 20
0.0
 30
0.0
  9
$PUCSBASE
  2

  9
$PUCSNAME
  2

  9
$PUCSORG
 10
0.0
 20
0.0
 30
0.0
  9
$PUCSXDIR
 10
1.0
 20
0.0
 30
0.0
  9
$PUCSYDIR
 10
0.0
 20
1.0
 30
0.0
  9
$PUCSORTHOREF
  2

  9
$PUCSORTHOVIEW
 70
     0
  9
$PUCSORGTOP
 10
0.0
 20
0.0
 30
0.0
  9
$PUCSORGBOTTOM
 10
0.0
 20
0.0
 30
0.0
  9
$PUCSORGLEFT
 10
0.0
 20
0.0
 30
0.0
  9
$PUCSORGRIGHT
 10
0.0
 20
0.0
 30
0.0
  9
$PUCSORGFRONT
 10
0.0
 20
0.0
 30
0.0
  9
$PUCSORGBACK
 10
0.0
 20
0.0
 30
0.0
  9
$USERI1
 70
     0
  9
$USERI2
 70
     0
  9
$USERI3
 70
     0
  9
$USERI4
 70
     0
  9
$USERI5
 70
     0
  9
$USERR1
 40
0.0
  9
$USERR2
 40
0.0
  9
$USERR3
 40
0.0
  9
$USERR4
 40
0.0
  9
$USERR5
 40
0.0
  9
$WORLDVIEW
 70
     1
  9
$SHADEDGE
 70
     3
  9
$SHADEDIF
 70
    70
  9
$TILEMODE
 70
     1
  9
$MAXACTVP
 70
    64
  9
$PINSBASE
 10
0.0
 20
0.0
 30
0.0
  9
$PLIMCHECK
 70
     0
  9
$PEXTMIN
 10
1.000000000000000E+20
 20
1.000000000000000E+20
 30
1.000000000000000E+20
  9
$PEXTMAX
 10
-1.000000000000000E+20
 20
-1.000000000000000E+20
 30
-1.000000000000000E+20
  9
$PLIMMIN
 10
0.0
 20
0.0
  9
$PLIMMAX
 10
12.0
 20
9.0
  9
$UNITMODE
 70
     0
  9
$VISRETAIN
 70
     1
  9
$PLINEGEN
 70
     0
  9
$PSLTSCALE
 70
     1
  9
$TREEDEPTH
 70
  3020
  9
$CMLSTYLE
  2
Standard
  9
$CMLJUST
 70
     0
  9
$CMLSCALE
 40
1.0
  9
$PROXYGRAPHICS
 70
     1
  9
$MEASUREMENT
 70
     0
  9
$CELWEIGHT
370
    -1
  9
$ENDCAPS
280
     0
  9
$JOINSTYLE
280
     0
  9
$LWDISPLAY
290
     1
  9
$INSUNITS
 70
     1
  9
$HYPERLINKBASE
  1

  9
$STYLESHEET
  1

  9
$XEDIT
290
     1
  9
$CEPSNTYPE
380
     0
  9
$PSTYLEMODE
290
     1
  9
$FINGERPRINTGUID
  2
{5936EFB8-6AEF-43F2-82BE-305C2EA5A170}
  9
$VERSIONGUID
  2
{FAEB1C32-E019-11D5-929B-00C0DF256EC4}
  9
$EXTNAMES
290
     1
  9
$PSVPSCALE
 40
0.0
  9
$OLESTARTUP
290
     0
  9
$SORTENTS
280
   127
  9
$INDEXCTL
280
     0
  9
$HIDETEXT
280
     1
  9
$XCLIPFRAME
280
     2
  9
$HALOGAP
280
     0
  9
$OBSCOLOR
 70
   257
  9
$OBSLTYPE
280
     0
  9
$INTERSECTIONDISPLAY
280
     0
  9
$INTERSECTIONCOLOR
 70
   257
  9
$DIMASSOC
280
     2
  9
$PROJECTNAME
  1

  9
$CAMERADISPLAY
290
     0
  9
$LENSLENGTH
 40
50.0
  9
$CAMERAHEIGHT
 40
0.0
  9
$STEPSPERSEC
 40
2.0
  9
$STEPSIZE
 40
6.0
  9
$3DDWFPREC
 40
2.0
  9
$PSOLWIDTH
 40
0.25
  9
$PSOLHEIGHT
 40
4.0
  9
$LOFTANG1
 40
1.570796326794897
  9
$LOFTANG2
 40
1.570796326794897
  9
$LOFTMAG1
 40
0.0
  9
$LOFTMAG2
 40
0.0
  9
$LOFTPARAM
 70
     7
  9
$LOFTNORMALS
280
     1
  9
$LATITUDE
 40
37.795
  9
$LONGITUDE
 40
-122.394
  9
$NORTHDIRECTION
 40
0.0
  9
$TIMEZONE
 70
 -8000
  9
$LIGHTGLYPHDISPLAY
280
     1
  9
$TILEMODELIGHTSYNCH
280
     1
  9
$CMATERIAL
347
3C
  9
$SOLIDHIST
280
     1
  9
$SHOWHIST
280
     1
  9
$DWFFRAME
280
     2
  9
$DGNFRAME
280
     2
  9
$REALWORLDSCALE
290
     1
  9
$INTERFERECOLOR
 62
   256
  9
$CSHADOW
280
     0
  9
$SHADOWPLANELOCATION
 40
0.0
  0
ENDSEC
  0
SECTION
  2
CLASSES
  0
CLASS
  1
ACDBDICTIONARYWDFLT
  2
AcDbDictionaryWithDefault
  3
ObjectDBX Classes
 90
        0
 91
        4
280
     0
281
     0
  0
CLASS
  1
VISUALSTYLE
  2
AcDbVisualStyle
  3
ObjectDBX Classes
 90
     4095
 91
        4
280
     0
281
     0
  0
CLASS
  1
MATERIAL
  2
AcDbMaterial
  3
ObjectDBX Classes
 90
     1153
 91
        4
280
     0
281
     0
  0
CLASS
  1
SUN
  2
AcDbSun
  3
SCENEOE
 90
     1024
 91
        4
280
     0
281
     0
  0
ENDSEC
  0
SECTION
  2
TABLES
  0
TABLE
  2
VPORT
  5
8
330
0
100
AcDbSymbolTable
 70
     1
  0
VPORT
  5
29
330
8
100
AcDbSymbolTableRecord
100
AcDbViewportTableRecord
  2
*Active
 70
     0
 10
0.0
 20
0.0
 11
1.0
 21
1.0
 12
0.0
 22
0.0
 13
0.0
 23
0.0
 14
0.5
 24
0.5
 15
0.5
 25
0.5
 16
0.0
 26
0.0
 36
1.0
 17
431.5
 27
432.5
 37
0.0
 40
864.0
 41
1.0
 42
50.0
 43
0.0
 44
0.0
 50
0.0
 51
0.0
 71
     0
 72
   100
 73
     1
 74
     3
 75
     0
 76
     0
 77
     0
 78
     0
281
     0
 65
     1
110
0.0
120
0.0
130
0.0
111
1.0
121
0.0
131
0.0
112
0.0
122
1.0
132
0.0
 79
     0
146
0.0
 60
     3
 61
     5
292
     1
282
     1
141
0.0
142
0.0
 63
   250
361
3F
  0
ENDTAB
  0
TABLE
  2
LTYPE
  5
5
330
0
100
AcDbSymbolTable
 70
     1
  0
LTYPE
  5
14
330
5
100
AcDbSymbolTableRecord
100
AcDbLinetypeTableRecord
  2
ByBlock
 70
     0
  3

 72
    65
 73
     0
 40
0.0
  0
LTYPE
  5
15
330
5
100
AcDbSymbolTableRecord
100
AcDbLinetypeTableRecord
  2
ByLayer
 70
     0
  3

 72
    65
 73
     0
 40
0.0
  0
LTYPE
  5
16
330
5
100
AcDbSymbolTableRecord
100
AcDbLinetypeTableRecord
  2
Continuous
 70
     0
  3
Solid line
 72
    65
 73
     0
 40
0.0
  0
ENDTAB
  0
TABLE
  2
LAYER
  5
2
330
0
100
AcDbSymbolTable
 70
     2
  0
LAYER
  5
10
330
2
100
AcDbSymbolTableRecord
100
AcDbLayerTableRecord
  2
0
 70
     0
 62
     7
  6
Continuous
370
    -3
390
F
347
3E
  0
LAYER
  5
40
330
2
100
AcDbSymbolTableRecord
100
AcDbLayerTableRecord
  2
Layer 1
 70
     0
 62
     7
  6
Continuous
370
    -3
390
F
347
3E
  0
ENDTAB
  0
TABLE
  2
STYLE
  5
3
330
0
100
AcDbSymbolTable
 70
     1
  0
STYLE
  5
11
330
3
100
AcDbSymbolTableRecord
100
AcDbTextStyleTableRecord
  2
Standard
 70
     0
 40
0.0
 41
1.0
 50
0.0
 71
     0
 42
0.2
  3
txt
  4

  0
ENDTAB
  0
TABLE
  2
VIEW
  5
6
330
0
100
AcDbSymbolTable
 70
     0
  0
ENDTAB
  0
TABLE
  2
UCS
  5
7
330
0
100
AcDbSymbolTable
 70
     0
  0
ENDTAB
  0
TABLE
  2
APPID
  5
9
330
0
100
AcDbSymbolTable
 70
     1
  0
APPID
  5
12
330
9
100
AcDbSymbolTableRecord
100
AcDbRegAppTableRecord
  2
ACAD
 70
     0
  0
ENDTAB
  0
TABLE
  2
DIMSTYLE
  5
A
330
0
100
AcDbSymbolTable
 70
     1
100
AcDbDimStyleTable
  0
DIMSTYLE
105
27
330
A
100
AcDbSymbolTableRecord
100
AcDbDimStyleTableRecord
  2
Standard
 70
     0
178
     0
340
11
  0
ENDTAB
  0
TABLE
  2
BLOCK_RECORD
  5
1
330
0
100
AcDbSymbolTable
 70
     1
  0
BLOCK_RECORD
  5
1F
330
1
100
AcDbSymbolTableRecord
100
AcDbBlockTableRecord
  2
*Model_Space
340
22
 70
     0
280
     1
281
     0
  0
BLOCK_RECORD
  5
1B
330
1
100
AcDbSymbolTableRecord
100
AcDbBlockTableRecord
  2
*Paper_Space
340
1E
 70
     0
280
     1
281
     0
  0
BLOCK_RECORD
  5
23
330
1
100
AcDbSymbolTableRecord
100
AcDbBlockTableRecord
  2
*Paper_Space0
340
26
 70
     0
280
     1
281
     0
  0
ENDTAB
  0
ENDSEC
  0
SECTION
  2
BLOCKS
  0
BLOCK
  5
20
330
1F
100
AcDbEntity
  8
0
100
AcDbBlockBegin
  2
*Model_Space
 70
     0
 10
0.0
 20
0.0
 30
0.0
  3
*Model_Space
  1

  0
ENDBLK
  5
21
330
1F
100
AcDbEntity
  8
0
100
AcDbBlockEnd
  0
BLOCK
  5
1C
330
1B
100
AcDbEntity
 67
     1
  8
0
100
AcDbBlockBegin
  2
*Paper_Space
 70
     0
 10
0.0
 20
0.0
 30
0.0
  3
*Paper_Space
  1

  0
ENDBLK
  5
1D
330
1B
100
AcDbEntity
 67
     1
  8
0
100
AcDbBlockEnd
  0
BLOCK
  5
24
330
23
100
AcDbEntity
  8
0
100
AcDbBlockBegin
  2
*Paper_Space0
 70
     0
 10
0.0
 20
0.0
 30
0.0
  3
*Paper_Space0
  1

  0
ENDBLK
  5
25
330
23
100
AcDbEntity
  8
0
100
AcDbBlockEnd
  0
ENDSEC
  0
SECTION
  2
ENTITIES
  0
SPLINE
  5
41
330
1F
100
AcDbEntity
  8
Layer 1
370
     0
100
AcDbSpline
210
0.0
220
0.0
230
1.0
 70
    11
 71
     3
 72
    77
 73
    73
 74
     0
 42
0.0000000001
 43
0.0000000001
 12
1.0
 22
0.0
 32
0.0
 13
1.0
 23
0.0
 33
0.0
 40
0.0
 40
0.0
 40
0.0
 40
0.0
 40
1.0
 40
1.0
 40
1.0
 40
2.0
 40
2.0
 40
2.0
 40
3.0
 40
3.0
 40
3.0
 40
4.0
 40
4.0
 40
4.0
 40
5.0
 40
5.0
 40
5.0
 40
6.0
 40
6.0
 40
6.0
 40
7.0
 40
7.0
 40
7.0
 40
8.0
 40
8.0
 40
8.0
 40
9.0
 40
9.0
 40
9.0
 40
10.0
 40
10.0
 40
10.0
 40
11.0
 40
11.0
 40
11.0
 40
12.0
 40
12.0
 40
12.0
 40
13.0
 40
13.0
 40
13.0
 40
14.0
 40
14.0
 40
14.0
 40
15.0
 40
15.0
 40
15.0
 40
16.0
 40
16.0
 40
16.0
 40
17.0
 40
17.0
 40
17.0
 40
18.0
 40
18.0
 40
18.0
 40
19.0
 40
19.0
 40
19.0
 40
20.0
 40
20.0
 40
20.0
 40
21.0
 40
21.0
 40
21.0
 40
22.0
 40
22.0
 40
22.0
 40
23.0
 40
23.0
 40
23.0
 40
24.0
 40
24.0
 40
24.0
 40
24.0
 10
755.8170166015625
 20
389.3059997558594
 30
0.0
 10
750.8619995117188
 20
383.5039978027344
 30
0.0
 10
750.4200439453125
 20
383.3680114746094
 30
0.0
 10
743.6719970703125
 20
387.2789916992188
 30
0.0
 10
742.0759887695312
 20
388.2039794921875
 30
0.0
 10
740.4920043945312
 20
389.1510009765625
 30
0.0
 10
738.8789672851562
 20
390.0480041503906
 30
0.0
 10
733.9779663085938
 20
392.7690124511719
 30
0.0
 10
733.9729614257812
 20
392.7610168457031
 30
0.0
 10
727.3629760742188
 20
393.4660034179688
 30
0.0
 10
727.3880004882812
 20
393.6690063476562
 30
0.0
 10
727.3369750976562
 20
393.9720153808594
 30
0.0
 10
727.4509887695312
 20
394.0610046386719
 30
0.0
 10
732.3219604492188
 20
397.8630065917969
 30
0.0
 10
732.4439697265625
 20
403.2890014648438
 30
0.0
 10
732.5039672851562
 20
408.739013671875
 30
0.0
 10
732.6419677734375
 20
421.4250183105469
 30
0.0
 10
728.8189697265625
 20
433.072021484375
 30
0.0
 10
723.4519653320312
 20
444.3930053710938
 30
0.0
 10
719.0849609375
 20
453.6060180664062
 30
0.0
 10
714.6969604492188
 20
462.8580017089844
 30
0.0
 10
712.9599609375
 20
473.0469970703125
 30
0.0
 10
710.6939697265625
 20
486.3380126953125
 30
0.0
 10
713.9319458007812
 20
498.0440063476562
 30
0.0
 10
723.31298828125
 20
507.8460083007812
 30
0.0
 10
726.9669799804688
 20
511.6629943847656
 30
0.0
 10
730.41796875
 20
515.739013671875
 30
0.0
 10
736.0800170898438
 20
516.9450073242188
 30
0.0
 10
745.0140380859375
 20
518.8489990234375
 30
0.0
 10
750.7490234375
 20
514.6080017089844
 30
0.0
 10
751.3880004882812
 20
505.4600219726562
 30
0.0
 10
751.8109741210938
 20
499.4040222167969
 30
0.0
 10
750.6950073242188
 20
493.5980224609375
 30
0.0
 10
749.302001953125
 20
487.7540283203125
 30
0.0
 10
748.1580200195312
 20
482.9620361328125
 30
0.0
 10
744.6420288085938
 20
480.4850158691406
 30
0.0
 10
740.52001953125
 20
477.447021484375
 30
0.0
 10
741.947998046875
 20
482.3760070800781
 30
0.0
 10
743.3829956054688
 20
486.6540222167969
 30
0.0
 10
743.9730224609375
 20
491.1390075683594
 30
0.0
 10
744.259033203125
 20
493.3090209960938
 30
0.0
 10
744.4330444335938
 20
495.4700012207031
 30
0.0
 10
744.3090209960938
 20
497.6369934082031
 30
0.0
 10
743.7830200195312
 20
506.9010009765625
 30
0.0
 10
735.4100341796875
 20
512.1390075683594
 30
0.0
 10
726.843994140625
 20
508.6229858398438
 30
0.0
 10
725.2879638671875
 20
507.9839782714844
 30
0.0
 10
724.6079711914062
 20
506.6510009765625
 30
0.0
 10
723.9660034179688
 20
505.2589721679688
 30
0.0
 10
718.9180297851562
 20
494.3259582519531
 30
0.0
 10
719.8300170898438
 20
483.3649597167969
 30
0.0
 10
723.614013671875
 20
472.303955078125
 30
0.0
 10
727.3070068359375
 20
461.511962890625
 30
0.0
 10
732.427001953125
 20
451.3049621582031
 30
0.0
 10
736.3309936523438
 20
440.5969543457031
 30
0.0
 10
740.2160034179688
 20
429.93994140625
 30
0.0
 10
741.010986328125
 20
419.0309448242188
 30
0.0
 10
739.8099975585938
 20
407.8639526367188
 30
0.0
 10
739.614990234375
 20
406.0559387207031
 30
0.0
 10
738.5440063476562
 20
404.9779663085938
 30
0.0
 10
737.2550048828125
 20
403.9009399414062
 30
0.0
 10
736.1400146484375
 20
402.9689331054688
 30
0.0
 10
734.5170288085938
 20
402.6509399414062
 30
0.0
 10
733.3800048828125
 20
400.6519470214844
 30
0.0
 10
740.39501953125
 20
402.5379333496094
 30
0.0
 10
745.2509765625
 20
398.7469482421875
 30
0.0
 10
750.4000244140625
 20
395.8779602050781
 30
0.0
 10
751.9170532226562
 20
395.032958984375
 30
0.0
 10
753.3450317382812
 20
393.7949523925781
 30
0.0
 10
754.9700317382812
 20
393.4269714355469
 30
0.0
 10
758.739990234375
 20
392.5750122070312
 30
0.0
 10
757.4959716796875
 20
391.27099609375
 30
0.0
 10
755.8170166015625
 20
389.3059997558594
 30
0.0
  0
SPLINE
  5
42
330
1F
100
AcDbEntity
  8
Layer 1
370
     0
100
AcDbSpline
210
0.0
220
0.0
230
1.0
 70
    11
 71
     3
 72
    38
 73
    34
 74
     0
 42
0.0000000001
 43
0.0000000001
 12
1.0
 22
0.0
 32
0.0
 13
1.0
 23
0.0
 33
0.0
 40
0.0
 40
0.0
 40
0.0
 40
0.0
 40
1.0
 40
1.0
 40
1.0
 40
2.0
 40
2.0
 40
2.0
 40
3.0
 40
3.0
 40
3.0
 40
4.0
 40
4.0
 40
4.0
 40
5.0
 40
5.0
 40
5.0
 40
6.0
 40
6.0
 40
6.0
 40
7.0
 40
7.0
 40
7.0
 40
8.0
 40
8.0
 40
8.0
 40
9.0
 40
9.0
 40
9.0
 40
10.0
 40
10.0
 40
10.0
 40
11.0
 40
11.0
 40
11.0
 40
11.0
 10
229.1699981689453
 20
513.343994140625
 30
0.0
 10
233.3349914550781
 20
512.6090087890625
 30
0.0
 10
236.7319946289062
 20
510.156005859375
 30
0.0
 10
239.8789978027344
 20
507.4639892578125
 30
0.0
 10
244.8199920654297
 20
503.2369995117188
 30
0.0
 10
249.1389923095703
 20
498.3009948730469
 30
0.0
 10
254.5709991455078
 20
494.625
 30
0.0
 10
260.1399841308594
 20
490.8569946289062
 30
0.0
 10
266.06298828125
 20
488.6220092773438
 30
0.0
 10
272.9389953613281
 20
489.9159851074219
 30
0.0
 10
277.5409851074219
 20
490.781982421875
 30
0.0
 10
282.81298828125
 20
493.9779968261719
 30
0.0
 10
284.4750061035156
 20
497.4879760742188
 30
0.0
 10
276.8810119628906
 20
492.0489807128906
 30
0.0
 10
269.364013671875
 20
492.0609741210938
 30
0.0
 10
261.7680053710938
 20
496.0959777832031
 30
0.0
 10
258.4020080566406
 20
497.8839721679688
 30
0.0
 10
255.4580078125
 20
500.2959899902344
 30
0.0
 10
252.6399993896484
 20
502.8679809570312
 30
0.0
 10
248.3199920654297
 20
506.81298828125
 30
0.0
 10
244.3529968261719
 20
511.1689758300781
 30
0.0
 10
239.3110046386719
 20
514.2839965820312
 30
0.0
 10
233.8160095214844
 20
517.6799926757812
 30
0.0
 10
228.1340026855469
 20
518.6090087890625
 30
0.0
 10
222.4120025634766
 20
515.1439819335938
 30
0.0
 10
215.3500061035156
 20
510.8669738769531
 30
0.0
 10
210.5230102539062
 20
504.5909729003906
 30
0.0
 10
206.6630096435547
 20
496.3139953613281
 30
0.0
 10
209.9280090332031
 20
498.3679809570312
 30
0.0
 10
209.9280090332031
 20
498.3679809570312
 30
0.0
 10
211.1000061035156
 20
501.1019897460938
 30
0.0
 10
214.9969940185547
 20
510.197998046875
 30
0.0
 10
221.4880065917969
 20
514.7000122070312
 30
0.0
 10
229.1699981689453
 20
513.343994140625
 30
0.0
  0
SPLINE
  5
43
330
1F
100
AcDbEntity
  8
Layer 1
370
     0
100
AcDbSpline
210
0.0
220
0.0
230
1.0
 70
    11
 71
     3
 72
   188
 73
   184
 74
     0
 42
0.0000000001
 43
0.0000000001
 12
1.0
 22
0.0
 32
0.0
 13
1.0
 23
0.0
 33
0.0
 40
0.0
 40
0.0
 40
0.0
 40
0.0
 40
1.0
 40
1.0
 40
1.0
 40
2.0
 40
2.0
 40
2.0
 40
3.0
 40
3.0
 40
3.0
 40
4.0
 40
4.0
 40
4.0
 40
5.0
 40
5.0
 40
5.0
 40
6.0
 40
6.0
 40
6.0
 40
7.0
 40
7.0
 40
7.0
 40
8.0
 40
8.0
 40
8.0
 40
9.0
 40
9.0
 40
9.0
 40
10.0
 40
10.0
 40
10.0
 40
11.0
 40
11.0
 40
11.0
 40
12.0
 40
12.0
 40
12.0
 40
13.0
 40
13.0
 40
13.0
 40
14.0
 40
14.0
 40
14.0
 40
15.0
 40
15.0
 40
15.0
 40
16.0
 40
16.0
 40
16.0
 40
17.0
 40
17.0
 40
17.0
 40
18.0
 40
18.0
 40
18.0
 40
19.0
 40
19.0
 40
19.0
 40
20.0
 40
20.0
 40
20.0
 40
21.0
 40
21.0
 40
21.0
 40
22.0
 40
22.0
 40
22.0
 40
23.0
 40
23.0
 40
23.0
 40
24.0
 40
24.0
 40
24.0
 40
25.0
 40
25.0
 40
25.0
 40
26.0
 40
26.0
 40
26.0
 40
27.0
 40
27.0
 40
27.0
 40
28.0
 40
28.0
 40
28.0
 40
29.0
 40
29.0
 40
29.0
 40
30.0
 40
30.0
 40
30.0
 40
31.0
 40
31.0
 40
31.0
 40
32.0
 40
32.0
 40
32.0
 40
33.0
 40
33.0
 40
33.0
 40
34.0
 40
34.0
 40
34.0
 40
35.0
 40
35.0
 40
35.0
 40
36.0
 40
36.0
 40
36.0
 40
37.0
 40
37.0
 40
37.0
 40
38.0
 40
38.0
 40
38.0
 40
39.0
 40
39.0
 40
39.0
 40
40.0
 40
40.0
 40
40.0
 40
41.0
 40
41.0
 40
41.0
 40
42.0
 40
42.0
 40
42.0
 40
43.0
 40
43.0
 40
43.0
 40
44.0
 40
44.0
 40
44.0
 40
45.0
 40
45.0
 40
45.0
 40
46.0
 40
46.0
 40
46.0
 40
47.0
 40
47.0
 40
47.0
 40
48.0
 40
48.0
 40
48.0
 40
49.0
 40
49.0
 40
49.0
 40
50.0
 40
50.0
 40
50.0
 40
51.0
 40
51.0
 40
51.0
 40
52.0
 40
52.0
 40
52.0
 40
53.0
 40
53.0
 40
53.0
 40
54.0
 40
54.0
 40
54.0
 40
55.0
 40
55.0
 40
55.0
 40
56.0
 40
56.0
 40
56.0
 40
57.0
 40
57.0
 40
57.0
 40
58.0
 40
58.0
 40
58.0
 40
59.0
 40
59.0
 40
59.0
 40
60.0
 40
60.0
 40
60.0
 40
61.0
 40
61.0
 40
61.0
 40
61.0
 10
365.0889892578125
 20
379.9700012207031
 30
0.0
 10
366.0260009765625
 20
378.822998046875
 30
0.0
 10
367.3450012207031
 20
378.1730041503906
 30
0.0
 10
368.8320007324219
 20
378.385009765625
 30
0.0
 10
369.7059936523438
 20
378.5110168457031
 30
0.0
 10
370.5169982910156
 20
379.0700073242188
 30
0.0
 10
371.5979919433594
 20
379.5400085449219
 30
0.0
 10
369.1579895019531
 20
375.35400390625
 30
0.0
 10
366.6329956054688
 20
374.52099609375
 30
0.0
 10
363.0220031738281
 20
376.6329956054688
 30
0.0
 10
361.8930053710938
 20
377.2919921875
 30
0.0
 10
361.1340026855469
 20
377.635986328125
 30
0.0
 10
359.8880004882812
 20
376.68798828125
 30
0.0
 10
352.2650146484375
 20
370.8840026855469
 30
0.0
 10
344.1669921875
 20
368.2890014648438
 30
0.0
 10
335.7239990234375
 20
368.2039794921875
 30
0.0
 10
335.7239990234375
 20
368.2039794921875
 30
0.0
 10
306.1950073242188
 20
337.7099609375
 30
0.0
 10
306.1950073242188
 20
337.7099609375
 30
0.0
 10
306.1950073242188
 20
337.7099609375
 30
0.0
 10
304.6430053710938
 20
339.2129516601562
 30
0.0
 10
304.6430053710938
 20
339.2129516601562
 30
0.0
 10
304.6430053710938
 20
339.2129516601562
 30
0.0
 10
332.781005859375
 20
368.2679443359375
 30
0.0
 10
332.781005859375
 20
368.2679443359375
 30
0.0
 10
328.3040161132812
 20
368.5139465332031
 30
0.0
 10
323.7330017089844
 20
369.4319458007812
 30
0.0
 10
319.0880126953125
 20
370.9149475097656
 30
0.0
 10
315.0590209960938
 20
372.2009582519531
 30
0.0
 10
311.0810241699219
 20
373.6519470214844
 30
0.0
 10
307.10400390625
 20
375.0909423828125
 30
0.0
 10
306.9290161132812
 20
375.1539306640625
 30
0.0
 10
306.7529907226562
 20
375.2149353027344
 30
0.0
 10
306.5750122070312
 20
375.2679443359375
 30
0.0
 10
306.5750122070312
 20
375.2679443359375
 30
0.0
 10
294.6100158691406
 20
362.907958984375
 30
0.0
 10
294.6100158691406
 20
362.907958984375
 30
0.0
 10
294.6100158691406
 20
362.907958984375
 30
0.0
 10
293.0580139160156
 20
364.4109497070312
 30
0.0
 10
293.0580139160156
 20
364.4109497070312
 30
0.0
 10
293.0580139160156
 20
364.4109497070312
 30
0.0
 10
304.2050170898438
 20
375.9259643554688
 30
0.0
 10
304.2050170898438
 20
375.9259643554688
 30
0.0
 10
300.9340209960938
 20
376.6459655761719
 30
0.0
 10
297.593017578125
 20
376.68896484375
 30
0.0
 10
294.2350158691406
 20
376.5699768066406
 30
0.0
 10
291.8180236816406
 20
376.4849853515625
 30
0.0
 10
290.1250305175781
 20
375.3599853515625
 30
0.0
 10
289.4810180664062
 20
372.9039916992188
 30
0.0
 10
288.5560302734375
 20
369.3759765625
 30
0.0
 10
285.4430236816406
 20
368.2129821777344
 30
0.0
 10
282.760009765625
 20
366.5379943847656
 30
0.0
 10
283.4020080566406
 20
371.8930053710938
 30
0.0
 10
286.6990051269531
 20
375.5749816894531
 30
0.0
 10
290.1950073242188
 20
379.1080017089844
 30
0.0
 10
295.3250122070312
 20
384.291015625
 30
0.0
 10
301.7000122070312
 20
384.8880004882812
 30
0.0
 10
308.3480224609375
 20
383.4700012207031
 30
0.0
 10
309.7300109863281
 20
383.1749877929688
 30
0.0
 10
310.6670227050781
 20
383.1409912109375
 30
0.0
 10
311.3480224609375
 20
383.2900085449219
 30
0.0
 10
311.3480224609375
 20
383.2900085449219
 30
0.0
 10
314.9910278320312
 20
387.0630187988281
 30
0.0
 10
314.9910278320312
 20
387.0630187988281
 30
0.0
 10
314.8340148925781
 20
387.20703125
 30
0.0
 10
314.5830383300781
 20
387.3710327148438
 30
0.0
 10
314.2140197753906
 20
387.5690307617188
 30
0.0
 10
309.35302734375
 20
390.18603515625
 30
0.0
 10
304.7450256347656
 20
393.3190307617188
 30
0.0
 10
299.3490295410156
 20
394.8450317382812
 30
0.0
 10
296.5940246582031
 20
395.6240234375
 30
0.0
 10
294.02001953125
 20
395.3700256347656
 30
0.0
 10
291.8400268554688
 20
393.4210205078125
 30
0.0
 10
291.2250366210938
 20
394.0180053710938
 30
0.0
 10
291.6270141601562
 20
394.3900146484375
 30
0.0
 10
291.8670349121094
 20
394.6780090332031
 30
0.0
 10
298.6810302734375
 20
402.8940124511719
 30
0.0
 10
299.1670227050781
 20
412.2220153808594
 30
0.0
 10
296.7790222167969
 20
422.0960083007812
 30
0.0
 10
294.7300109863281
 20
430.5650024414062
 30
0.0
 10
291.1770324707031
 20
438.5240173339844
 30
0.0
 10
288.5060119628906
 20
446.7799987792969
 30
0.0
 10
286.0800170898438
 20
454.2789916992188
 30
0.0
 10
285.3610229492188
 20
462.0950012207031
 30
0.0
 10
284.4309997558594
 20
469.85400390625
 30
0.0
 10
284.0740051269531
 20
472.8380126953125
 30
0.0
 10
282.8460083007812
 20
473.2860107421875
 30
0.0
 10
280.0950012207031
 20
472.8590087890625
 30
0.0
 10
276.9980163574219
 20
472.3789978027344
 30
0.0
 10
275.2449951171875
 20
469.8840026855469
 30
0.0
 10
272.4939880371094
 20
468.822998046875
 30
0.0
 10
275.9709777832031
 20
474.5339965820312
 30
0.0
 10
281.3819885253906
 20
478.6440124511719
 30
0.0
 10
284.7890014648438
 20
484.4010009765625
 30
0.0
 10
288.1920166015625
 20
490.1499938964844
 30
0.0
 10
291.364990234375
 20
496.2170104980469
 30
0.0
 10
297.7890014648438
 20
500.1400146484375
 30
0.0
 10
296.6669921875
 20
497.301025390625
 30
0.0
 10
294.7300109863281
 20
495.4200134277344
 30
0.0
 10
293.4010009765625
 20
493.1800231933594
 30
0.0
 10
291.7350158691406
 20
490.3740234375
 30
0.0
 10
290.0350036621094
 20
487.6090087890625
 30
0.0
 10
290.0499877929688
 20
484.1530151367188
 30
0.0
 10
290.0549926757812
 20
482.6750183105469
 30
0.0
 10
290.4519958496094
 20
482.0960083007812
 30
0.0
 10
292.0559997558594
 20
481.9570007324219
 30
0.0
 10
294.75
 20
481.7229919433594
 30
0.0
 10
298.3410034179688
 20
481.4469909667969
 30
0.0
 10
299.2279968261719
 20
479.06298828125
 30
0.0
 10
299.9759826660156
 20
477.052001953125
 30
0.0
 10
297.0690002441406
 20
474.7460021972656
 30
0.0
 10
295.2349853515625
 20
473.2469787597656
 30
0.0
 10
292.3509826660156
 20
470.8899841308594
 30
0.0
 10
292.1899719238281
 20
468.4319763183594
 30
0.0
 10
292.8319702148438
 20
464.9979858398438
 30
0.0
 10
294.3829650878906
 20
456.7029724121094
 30
0.0
 10
297.3259582519531
 20
448.9140014648438
 30
0.0
 10
300.4659729003906
 20
441.1640014648438
 30
0.0
 10
305.7779846191406
 20
428.0509948730469
 30
0.0
 10
306.6609802246094
 20
415.0459899902344
 30
0.0
 10
299.6879577636719
 20
402.1830139160156
 30
0.0
 10
299.6079711914062
 20
402.0370178222656
 30
0.0
 10
299.7019653320312
 20
401.7960205078125
 30
0.0
 10
299.7229614257812
 20
401.4760131835938
 30
0.0
 10
307.470947265625
 20
402.9010009765625
 30
0.0
 10
313.511962890625
 20
398.7420043945312
 30
0.0
 10
319.6759643554688
 20
395.1940002441406
 30
0.0
 10
320.4609680175781
 20
394.7420043945312
 30
0.0
 10
321.2189636230469
 20
394.3519897460938
 30
0.0
 10
321.9329528808594
 20
394.2260131835938
 30
0.0
 10
321.9329528808594
 20
394.2260131835938
 30
0.0
 10
334.2769470214844
 20
406.9720153808594
 30
0.0
 10
334.2769470214844
 20
406.9720153808594
 30
0.0
 10
335.3239440917969
 20
409.3830261230469
 30
0.0
 10
335.5069580078125
 20
412.4330139160156
 30
0.0
 10
335.3889465332031
 20
414.5630187988281
 30
0.0
 10
334.8969421386719
 20
423.5070190429688
 30
0.0
 10
331.626953125
 20
431.6800231933594
 30
0.0
 10
327.9369506835938
 20
439.6910095214844
 30
0.0
 10
323.1239624023438
 20
450.1430053710938
 30
0.0
 10
318.60595703125
 20
460.7160034179688
 30
0.0
 10
314.3569641113281
 20
471.4110107421875
 30
0.0
 10
308.0599670410156
 20
487.2650146484375
 30
0.0
 10
311.9579772949219
 20
500.9520263671875
 30
0.0
 10
322.9609680175781
 20
513.2100219726562
 30
0.0
 10
325.4329528808594
 20
515.9650268554688
 30
0.0
 10
328.011962890625
 20
518.6110229492188
 30
0.0
 10
331.157958984375
 20
520.6120300292969
 30
0.0
 10
335.8269653320312
 20
523.5810241699219
 30
0.0
 10
339.89697265625
 20
523.4970397949219
 30
0.0
 10
344.0169677734375
 20
519.8660278320312
 30
0.0
 10
351.48095703125
 20
513.2860412597656
 30
0.0
 10
353.7339782714844
 20
504.8900146484375
 30
0.0
 10
351.428955078125
 20
495.3790283203125
 30
0.0
 10
348.8689575195312
 20
484.8080139160156
 30
0.0
 10
342.9419555664062
 20
475.9630126953125
 30
0.0
 10
335.1069641113281
 20
468.7880249023438
 30
0.0
 10
330.1879577636719
 20
464.2830200195312
 30
0.0
 10
328.907958984375
 20
460.3520202636719
 30
0.0
 10
332.5549621582031
 20
454.864013671875
 30
0.0
 10
332.9109497070312
 20
454.3280029296875
 30
0.0
 10
333.1509704589844
 20
453.7030029296875
 30
0.0
 10
333.3849487304688
 20
453.0970153808594
 30
0.0
 10
333.6819458007812
 20
452.3260192871094
 30
0.0
 10
333.9799499511719
 20
451.9910278320312
 30
0.0
 10
334.2779541015625
 20
451.9200134277344
 30
0.0
 10
334.2779541015625
 20
451.9200134277344
 30
0.0
 10
362.0669555664062
 20
480.6190185546875
 30
0.0
 10
362.0669555664062
 20
480.6190185546875
 30
0.0
 10
362.0669555664062
 20
480.6190185546875
 30
0.0
 10
363.6189575195312
 20
479.1160278320312
 30
0.0
 10
363.6189575195312
 20
479.1160278320312
 30
0.0
 10
363.6189575195312
 20
479.1160278320312
 30
0.0
 10
355.8199462890625
 20
471.0630187988281
 30
0.0
 10
355.8199462890625
 20
471.0630187988281
 30
0.0
 10
368.2149353027344
 20
466.8020324707031
 30
0.0
 10
372.2409362792969
 20
455.6020202636719
 30
0.0
 10
376.1879577636719
 20
444.9500122070312
 30
0.0
 10
384.594970703125
 20
422.2610168457031
 30
0.0
 10
380.6829528808594
 20
401.2030029296875
 30
0.0
 10
365.886962890625
 20
382.1180114746094
 30
0.0
 10
365.4010009765625
 20
381.489990234375
 30
0.0
 10
364.260986328125
 20
380.9819946289062
 30
0.0
 10
365.0889892578125
 20
379.9700012207031
 30
0.0
  0
SPLINE
  5
44
330
1F
100
AcDbEntity
  8
Layer 1
370
     0
100
AcDbSpline
210
0.0
220
0.0
230
1.0
 70
    11
 71
     3
 72
    26
 73
    22
 74
     0
 42
0.0000000001
 43
0.0000000001
 12
1.0
 22
0.0
 32
0.0
 13
1.0
 23
0.0
 33
0.0
 40
0.0
 40
0.0
 40
0.0
 40
0.0
 40
1.0
 40
1.0
 40
1.0
 40
2.0
 40
2.0
 40
2.0
 40
3.0
 40
3.0
 40
3.0
 40
4.0
 40
4.0
 40
4.0
 40
5.0
 40
5.0
 40
5.0
 40
6.0
 40
6.0
 40
6.0
 40
7.0
 40
7.0
 40
7.0
 40
7.0
 10
330.4280090332031
 20
467.0069885253906
 30
0.0
 10
335.4620056152344
 20
471.9140014648438
 30
0.0
 10
339.5740051269531
 20
477.5169982910156
 30
0.0
 10
341.8829956054688
 20
484.18798828125
 30
0.0
 10
345.5579833984375
 20
494.802001953125
 30
0.0
 10
343.8989868164062
 20
504.2699890136719
 30
0.0
 10
335.2470092773438
 20
512.0409851074219
 30
0.0
 10
330.4980163574219
 20
516.3079833984375
 30
0.0
 10
327.6020202636719
 20
515.97998046875
 30
0.0
 10
324.3269958496094
 20
510.5959777832031
 30
0.0
 10
321.2170104980469
 20
505.4809875488281
 30
0.0
 10
319.6199951171875
 20
499.9129638671875
 30
0.0
 10
319.4649963378906
 20
493.1559753417969
 30
0.0
 10
319.4490051269531
 20
493.4969787597656
 30
0.0
 10
319.458984375
 20
493.06298828125
 30
0.0
 10
319.4909973144531
 20
492.6299743652344
 30
0.0
 10
320.1809997558594
 20
483.3399658203125
 30
0.0
 10
324.6959838867188
 20
475.2589721679688
 30
0.0
 10
327.7640075683594
 20
466.7279663085938
 30
0.0
 10
328.5360107421875
 20
464.5790100097656
 30
0.0
 10
329.7409973144531
 20
466.3370056152344
 30
0.0
 10
330.4280090332031
 20
467.0069885253906
 30
0.0
  0
SPLINE
  5
45
330
1F
100
AcDbEntity
  8
Layer 1
370
     0
100
AcDbSpline
210
0.0
220
0.0
230
1.0
 70
    11
 71
     3
 72
    32
 73
    28
 74
     0
 42
0.0000000001
 43
0.0000000001
 12
1.0
 22
0.0
 32
0.0
 13
1.0
 23
0.0
 33
0.0
 40
0.0
 40
0.0
 40
0.0
 40
0.0
 40
1.0
 40
1.0
 40
1.0
 40
2.0
 40
2.0
 40
2.0
 40
3.0
 40
3.0
 40
3.0
 40
4.0
 40
4.0
 40
4.0
 40
5.0
 40
5.0
 40
5.0
 40
6.0
 40
6.0
 40
6.0
 40
7.0
 40
7.0
 40
7.0
 40
8.0
 40
8.0
 40
8.0
 40
9.0
 40
9.0
 40
9.0
 40
9.0
 10
341.0360107421875
 20
376.7869873046875
 30
0.0
 10
341.0360107421875
 20
376.7869873046875
 30
0.0
 10
350.7050170898438
 20
386.7769775390625
 30
0.0
 10
350.7050170898438
 20
386.7769775390625
 30
0.0
 10
351.1420288085938
 20
387.9469909667969
 30
0.0
 10
350.2660217285156
 20
388.7659912109375
 30
0.0
 10
347.9220275878906
 20
390.1789855957031
 30
0.0
 10
343.822021484375
 20
392.6509704589844
 30
0.0
 10
339.3350219726562
 20
394.2559814453125
 30
0.0
 10
334.8310241699219
 20
395.7949829101562
 30
0.0
 10
330.7480163574219
 20
397.1909790039062
 30
0.0
 10
330.7430114746094
 20
397.1619873046875
 30
0.0
 10
332.4810180664062
 20
401.1219787597656
 30
0.0
 10
332.5160217285156
 20
401.2009887695312
 30
0.0
 10
332.3890075683594
 20
401.4689636230469
 30
0.0
 10
332.2460327148438
 20
401.7729797363281
 30
0.0
 10
332.2460327148438
 20
401.7729797363281
 30
0.0
 10
313.6110229492188
 20
382.5259704589844
 30
0.0
 10
313.6110229492188
 20
382.5259704589844
 30
0.0
 10
314.1200256347656
 20
382.1769714355469
 30
0.0
 10
315.0280151367188
 20
381.9749755859375
 30
0.0
 10
315.5010375976562
 20
381.8259582519531
 30
0.0
 10
322.2010498046875
 20
379.719970703125
 30
0.0
 10
328.6650390625
 20
376.8619689941406
 30
0.0
 10
335.697021484375
 20
375.8019714355469
 30
0.0
 10
337.7950134277344
 20
375.4859924316406
 30
0.0
 10
339.5220031738281
 20
375.8399963378906
 30
0.0
 10
341.0360107421875
 20
376.7869873046875
 30
0.0
  0
SPLINE
  5
46
330
1F
100
AcDbEntity
  8
Layer 1
370
     0
100
AcDbSpline
210
0.0
220
0.0
230
1.0
 70
    11
 71
     3
 72
    65
 73
    61
 74
     0
 42
0.0000000001
 43
0.0000000001
 12
1.0
 22
0.0
 32
0.0
 13
1.0
 23
0.0
 33
0.0
 40
0.0
 40
0.0
 40
0.0
 40
0.0
 40
1.0
 40
1.0
 40
1.0
 40
2.0
 40
2.0
 40
2.0
 40
3.0
 40
3.0
 40
3.0
 40
4.0
 40
4.0
 40
4.0
 40
5.0
 40
5.0
 40
5.0
 40
6.0
 40
6.0
 40
6.0
 40
7.0
 40
7.0
 40
7.0
 40
8.0
 40
8.0
 40
8.0
 40
9.0
 40
9.0
 40
9.0
 40
10.0
 40
10.0
 40
10.0
 40
11.0
 40
11.0
 40
11.0
 40
12.0
 40
12.0
 40
12.0
 40
13.0
 40
13.0
 40
13.0
 40
14.0
 40
14.0
 40
14.0
 40
15.0
 40
15.0
 40
15.0
 40
16.0
 40
16.0
 40
16.0
 40
17.0
 40
17.0
 40
17.0
 40
18.0
 40
18.0
 40
18.0
 40
19.0
 40
19.0
 40
19.0
 40
20.0
 40
20.0
 40
20.0
 40
20.0
 10
373.1449890136719
 20
421.1940002441406
 30
0.0
 10
372.2460021972656
 20
434.0769958496094
 30
0.0
 10
366.7039794921875
 20
445.6480102539062
 30
0.0
 10
359.5199890136719
 20
456.3170166015625
 30
0.0
 10
357.5090026855469
 20
459.302001953125
 30
0.0
 10
354.9010009765625
 20
461.7850036621094
 30
0.0
 10
351.3869934082031
 20
463.114013671875
 30
0.0
 10
350.3679809570312
 20
463.5
 30
0.0
 10
349.4349975585938
 20
463.6860046386719
 30
0.0
 10
348.5749816894531
 20
463.5870056152344
 30
0.0
 10
348.5749816894531
 20
463.5870056152344
 30
0.0
 10
336.1059875488281
 20
450.7080078125
 30
0.0
 10
336.1059875488281
 20
450.7080078125
 30
0.0
 10
335.43798828125
 20
449.0220031738281
 30
0.0
 10
336.1819763183594
 20
447.5060119628906
 30
0.0
 10
338.0399780273438
 20
443.864013671875
 30
0.0
 10
344.2759704589844
 20
431.6390075683594
 30
0.0
 10
346.3909912109375
 20
419.2590026855469
 30
0.0
 10
339.7549743652344
 20
406.468017578125
 30
0.0
 10
338.9449768066406
 20
404.906005859375
 30
0.0
 10
340.1229858398438
 20
404.9040222167969
 30
0.0
 10
341.0409851074219
 20
404.6390075683594
 30
0.0
 10
345.7559814453125
 20
403.281005859375
 30
0.0
 10
350.2219848632812
 20
401.3619995117188
 30
0.0
 10
354.4659729003906
 20
398.8810119628906
 30
0.0
 10
356.1489868164062
 20
397.8970031738281
 30
0.0
 10
357.6019592285156
 20
395.6240234375
 30
0.0
 10
359.3509826660156
 20
395.7070007324219
 30
0.0
 10
359.3509826660156
 20
395.7070007324219
 30
0.0
 10
368.2509765625
 20
404.9020080566406
 30
0.0
 10
368.2509765625
 20
404.9020080566406
 30
0.0
 10
368.2509765625
 20
404.9020080566406
 30
0.0
 10
369.802978515625
 20
403.3990173339844
 30
0.0
 10
369.802978515625
 20
403.3990173339844
 30
0.0
 10
369.802978515625
 20
403.3990173339844
 30
0.0
 10
342.7639770507812
 20
375.4730224609375
 30
0.0
 10
342.7639770507812
 20
375.4730224609375
 30
0.0
 10
348.0659790039062
 20
375.4660339355469
 30
0.0
 10
352.3409729003906
 20
376.2410278320312
 30
0.0
 10
356.4289855957031
 20
377.9040222167969
 30
0.0
 10
357.1539916992188
 20
378.1990356445312
 30
0.0
 10
358.344970703125
 20
378.2400207519531
 30
0.0
 10
358.4819946289062
 20
379.2250366210938
 30
0.0
 10
358.6279907226562
 20
380.2860412597656
 30
0.0
 10
357.4970092773438
 20
380.5200500488281
 30
0.0
 10
356.7760009765625
 20
380.925048828125
 30
0.0
 10
355.8169860839844
 20
381.4650573730469
 30
0.0
 10
354.89599609375
 20
381.4550476074219
 30
0.0
 10
354.2430114746094
 20
380.3990478515625
 30
0.0
 10
353.7740173339844
 20
379.6390380859375
 30
0.0
 10
353.2250061035156
 20
379.0060424804688
 30
0.0
 10
351.9049987792969
 20
378.8870544433594
 30
0.0
 10
353.9859924316406
 20
383.8060607910156
 30
0.0
 10
357.0249938964844
 20
385.4390563964844
 30
0.0
 10
360.4110107421875
 20
383.1660461425781
 30
0.0
 10
362.6890258789062
 20
381.6360473632812
 30
0.0
 10
363.6679992675781
 20
382.4580383300781
 30
0.0
 10
364.7260131835938
 20
384.2920532226562
 30
0.0
 10
371.3240051269531
 20
395.72900390625
 30
0.0
 10
374.0469970703125
 20
408.2699890136719
 30
0.0
 10
373.1449890136719
 20
421.1940002441406
 30
0.0
  0
SPLINE
  5
47
330
1F
100
AcDbEntity
  8
Layer 1
370
     0
100
AcDbSpline
210
0.0
220
0.0
230
1.0
 70
    11
 71
     3
 72
    62
 73
    58
 74
     0
 42
0.0000000001
 43
0.0000000001
 12
1.0
 22
0.0
 32
0.0
 13
1.0
 23
0.0
 33
0.0
 40
0.0
 40
0.0
 40
0.0
 40
0.0
 40
1.0
 40
1.0
 40
1.0
 40
2.0
 40
2.0
 40
2.0
 40
3.0
 40
3.0
 40
3.0
 40
4.0
 40
4.0
 40
4.0
 40
5.0
 40
5.0
 40
5.0
 40
6.0
 40
6.0
 40
6.0
 40
7.0
 40
7.0
 40
7.0
 40
8.0
 40
8.0
 40
8.0
 40
9.0
 40
9.0
 40
9.0
 40
10.0
 40
10.0
 40
10.0
 40
11.0
 40
11.0
 40
11.0
 40
12.0
 40
12.0
 40
12.0
 40
13.0
 40
13.0
 40
13.0
 40
14.0
 40
14.0
 40
14.0
 40
15.0
 40
15.0
 40
15.0
 40
16.0
 40
16.0
 40
16.0
 40
17.0
 40
17.0
 40
17.0
 40
18.0
 40
18.0
 40
18.0
 40
19.0
 40
19.0
 40
19.0
 40
19.0
 10
279.9110107421875
 20
429.0480041503906
 30
0.0
 10
279.9110107421875
 20
429.0480041503906
 30
0.0
 10
281.4630126953125
 20
427.5450134277344
 30
0.0
 10
281.4630126953125
 20
427.5450134277344
 30
0.0
 10
281.4630126953125
 20
427.5450134277344
 30
0.0
 10
251.9600067138672
 20
397.0799865722656
 30
0.0
 10
251.9600067138672
 20
397.0799865722656
 30
0.0
 10
251.6110076904297
 20
396.4769897460938
 30
0.0
 10
251.2800140380859
 20
395.8619995117188
 30
0.0
 10
250.9620056152344
 20
395.3289794921875
 30
0.0
 10
248.5890045166016
 20
391.3559875488281
 30
0.0
 10
245.0050048828125
 20
388.6919860839844
 30
0.0
 10
241.3990020751953
 20
385.8379821777344
 30
0.0
 10
241.3990020751953
 20
385.8379821777344
 30
0.0
 10
240.7200012207031
 20
385.468994140625
 30
0.0
 10
240.7200012207031
 20
385.468994140625
 30
0.0
 10
240.7200012207031
 20
385.468994140625
 30
0.0
 10
217.85400390625
 20
361.8559875488281
 30
0.0
 10
217.85400390625
 20
361.8559875488281
 30
0.0
 10
217.85400390625
 20
361.8559875488281
 30
0.0
 10
216.302001953125
 20
363.3589782714844
 30
0.0
 10
216.302001953125
 20
363.3589782714844
 30
0.0
 10
216.302001953125
 20
363.3589782714844
 30
0.0
 10
239.0960083007812
 20
386.8779907226562
 30
0.0
 10
239.0960083007812
 20
386.8779907226562
 30
0.0
 10
238.8480072021484
 20
387.1689758300781
 30
0.0
 10
238.3450012207031
 20
387.4509887695312
 30
0.0
 10
237.5150146484375
 20
387.7039794921875
 30
0.0
 10
224.9070129394531
 20
391.5499877929688
 30
0.0
 10
217.7030181884766
 20
400.8739929199219
 30
0.0
 10
213.8010101318359
 20
412.656982421875
 30
0.0
 10
207.4260101318359
 20
431.9089965820312
 30
0.0
 10
209.3660125732422
 20
450.135986328125
 30
0.0
 10
222.7000122070312
 20
466.2809753417969
 30
0.0
 10
225.2060089111328
 20
469.3149719238281
 30
0.0
 10
228.2830200195312
 20
471.7359619140625
 30
0.0
 10
231.3570098876953
 20
474.1639709472656
 30
0.0
 10
232.9070129394531
 20
475.3879699707031
 30
0.0
 10
234.1720123291016
 20
475.2069702148438
 30
0.0
 10
235.7500152587891
 20
474.177978515625
 30
0.0
 10
245.1900177001953
 20
468.0209655761719
 30
0.0
 10
248.1300201416016
 20
456.6669921875
 30
0.0
 10
242.8030090332031
 20
446.7489624023438
 30
0.0
 10
238.2260131835938
 20
438.2289733886719
 30
0.0
 10
231.427001953125
 20
431.719970703125
 30
0.0
 10
223.8320007324219
 20
425.9939575195312
 30
0.0
 10
221.7770080566406
 20
424.4449462890625
 30
0.0
 10
221.5540008544922
 20
423.1559448242188
 30
0.0
 10
222.4969940185547
 20
420.844970703125
 30
0.0
 10
227.0659942626953
 20
409.64697265625
 30
0.0
 10
233.7159881591797
 20
400.5689697265625
 30
0.0
 10
245.7460021972656
 20
396.5009765625
 30
0.0
 10
246.6370086669922
 20
396.1999816894531
 30
0.0
 10
247.3840026855469
 20
396.0329895019531
 30
0.0
 10
248.0720062255859
 20
396.1659851074219
 30
0.0
 10
248.0720062255859
 20
396.1659851074219
 30
0.0
 10
279.9110107421875
 20
429.0480041503906
 30
0.0
 10
279.9110107421875
 20
429.0480041503906
 30
0.0
  0
SPLINE
  5
48
330
1F
100
AcDbEntity
  8
Layer 1
370
     0
100
AcDbSpline
210
0.0
220
0.0
230
1.0
 70
    11
 71
     3
 72
    23
 73
    19
 74
     0
 42
0.0000000001
 43
0.0000000001
 12
1.0
 22
0.0
 32
0.0
 13
1.0
 23
0.0
 33
0.0
 40
0.0
 40
0.0
 40
0.0
 40
0.0
 40
1.0
 40
1.0
 40
1.0
 40
2.0
 40
2.0
 40
2.0
 40
3.0
 40
3.0
 40
3.0
 40
4.0
 40
4.0
 40
4.0
 40
5.0
 40
5.0
 40
5.0
 40
6.0
 40
6.0
 40
6.0
 40
6.0
 10
222.5839996337891
 20
428.510009765625
 30
0.0
 10
225.4559936523438
 20
430.6670227050781
 30
0.0
 10
228.3479919433594
 20
432.8059997558594
 30
0.0
 10
230.8509979248047
 20
435.385009765625
 30
0.0
 10
239.5919952392578
 20
444.3930053710938
 30
0.0
 10
238.9579925537109
 20
455.6840209960938
 30
0.0
 10
229.3069915771484
 20
463.8340148925781
 30
0.0
 10
225.9549865722656
 20
466.6640014648438
 30
0.0
 10
225.4269866943359
 20
466.6060180664062
 30
0.0
 10
223.4309844970703
 20
462.6940002441406
 30
0.0
 10
219.8739776611328
 20
455.7269897460938
 30
0.0
 10
219.2919921875
 20
448.1520080566406
 30
0.0
 10
219.0609893798828
 20
440.5249938964844
 30
0.0
 10
218.8489837646484
 20
436.7909851074219
 30
0.0
 10
219.5519866943359
 20
433.1539916992188
 30
0.0
 10
220.0639953613281
 20
429.4939880371094
 30
0.0
 10
220.343994140625
 20
427.4949951171875
 30
0.0
 10
221.0899963378906
 20
427.3869934082031
 30
0.0
 10
222.5839996337891
 20
428.510009765625
 30
0.0
  0
SPLINE
  5
49
330
1F
100
AcDbEntity
  8
Layer 1
370
     0
100
AcDbSpline
210
0.0
220
0.0
230
1.0
 70
    11
 71
     3
 72
   173
 73
   169
 74
     0
 42
0.0000000001
 43
0.0000000001
 12
1.0
 22
0.0
 32
0.0
 13
1.0
 23
0.0
 33
0.0
 40
0.0
 40
0.0
 40
0.0
 40
0.0
 40
1.0
 40
1.0
 40
1.0
 40
2.0
 40
2.0
 40
2.0
 40
3.0
 40
3.0
 40
3.0
 40
4.0
 40
4.0
 40
4.0
 40
5.0
 40
5.0
 40
5.0
 40
6.0
 40
6.0
 40
6.0
 40
7.0
 40
7.0
 40
7.0
 40
8.0
 40
8.0
 40
8.0
 40
9.0
 40
9.0
 40
9.0
 40
10.0
 40
10.0
 40
10.0
 40
11.0
 40
11.0
 40
11.0
 40
12.0
 40
12.0
 40
12.0
 40
13.0
 40
13.0
 40
13.0
 40
14.0
 40
14.0
 40
14.0
 40
15.0
 40
15.0
 40
15.0
 40
16.0
 40
16.0
 40
16.0
 40
17.0
 40
17.0
 40
17.0
 40
18.0
 40
18.0
 40
18.0
 40
19.0
 40
19.0
 40
19.0
 40
20.0
 40
20.0
 40
20.0
 40
21.0
 40
21.0
 40
21.0
 40
22.0
 40
22.0
 40
22.0
 40
23.0
 40
23.0
 40
23.0
 40
24.0
 40
24.0
 40
24.0
 40
25.0
 40
25.0
 40
25.0
 40
26.0
 40
26.0
 40
26.0
 40
27.0
 40
27.0
 40
27.0
 40
28.0
 40
28.0
 40
28.0
 40
29.0
 40
29.0
 40
29.0
 40
30.0
 40
30.0
 40
30.0
 40
31.0
 40
31.0
 40
31.0
 40
32.0
 40
32.0
 40
32.0
 40
33.0
 40
33.0
 40
33.0
 40
34.0
 40
34.0
 40
34.0
 40
35.0
 40
35.0
 40
35.0
 40
36.0
 40
36.0
 40
36.0
 40
37.0
 40
37.0
 40
37.0
 40
38.0
 40
38.0
 40
38.0
 40
39.0
 40
39.0
 40
39.0
 40
40.0
 40
40.0
 40
40.0
 40
41.0
 40
41.0
 40
41.0
 40
42.0
 40
42.0
 40
42.0
 40
43.0
 40
43.0
 40
43.0
 40
44.0
 40
44.0
 40
44.0
 40
45.0
 40
45.0
 40
45.0
 40
46.0
 40
46.0
 40
46.0
 40
47.0
 40
47.0
 40
47.0
 40
48.0
 40
48.0
 40
48.0
 40
49.0
 40
49.0
 40
49.0
 40
50.0
 40
50.0
 40
50.0
 40
51.0
 40
51.0
 40
51.0
 40
52.0
 40
52.0
 40
52.0
 40
53.0
 40
53.0
 40
53.0
 40
54.0
 40
54.0
 40
54.0
 40
55.0
 40
55.0
 40
55.0
 40
56.0
 40
56.0
 40
56.0
 40
56.0
 10
191.9640045166016
 20
474.6480102539062
 30
0.0
 10
198.1620025634766
 20
459.8690185546875
 30
0.0
 10
200.5579986572266
 20
444.5830078125
 30
0.0
 10
196.4759979248047
 20
428.7890014648438
 30
0.0
 10
193.9909973144531
 20
419.1730041503906
 30
0.0
 10
189.0970001220703
 20
410.7309875488281
 30
0.0
 10
182.8260040283203
 20
403.0870056152344
 30
0.0
 10
179.7929992675781
 20
399.3890075683594
 30
0.0
 10
176.7990112304688
 20
395.6329956054688
 30
0.0
 10
173.4739990234375
 20
392.2070007324219
 30
0.0
 10
168.8390045166016
 20
387.4309997558594
 30
0.0
 10
166.1470031738281
 20
387.2170104980469
 30
0.0
 10
160.5480041503906
 20
390.7839965820312
 30
0.0
 10
157.3440093994141
 20
392.8249816894531
 30
0.0
 10
154.3370056152344
 20
395.1749877929688
 30
0.0
 10
151.1549987792969
 20
397.2529907226562
 30
0.0
 10
148.9369964599609
 20
398.7009887695312
 30
0.0
 10
146.7980041503906
 20
399.5419921875
 30
0.0
 10
144.8789978027344
 20
396.447998046875
 30
0.0
 10
143.6309967041016
 20
394.4360046386719
 30
0.0
 10
141.3349914550781
 20
393.3630065917969
 30
0.0
 10
139.0009918212891
 20
391.7369995117188
 30
0.0
 10
139.0899963378906
 20
396.1709899902344
 30
0.0
 10
140.8579864501953
 20
399.3930053710938
 30
0.0
 10
143.9279937744141
 20
401.4880065917969
 30
0.0
 10
146.8919982910156
 20
403.5090026855469
 30
0.0
 10
147.9649963378906
 20
405.6750183105469
 30
0.0
 10
146.7169952392578
 20
409.0180053710938
 30
0.0
 10
146.5529937744141
 20
409.4570007324219
 30
0.0
 10
146.4889984130859
 20
410.3450012207031
 30
0.0
 10
146.4249877929688
 20
411.114990234375
 30
0.0
 10
146.4249877929688
 20
411.114990234375
 30
0.0
 10
99.72099304199219
 20
362.885986328125
 30
0.0
 10
99.72099304199219
 20
362.885986328125
 30
0.0
 10
99.72099304199219
 20
362.885986328125
 30
0.0
 10
98.16899108886719
 20
364.3889770507812
 30
0.0
 10
98.16899108886719
 20
364.3889770507812
 30
0.0
 10
98.16899108886719
 20
364.3889770507812
 30
0.0
 10
122.3049926757812
 20
389.3149719238281
 30
0.0
 10
122.3049926757812
 20
389.3149719238281
 30
0.0
 10
121.9339904785156
 20
389.5869750976562
 30
0.0
 10
121.2599945068359
 20
389.9209594726562
 30
0.0
 10
120.218994140625
 20
390.4579772949219
 30
0.0
 10
115.7909927368164
 20
392.7429809570312
 30
0.0
 10
111.0089950561523
 20
394.260986328125
 30
0.0
 10
106.6929931640625
 20
396.8279724121094
 30
0.0
 10
104.5679931640625
 20
398.0909729003906
 30
0.0
 10
102.4539947509766
 20
397.9989624023438
 30
0.0
 10
100.8159942626953
 20
395.5299682617188
 30
0.0
 10
99.87599182128906
 20
394.1139831542969
 30
0.0
 10
98.44599151611328
 20
393.001953125
 30
0.0
 10
97.1449966430664
 20
391.8579711914062
 30
0.0
 10
96.63199615478516
 20
391.406982421875
 30
0.0
 10
95.96399688720703
 20
390.5919799804688
 30
0.0
 10
95.17799377441406
 20
391.1739807128906
 30
0.0
 10
94.38599395751953
 20
391.760986328125
 30
0.0
 10
94.51099395751953
 20
392.7889709472656
 30
0.0
 10
94.82999420166016
 20
393.583984375
 30
0.0
 10
95.99699401855469
 20
396.4889831542969
 30
0.0
 10
97.7909927368164
 20
399.0989990234375
 30
0.0
 10
100.629997253418
 20
400.3819885253906
 30
0.0
 10
103.7319946289062
 20
401.7829895019531
 30
0.0
 10
103.7760009765625
 20
403.9109802246094
 30
0.0
 10
103.3489990234375
 20
406.68798828125
 30
0.0
 10
99.19999694824219
 20
433.6429748535156
 30
0.0
 10
95.08899688720703
 20
460.60400390625
 30
0.0
 10
91.0459976196289
 20
487.5759887695312
 30
0.0
 10
90.697998046875
 20
489.8939819335938
 30
0.0
 10
89.9209976196289
 20
491.1099853515625
 30
0.0
 10
87.46399688720703
 20
491.8079833984375
 30
0.0
 10
82.88399505615234
 20
493.1079711914062
 30
0.0
 10
78.33799743652344
 20
494.708984375
 30
0.0
 10
75.68799591064453
 20
499.2849731445312
 30
0.0
 10
75.47699737548828
 20
499.6499633789062
 30
0.0
 10
75.27599334716797
 20
499.8669738769531
 30
0.0
 10
75.08499908447266
 20
499.9759826660156
 30
0.0
 10
75.08499908447266
 20
499.9759826660156
 30
0.0
 10
61.18499755859375
 20
485.6209716796875
 30
0.0
 10
61.18499755859375
 20
485.6209716796875
 30
0.0
 10
61.18499755859375
 20
485.6209716796875
 30
0.0
 10
59.63299560546875
 20
487.1239624023438
 30
0.0
 10
59.63299560546875
 20
487.1239624023438
 30
0.0
 10
59.63299560546875
 20
487.1239624023438
 30
0.0
 10
108.2159957885742
 20
537.2959594726562
 30
0.0
 10
108.2159957885742
 20
537.2959594726562
 30
0.0
 10
108.2159957885742
 20
537.2959594726562
 30
0.0
 10
109.7679977416992
 20
535.79296875
 30
0.0
 10
109.7679977416992
 20
535.79296875
 30
0.0
 10
109.7679977416992
 20
535.79296875
 30
0.0
 10
82.04199981689453
 20
507.1689758300781
 30
0.0
 10
82.04199981689453
 20
507.1689758300781
 30
0.0
 10
81.95899963378906
 20
506.3479614257812
 30
0.0
 10
82.3290023803711
 20
505.5369873046875
 30
0.0
 10
83.03399658203125
 20
504.6239624023438
 30
0.0
 10
85.78899383544922
 20
501.0589599609375
 30
0.0
 10
89.75299835205078
 20
499.5249633789062
 30
0.0
 10
93.86099243164062
 20
498.4379577636719
 30
0.0
 10
96.3179931640625
 20
497.7879638671875
 30
0.0
 10
97.38198852539062
 20
496.7219543457031
 30
0.0
 10
97.60599517822266
 20
494.0699462890625
 30
0.0
 10
97.9679946899414
 20
489.8099365234375
 30
0.0
 10
98.8499984741211
 20
485.5939331054688
 30
0.0
 10
99.65999603271484
 20
480.5569458007812
 30
0.0
 10
99.65999603271484
 20
480.5569458007812
 30
0.0
 10
151.0809936523438
 20
533.3599548339844
 30
0.0
 10
151.0809936523438
 20
533.3599548339844
 30
0.0
 10
151.0809936523438
 20
533.3599548339844
 30
0.0
 10
152.6329956054688
 20
531.8569641113281
 30
0.0
 10
152.6329956054688
 20
531.8569641113281
 30
0.0
 10
152.6329956054688
 20
531.8569641113281
 30
0.0
 10
126.375
 20
504.89697265625
 30
0.0
 10
126.375
 20
504.89697265625
 30
0.0
 10
126.4029998779297
 20
504.1979675292969
 30
0.0
 10
126.8209991455078
 20
503.4839782714844
 30
0.0
 10
127.6490020751953
 20
502.6839599609375
 30
0.0
 10
129.8300018310547
 20
500.5769653320312
 30
0.0
 10
131.6540069580078
 20
498.1019592285156
 30
0.0
 10
133.8059997558594
 20
495.9619750976562
 30
0.0
 10
135.0989990234375
 20
494.6759643554688
 30
0.0
 10
136.6340026855469
 20
492.9479675292969
 30
0.0
 10
138.2180023193359
 20
492.761962890625
 30
0.0
 10
143.4109954833984
 20
492.1529541015625
 30
0.0
 10
143.3690032958984
 20
488.5079650878906
 30
0.0
 10
143.8919982910156
 20
484.7329711914062
 30
0.0
 10
143.8919982910156
 20
484.7329711914062
 30
0.0
 10
154.9779968261719
 20
407.6479797363281
 30
0.0
 10
154.9779968261719
 20
407.6479797363281
 30
0.0
 10
155.1170043945312
 20
406.7259826660156
 30
0.0
 10
155.1419982910156
 20
405.8749694824219
 30
0.0
 10
156.2469940185547
 20
405.2429809570312
 30
0.0
 10
160.9559936523438
 20
402.5469665527344
 30
0.0
 10
165.6269989013672
 20
399.7699890136719
 30
0.0
 10
170.1869964599609
 20
396.8289794921875
 30
0.0
 10
172.5809936523438
 20
395.2859802246094
 30
0.0
 10
174.093994140625
 20
395.760986328125
 30
0.0
 10
175.9400024414062
 20
397.8059692382812
 30
0.0
 10
187.3549957275391
 20
410.4509582519531
 30
0.0
 10
192.2050018310547
 20
425.4409790039062
 30
0.0
 10
191.2259979248047
 20
442.1849670410156
 30
0.0
 10
190.2539978027344
 20
458.8079528808594
 30
0.0
 10
183.8679962158203
 20
473.5519714355469
 30
0.0
 10
173.8320007324219
 20
486.7539672851562
 30
0.0
 10
171.8399963378906
 20
489.3739624023438
 30
0.0
 10
169.3209991455078
 20
491.4299621582031
 30
0.0
 10
166.7700042724609
 20
493.4819641113281
 30
0.0
 10
165.6510009765625
 20
494.3819580078125
 30
0.0
 10
164.6829986572266
 20
494.8479614257812
 30
0.0
 10
163.7550048828125
 20
494.7999572753906
 30
0.0
 10
163.7550048828125
 20
494.7999572753906
 30
0.0
 10
148.5770111083984
 20
479.1239624023438
 30
0.0
 10
148.5770111083984
 20
479.1239624023438
 30
0.0
 10
148.5770111083984
 20
479.1239624023438
 30
0.0
 10
147.0250091552734
 20
480.626953125
 30
0.0
 10
147.0250091552734
 20
480.626953125
 30
0.0
 10
147.0250091552734
 20
480.626953125
 30
0.0
 10
195.6080017089844
 20
530.7989501953125
 30
0.0
 10
195.6080017089844
 20
530.7989501953125
 30
0.0
 10
195.6080017089844
 20
530.7989501953125
 30
0.0
 10
197.1600036621094
 20
529.2959594726562
 30
0.0
 10
197.1600036621094
 20
529.2959594726562
 30
0.0
 10
197.1600036621094
 20
529.2959594726562
 30
0.0
 10
170.9190063476562
 20
502.1949462890625
 30
0.0
 10
170.9190063476562
 20
502.1949462890625
 30
0.0
 10
171.0230102539062
 20
502.1149597167969
 30
0.0
 10
171.1450042724609
 20
502.033935546875
 30
0.0
 10
171.2880096435547
 20
501.949951171875
 30
0.0
 10
181.9299926757812
 20
495.6919860839844
 30
0.0
 10
187.427001953125
 20
485.4660034179688
 30
0.0
 10
191.9640045166016
 20
474.6480102539062
 30
0.0
  0
SPLINE
  5
4A
330
1F
100
AcDbEntity
  8
Layer 1
370
     0
100
AcDbSpline
210
0.0
220
0.0
230
1.0
 70
    11
 71
     3
 72
    44
 73
    40
 74
     0
 42
0.0000000001
 43
0.0000000001
 12
1.0
 22
0.0
 32
0.0
 13
1.0
 23
0.0
 33
0.0
 40
0.0
 40
0.0
 40
0.0
 40
0.0
 40
1.0
 40
1.0
 40
1.0
 40
2.0
 40
2.0
 40
2.0
 40
3.0
 40
3.0
 40
3.0
 40
4.0
 40
4.0
 40
4.0
 40
5.0
 40
5.0
 40
5.0
 40
6.0
 40
6.0
 40
6.0
 40
7.0
 40
7.0
 40
7.0
 40
8.0
 40
8.0
 40
8.0
 40
9.0
 40
9.0
 40
9.0
 40
10.0
 40
10.0
 40
10.0
 40
11.0
 40
11.0
 40
11.0
 40
12.0
 40
12.0
 40
12.0
 40
13.0
 40
13.0
 40
13.0
 40
13.0
 10
145.7760009765625
 20
416.0480041503906
 30
0.0
 10
144.5989990234375
 20
423.4460144042969
 30
0.0
 10
143.6080017089844
 20
430.8739929199219
 30
0.0
 10
142.5489959716797
 20
438.291015625
 30
0.0
 10
140.4619903564453
 20
452.9100036621094
 30
0.0
 10
138.3779907226562
 20
467.530029296875
 30
0.0
 10
136.2819976806641
 20
482.1480102539062
 30
0.0
 10
136.1279907226562
 20
483.2190246582031
 30
0.0
 10
136.0229949951172
 20
484.3320007324219
 30
0.0
 10
134.6889953613281
 20
484.7200012207031
 30
0.0
 10
128.6139984130859
 20
486.4909973144531
 30
0.0
 10
124.6489944458008
 20
491.0029907226562
 30
0.0
 10
120.8529968261719
 20
495.6300048828125
 30
0.0
 10
119.9959945678711
 20
496.6740112304688
 30
0.0
 10
119.379997253418
 20
497.1580200195312
 30
0.0
 10
118.650993347168
 20
496.9599914550781
 30
0.0
 10
118.650993347168
 20
496.9599914550781
 30
0.0
 10
100.0409927368164
 20
477.85498046875
 30
0.0
 10
100.0409927368164
 20
477.85498046875
 30
0.0
 10
100.0179901123047
 20
477.7319946289062
 30
0.0
 10
100.0229949951172
 20
477.6079711914062
 30
0.0
 10
100.057991027832
 20
477.4829711914062
 30
0.0
 10
100.057991027832
 20
477.4829711914062
 30
0.0
 10
110.9599914550781
 20
405.77197265625
 30
0.0
 10
110.9599914550781
 20
405.77197265625
 30
0.0
 10
111.2009887695312
 20
404.1439819335938
 30
0.0
 10
111.9129943847656
 20
403.4239807128906
 30
0.0
 10
113.3759918212891
 20
402.81396484375
 30
0.0
 10
118.2679901123047
 20
400.7699584960938
 30
0.0
 10
123.5169906616211
 20
399.4939575195312
 30
0.0
 10
127.9609985351562
 20
396.4889526367188
 30
0.0
 10
128.2680053710938
 20
396.2809448242188
 30
0.0
 10
128.5449981689453
 20
396.1239624023438
 30
0.0
 10
128.7989959716797
 20
396.0159606933594
 30
0.0
 10
128.7989959716797
 20
396.0159606933594
 30
0.0
 10
145.3359985351562
 20
413.0909729003906
 30
0.0
 10
145.3359985351562
 20
413.0909729003906
 30
0.0
 10
145.8070068359375
 20
413.93798828125
 30
0.0
 10
145.9660034179688
 20
414.8569946289062
 30
0.0
 10
145.7760009765625
 20
416.0480041503906
 30
0.0
  0
SPLINE
  5
4B
330
1F
100
AcDbEntity
  8
Layer 1
370
     0
100
AcDbSpline
210
0.0
220
0.0
230
1.0
 70
    11
 71
     3
 72
   167
 73
   163
 74
     0
 42
0.0000000001
 43
0.0000000001
 12
1.0
 22
0.0
 32
0.0
 13
1.0
 23
0.0
 33
0.0
 40
0.0
 40
0.0
 40
0.0
 40
0.0
 40
1.0
 40
1.0
 40
1.0
 40
2.0
 40
2.0
 40
2.0
 40
3.0
 40
3.0
 40
3.0
 40
4.0
 40
4.0
 40
4.0
 40
5.0
 40
5.0
 40
5.0
 40
6.0
 40
6.0
 40
6.0
 40
7.0
 40
7.0
 40
7.0
 40
8.0
 40
8.0
 40
8.0
 40
9.0
 40
9.0
 40
9.0
 40
10.0
 40
10.0
 40
10.0
 40
11.0
 40
11.0
 40
11.0
 40
12.0
 40
12.0
 40
12.0
 40
13.0
 40
13.0
 40
13.0
 40
14.0
 40
14.0
 40
14.0
 40
15.0
 40
15.0
 40
15.0
 40
16.0
 40
16.0
 40
16.0
 40
17.0
 40
17.0
 40
17.0
 40
18.0
 40
18.0
 40
18.0
 40
19.0
 40
19.0
 40
19.0
 40
20.0
 40
20.0
 40
20.0
 40
21.0
 40
21.0
 40
21.0
 40
22.0
 40
22.0
 40
22.0
 40
23.0
 40
23.0
 40
23.0
 40
24.0
 40
24.0
 40
24.0
 40
25.0
 40
25.0
 40
25.0
 40
26.0
 40
26.0
 40
26.0
 40
27.0
 40
27.0
 40
27.0
 40
28.0
 40
28.0
 40
28.0
 40
29.0
 40
29.0
 40
29.0
 40
30.0
 40
30.0
 40
30.0
 40
31.0
 40
31.0
 40
31.0
 40
32.0
 40
32.0
 40
32.0
 40
33.0
 40
33.0
 40
33.0
 40
34.0
 40
34.0
 40
34.0
 40
35.0
 40
35.0
 40
35.0
 40
36.0
 40
36.0
 40
36.0
 40
37.0
 40
37.0
 40
37.0
 40
38.0
 40
38.0
 40
38.0
 40
39.0
 40
39.0
 40
39.0
 40
40.0
 40
40.0
 40
40.0
 40
41.0
 40
41.0
 40
41.0
 40
42.0
 40
42.0
 40
42.0
 40
43.0
 40
43.0
 40
43.0
 40
44.0
 40
44.0
 40
44.0
 40
45.0
 40
45.0
 40
45.0
 40
46.0
 40
46.0
 40
46.0
 40
47.0
 40
47.0
 40
47.0
 40
48.0
 40
48.0
 40
48.0
 40
49.0
 40
49.0
 40
49.0
 40
50.0
 40
50.0
 40
50.0
 40
51.0
 40
51.0
 40
51.0
 40
52.0
 40
52.0
 40
52.0
 40
53.0
 40
53.0
 40
53.0
 40
54.0
 40
54.0
 40
54.0
 40
54.0
 10
499.5499877929688
 20
383.8330078125
 30
0.0
 10
494.4679870605469
 20
385.0469970703125
 30
0.0
 10
494.5369873046875
 20
385.2239990234375
 30
0.0
 10
498.1519775390625
 20
388.9089965820312
 30
0.0
 10
505.2839660644531
 20
396.177001953125
 30
0.0
 10
511.9049682617188
 20
403.8779907226562
 30
0.0
 10
514.5079956054688
 20
413.9979858398438
 30
0.0
 10
517.1179809570312
 20
424.1479797363281
 30
0.0
 10
518.0479736328125
 20
434.5509948730469
 30
0.0
 10
517.3939819335938
 20
445.0349731445312
 30
0.0
 10
516.52099609375
 20
459.0379638671875
 30
0.0
 10
511.3399963378906
 20
471.8589782714844
 30
0.0
 10
506.2559814453125
 20
484.6909790039062
 30
0.0
 10
505.2909851074219
 20
487.1279907226562
 30
0.0
 10
503.1169738769531
 20
489.6999816894531
 30
0.0
 10
503.1899719238281
 20
491.8879699707031
 30
0.0
 10
503.1899719238281
 20
491.8879699707031
 30
0.0
 10
518.7659912109375
 20
507.9769592285156
 30
0.0
 10
518.7659912109375
 20
507.9769592285156
 30
0.0
 10
519.0
 20
505.3499450683594
 30
0.0
 10
519.9329833984375
 20
503.6599731445312
 30
0.0
 10
521.2470092773438
 20
502.1099548339844
 30
0.0
 10
523.447021484375
 20
499.5149536132812
 30
0.0
 10
526.1890258789062
 20
497.5369567871094
 30
0.0
 10
528.7550048828125
 20
495.3609619140625
 30
0.0
 10
535.135986328125
 20
489.9479675292969
 30
0.0
 10
536.7999877929688
 20
478.9829711914062
 30
0.0
 10
532.3679809570312
 20
471.719970703125
 30
0.0
 10
531.447998046875
 20
470.2129821777344
 30
0.0
 10
530.427001953125
 20
468.8119812011719
 30
0.0
 10
529.0789794921875
 20
467.7129821777344
 30
0.0
 10
527.1319580078125
 20
466.1229858398438
 30
0.0
 10
524.5050048828125
 20
466.7479858398438
 30
0.0
 10
524.1239624023438
 20
468.844970703125
 30
0.0
 10
523.9629516601562
 20
469.7279663085938
 30
0.0
 10
523.6659545898438
 20
470.9609680175781
 30
0.0
 10
525.3939819335938
 20
469.761962890625
 30
0.0
 10
526.7049560546875
 20
468.8519592285156
 30
0.0
 10
527.0549926757812
 20
470.5549621582031
 30
0.0
 10
527.6599731445312
 20
471.1899719238281
 30
0.0
 10
528.4049682617188
 20
471.9719848632812
 30
0.0
 10
527.708984375
 20
472.9059753417969
 30
0.0
 10
527.2239990234375
 20
473.5379638671875
 30
0.0
 10
526.4169921875
 20
474.5919494628906
 30
0.0
 10
525.7050170898438
 20
473.7669677734375
 30
0.0
 10
525.1119995117188
 20
473.1319580078125
 30
0.0
 10
524.1530151367188
 20
472.1049499511719
 30
0.0
 10
523.0570068359375
 20
471.14697265625
 30
0.0
 10
522.3389892578125
 20
469.9649658203125
 30
0.0
 10
521.3690185546875
 20
468.365966796875
 30
0.0
 10
520.5419921875
 20
466.4159545898438
 30
0.0
 10
522.2279663085938
 20
464.8779602050781
 30
0.0
 10
523.9309692382812
 20
463.324951171875
 30
0.0
 10
526.0009765625
 20
463.9129638671875
 30
0.0
 10
527.5919799804688
 20
465.1829528808594
 30
0.0
 10
532.4549560546875
 20
469.0629577636719
 30
0.0
 10
536.989990234375
 20
473.3079528808594
 30
0.0
 10
539.989990234375
 20
478.8609619140625
 30
0.0
 10
544.9649658203125
 20
488.0689697265625
 30
0.0
 10
542.9149780273438
 20
498.4419555664062
 30
0.0
 10
535.06396484375
 20
505.0699462890625
 30
0.0
 10
532.8329467773438
 20
506.9549560546875
 30
0.0
 10
530.7019653320312
 20
509.0099487304688
 30
0.0
 10
528.7999877929688
 20
511.2229614257812
 30
0.0
 10
527.1430053710938
 20
513.1519470214844
 30
0.0
 10
526.5499877929688
 20
514.7639465332031
 30
0.0
 10
526.9550170898438
 20
516.4349670410156
 30
0.0
 10
526.9550170898438
 20
516.4349670410156
 30
0.0
 10
536.9010009765625
 20
526.7019653320312
 30
0.0
 10
536.9010009765625
 20
526.7019653320312
 30
0.0
 10
536.9010009765625
 20
526.7019653320312
 30
0.0
 10
535.3489990234375
 20
528.2049560546875
 30
0.0
 10
535.3489990234375
 20
528.2049560546875
 30
0.0
 10
535.3489990234375
 20
528.2049560546875
 30
0.0
 10
502.2369995117188
 20
494.0079650878906
 30
0.0
 10
502.2369995117188
 20
494.0079650878906
 30
0.0
 10
501.7630004882812
 20
494.1099548339844
 30
0.0
 10
501.31201171875
 20
494.6219787597656
 30
0.0
 10
500.7380065917969
 20
495.6549682617188
 30
0.0
 10
495.3550109863281
 20
505.3519592285156
 30
0.0
 10
487.6430053710938
 20
512.6179809570312
 30
0.0
 10
477.4169921875
 20
517.0869750976562
 30
0.0
 10
473.2869873046875
 20
518.8919677734375
 30
0.0
 10
469.0189819335938
 20
520.0599670410156
 30
0.0
 10
464.4499816894531
 20
519.3879699707031
 30
0.0
 10
454.3639831542969
 20
517.9039611816406
 30
0.0
 10
448.9349670410156
 20
510.81396484375
 30
0.0
 10
444.8049926757812
 20
502.5199584960938
 30
0.0
 10
440.7059936523438
 20
494.2869567871094
 30
0.0
 10
442.0159912109375
 20
486.39794921875
 30
0.0
 10
447.8760070800781
 20
479.4509582519531
 30
0.0
 10
451.1050109863281
 20
475.6239624023438
 30
0.0
 10
455.3139953613281
 20
473.4849548339844
 30
0.0
 10
460.5910034179688
 20
474.5259704589844
 30
0.0
 10
464.8380126953125
 20
475.3639831542969
 30
0.0
 10
469.6109924316406
 20
479.5879821777344
 30
0.0
 10
470.9410095214844
 20
483.7459716796875
 30
0.0
 10
470.6060180664062
 20
483.6019592285156
 30
0.0
 10
470.2669982910156
 20
483.5419616699219
 30
0.0
 10
470.0509948730469
 20
483.3459777832031
 30
0.0
 10
469.5700073242188
 20
482.9099731445312
 30
0.0
 10
469.1199951171875
 20
482.4319763183594
 30
0.0
 10
468.7120056152344
 20
481.9269714355469
 30
0.0
 10
465.4250183105469
 20
477.85498046875
 30
0.0
 10
461.6849975585938
 20
476.9629821777344
 30
0.0
 10
457.0090026855469
 20
479.4239807128906
 30
0.0
 10
450.6589965820312
 20
482.7659912109375
 30
0.0
 10
447.4089965820312
 20
488.2289733886719
 30
0.0
 10
446.3890075683594
 20
495.2489929199219
 30
0.0
 10
444.8200073242188
 20
506.0469970703125
 30
0.0
 10
452.8450012207031
 20
513.22900390625
 30
0.0
 10
463.1440124511719
 20
509.7380065917969
 30
0.0
 10
471.0010070800781
 20
507.0750122070312
 30
0.0
 10
478.27001953125
 20
503.1589965820312
 30
0.0
 10
484.1960144042969
 20
497.1060180664062
 30
0.0
 10
490.5060119628906
 20
490.6620178222656
 30
0.0
 10
494.0580139160156
 20
482.6280212402344
 30
0.0
 10
497.427001953125
 20
474.4850158691406
 30
0.0
 10
505.1380004882812
 20
455.8510131835938
 30
0.0
 10
510.9980163574219
 20
436.9440307617188
 30
0.0
 10
507.8280029296875
 20
416.291015625
 30
0.0
 10
506.1600036621094
 20
405.4230041503906
 30
0.0
 10
503.6790161132812
 20
395.2100219726562
 30
0.0
 10
494.8269958496094
 20
387.6340026855469
 30
0.0
 10
493.2869873046875
 20
386.3160095214844
 30
0.0
 10
492.2429809570312
 20
386.1230163574219
 30
0.0
 10
490.6000061035156
 20
386.8359985351562
 30
0.0
 10
486.5180053710938
 20
388.6069946289062
 30
0.0
 10
482.4020080566406
 20
390.2999877929688
 30
0.0
 10
478.3099975585938
 20
392.0480041503906
 30
0.0
 10
469.3049926757812
 20
395.8970031738281
 30
0.0
 10
460.0969848632812
 20
397.9920043945312
 30
0.0
 10
450.4570007324219
 20
394.697998046875
 30
0.0
 10
438.1270141601562
 20
390.4840087890625
 30
0.0
 10
429.7489929199219
 20
381.5390014648438
 30
0.0
 10
422.8290100097656
 20
370.9960021972656
 30
0.0
 10
422.0060119628906
 20
369.7420043945312
 30
0.0
 10
421.2030029296875
 20
368.2179870605469
 30
0.0
 10
421.4420166015625
 20
366.1470031738281
 30
0.0
 10
425.0570068359375
 20
368.6050109863281
 30
0.0
 10
428.6270141601562
 20
370.3990173339844
 30
0.0
 10
429.5880126953125
 20
375.1239929199219
 30
0.0
 10
430.47900390625
 20
379.5069885253906
 30
0.0
 10
433.7040100097656
 20
382.4819946289062
 30
0.0
 10
437.5599975585938
 20
384.552978515625
 30
0.0
 10
443.9909973144531
 20
388.0049743652344
 30
0.0
 10
450.9150085449219
 20
388.8319702148438
 30
0.0
 10
458.0750122070312
 20
387.8759765625
 30
0.0
 10
466.0440063476562
 20
386.8109741210938
 30
0.0
 10
473.2770080566406
 20
383.5269775390625
 30
0.0
 10
480.4420166015625
 20
380.1489868164062
 30
0.0
 10
494.166015625
 20
373.6789855957031
 30
0.0
 10
508.35400390625
 20
370.6199951171875
 30
0.0
 10
523.43701171875
 20
374.0559997558594
 30
0.0
 10
531.0530395507812
 20
375.7900085449219
 30
0.0
 10
537.5540161132812
 20
379.3829956054688
 30
0.0
 10
541.8049926757812
 20
386.322998046875
 30
0.0
 10
539.0960083007812
 20
385.2080078125
 30
0.0
 10
536.7689819335938
 20
383.4609985351562
 30
0.0
 10
533.9580078125
 20
382.6180114746094
 30
0.0
 10
522.343994140625
 20
379.135009765625
 30
0.0
 10
510.9159851074219
 20
381.1180114746094
 30
0.0
 10
499.5499877929688
 20
383.8330078125
 30
0.0
  0
SPLINE
  5
4C
330
1F
100
AcDbEntity
  8
Layer 1
370
     0
100
AcDbSpline
210
0.0
220
0.0
230
1.0
 70
    11
 71
     3
 72
    53
 73
    49
 74
     0
 42
0.0000000001
 43
0.0000000001
 12
1.0
 22
0.0
 32
0.0
 13
1.0
 23
0.0
 33
0.0
 40
0.0
 40
0.0
 40
0.0
 40
0.0
 40
1.0
 40
1.0
 40
1.0
 40
2.0
 40
2.0
 40
2.0
 40
3.0
 40
3.0
 40
3.0
 40
4.0
 40
4.0
 40
4.0
 40
5.0
 40
5.0
 40
5.0
 40
6.0
 40
6.0
 40
6.0
 40
7.0
 40
7.0
 40
7.0
 40
8.0
 40
8.0
 40
8.0
 40
9.0
 40
9.0
 40
9.0
 40
10.0
 40
10.0
 40
10.0
 40
11.0
 40
11.0
 40
11.0
 40
12.0
 40
12.0
 40
12.0
 40
13.0
 40
13.0
 40
13.0
 40
14.0
 40
14.0
 40
14.0
 40
15.0
 40
15.0
 40
15.0
 40
16.0
 40
16.0
 40
16.0
 40
16.0
 10
451.3160095214844
 20
424.7909851074219
 30
0.0
 10
451.3160095214844
 20
424.7909851074219
 30
0.0
 10
388.7090148925781
 20
360.135986328125
 30
0.0
 10
388.7090148925781
 20
360.135986328125
 30
0.0
 10
388.7090148925781
 20
360.135986328125
 30
0.0
 10
387.1570129394531
 20
361.6389770507812
 30
0.0
 10
387.1570129394531
 20
361.6389770507812
 30
0.0
 10
387.1570129394531
 20
361.6389770507812
 30
0.0
 10
410.9609985351562
 20
386.2229614257812
 30
0.0
 10
410.9609985351562
 20
386.2229614257812
 30
0.0
 10
410.8819885253906
 20
386.27294921875
 30
0.0
 10
410.7990112304688
 20
386.323974609375
 30
0.0
 10
410.708984375
 20
386.3749694824219
 30
0.0
 10
395.0079956054688
 20
395.3679809570312
 30
0.0
 10
387.6029968261719
 20
409.3229675292969
 30
0.0
 10
386.5649719238281
 20
427.0359802246094
 30
0.0
 10
386.2979736328125
 20
431.5869750976562
 30
0.0
 10
385.9979858398438
 20
436.1399841308594
 30
0.0
 10
385.8619689941406
 20
440.6949768066406
 30
0.0
 10
385.6739807128906
 20
446.9879760742188
 30
0.0
 10
387.4399719238281
 20
452.68798828125
 30
0.0
 10
391.3209838867188
 20
457.7119750976562
 30
0.0
 10
395.3359985351562
 20
462.9099731445312
 30
0.0
 10
399.9149780273438
 20
467.5169677734375
 30
0.0
 10
405.3389892578125
 20
471.2329711914062
 30
0.0
 10
409.4539794921875
 20
474.0539855957031
 30
0.0
 10
413.6849975585938
 20
473.3409729003906
 30
0.0
 10
416.8309936523438
 20
469.4219665527344
 30
0.0
 10
422.8890075683594
 20
461.8779602050781
 30
0.0
 10
423.0929870605469
 20
447.8359680175781
 30
0.0
 10
417.2219848632812
 20
439.3709716796875
 30
0.0
 10
412.6349792480469
 20
432.7559814453125
 30
0.0
 10
406.4679870605469
 20
427.7449645996094
 30
0.0
 10
400.1179809570312
 20
422.9779663085938
 30
0.0
 10
398.2099914550781
 20
421.5459594726562
 30
0.0
 10
397.89697265625
 20
420.4039611816406
 30
0.0
 10
398.843994140625
 20
418.1669616699219
 30
0.0
 10
403.0440063476562
 20
408.2479553222656
 30
0.0
 10
406.9629821777344
 20
401.8549499511719
 30
0.0
 10
416.3269958496094
 20
396.3739624023438
 30
0.0
 10
417.5329895019531
 20
395.66796875
 30
0.0
 10
418.7250061035156
 20
395.1949768066406
 30
0.0
 10
419.8809814453125
 20
395.4239501953125
 30
0.0
 10
419.8809814453125
 20
395.4239501953125
 30
0.0
 10
449.7639770507812
 20
426.2939453125
 30
0.0
 10
449.7639770507812
 20
426.2939453125
 30
0.0
 10
449.7639770507812
 20
426.2939453125
 30
0.0
 10
451.3160095214844
 20
424.7909851074219
 30
0.0
 10
451.3160095214844
 20
424.7909851074219
 30
0.0
  0
SPLINE
  5
4D
330
1F
100
AcDbEntity
  8
Layer 1
370
     0
100
AcDbSpline
210
0.0
220
0.0
230
1.0
 70
    11
 71
     3
 72
    29
 73
    25
 74
     0
 42
0.0000000001
 43
0.0000000001
 12
1.0
 22
0.0
 32
0.0
 13
1.0
 23
0.0
 33
0.0
 40
0.0
 40
0.0
 40
0.0
 40
0.0
 40
1.0
 40
1.0
 40
1.0
 40
2.0
 40
2.0
 40
2.0
 40
3.0
 40
3.0
 40
3.0
 40
4.0
 40
4.0
 40
4.0
 40
5.0
 40
5.0
 40
5.0
 40
6.0
 40
6.0
 40
6.0
 40
7.0
 40
7.0
 40
7.0
 40
8.0
 40
8.0
 40
8.0
 40
8.0
 10
399.010009765625
 20
425.2969970703125
 30
0.0
 10
400.9259948730469
 20
426.8919982910156
 30
0.0
 10
403.0550231933594
 20
428.2279968261719
 30
0.0
 10
405.0299987792969
 20
429.7539978027344
 30
0.0
 10
413.385986328125
 20
436.2149963378906
 30
0.0
 10
415.677001953125
 20
450.6719970703125
 30
0.0
 10
409.5379943847656
 20
459.3399963378906
 30
0.0
 10
407.7959899902344
 20
461.7980041503906
 30
0.0
 10
406.135986328125
 20
465.3150024414062
 30
0.0
 10
402.4309997558594
 20
464.7070007324219
 30
0.0
 10
398.6910095214844
 20
464.093994140625
 30
0.0
 10
396.9169921875
 20
460.7760009765625
 30
0.0
 10
395.5639953613281
 20
457.4729919433594
 30
0.0
 10
395.281005859375
 20
456.781005859375
 30
0.0
 10
395.1789855957031
 20
456.0079956054688
 30
0.0
 10
395.0480041503906
 20
455.2630004882812
 30
0.0
 10
394.3489990234375
 20
451.2940063476562
 30
0.0
 10
393.9320068359375
 20
447.302001953125
 30
0.0
 10
394.1910095214844
 20
443.4010009765625
 30
0.0
 10
393.9089965820312
 20
437.5660095214844
 30
0.0
 10
394.8529968261719
 20
432.0159912109375
 30
0.0
 10
396.1069946289062
 20
426.4869995117188
 30
0.0
 10
396.56201171875
 20
424.489990234375
 30
0.0
 10
397.0969848632812
 20
423.7049865722656
 30
0.0
 10
399.010009765625
 20
425.2969970703125
 30
0.0
  0
SPLINE
  5
4E
330
1F
100
AcDbEntity
  8
Layer 1
370
     0
100
AcDbSpline
210
0.0
220
0.0
230
1.0
 70
    11
 71
     3
 72
   200
 73
   196
 74
     0
 42
0.0000000001
 43
0.0000000001
 12
1.0
 22
0.0
 32
0.0
 13
1.0
 23
0.0
 33
0.0
 40
0.0
 40
0.0
 40
0.0
 40
0.0
 40
1.0
 40
1.0
 40
1.0
 40
2.0
 40
2.0
 40
2.0
 40
3.0
 40
3.0
 40
3.0
 40
4.0
 40
4.0
 40
4.0
 40
5.0
 40
5.0
 40
5.0
 40
6.0
 40
6.0
 40
6.0
 40
7.0
 40
7.0
 40
7.0
 40
8.0
 40
8.0
 40
8.0
 40
9.0
 40
9.0
 40
9.0
 40
10.0
 40
10.0
 40
10.0
 40
11.0
 40
11.0
 40
11.0
 40
12.0
 40
12.0
 40
12.0
 40
13.0
 40
13.0
 40
13.0
 40
14.0
 40
14.0
 40
14.0
 40
15.0
 40
15.0
 40
15.0
 40
16.0
 40
16.0
 40
16.0
 40
17.0
 40
17.0
 40
17.0
 40
18.0
 40
18.0
 40
18.0
 40
19.0
 40
19.0
 40
19.0
 40
20.0
 40
20.0
 40
20.0
 40
21.0
 40
21.0
 40
21.0
 40
22.0
 40
22.0
 40
22.0
 40
23.0
 40
23.0
 40
23.0
 40
24.0
 40
24.0
 40
24.0
 40
25.0
 40
25.0
 40
25.0
 40
26.0
 40
26.0
 40
26.0
 40
27.0
 40
27.0
 40
27.0
 40
28.0
 40
28.0
 40
28.0
 40
29.0
 40
29.0
 40
29.0
 40
30.0
 40
30.0
 40
30.0
 40
31.0
 40
31.0
 40
31.0
 40
32.0
 40
32.0
 40
32.0
 40
33.0
 40
33.0
 40
33.0
 40
34.0
 40
34.0
 40
34.0
 40
35.0
 40
35.0
 40
35.0
 40
36.0
 40
36.0
 40
36.0
 40
37.0
 40
37.0
 40
37.0
 40
38.0
 40
38.0
 40
38.0
 40
39.0
 40
39.0
 40
39.0
 40
40.0
 40
40.0
 40
40.0
 40
41.0
 40
41.0
 40
41.0
 40
42.0
 40
42.0
 40
42.0
 40
43.0
 40
43.0
 40
43.0
 40
44.0
 40
44.0
 40
44.0
 40
45.0
 40
45.0
 40
45.0
 40
46.0
 40
46.0
 40
46.0
 40
47.0
 40
47.0
 40
47.0
 40
48.0
 40
48.0
 40
48.0
 40
49.0
 40
49.0
 40
49.0
 40
50.0
 40
50.0
 40
50.0
 40
51.0
 40
51.0
 40
51.0
 40
52.0
 40
52.0
 40
52.0
 40
53.0
 40
53.0
 40
53.0
 40
54.0
 40
54.0
 40
54.0
 40
55.0
 40
55.0
 40
55.0
 40
56.0
 40
56.0
 40
56.0
 40
57.0
 40
57.0
 40
57.0
 40
58.0
 40
58.0
 40
58.0
 40
59.0
 40
59.0
 40
59.0
 40
60.0
 40
60.0
 40
60.0
 40
61.0
 40
61.0
 40
61.0
 40
62.0
 40
62.0
 40
62.0
 40
63.0
 40
63.0
 40
63.0
 40
64.0
 40
64.0
 40
64.0
 40
65.0
 40
65.0
 40
65.0
 40
65.0
 10
719.635009765625
 20
399.1059875488281
 30
0.0
 10
719.635009765625
 20
399.1059875488281
 30
0.0
 10
721.18701171875
 20
397.6029968261719
 30
0.0
 10
721.18701171875
 20
397.6029968261719
 30
0.0
 10
721.18701171875
 20
397.6029968261719
 30
0.0
 10
652.5690307617188
 20
326.740966796875
 30
0.0
 10
652.5690307617188
 20
326.740966796875
 30
0.0
 10
652.5690307617188
 20
326.740966796875
 30
0.0
 10
651.0170288085938
 20
328.2439575195312
 30
0.0
 10
651.0170288085938
 20
328.2439575195312
 30
0.0
 10
651.0170288085938
 20
328.2439575195312
 30
0.0
 10
672.2960205078125
 20
350.2179565429688
 30
0.0
 10
672.2960205078125
 20
350.2179565429688
 30
0.0
 10
673.33203125
 20
352.6729431152344
 30
0.0
 10
671.7080078125
 20
354.6809692382812
 30
0.0
 10
669.8380126953125
 20
360.8599548339844
 30
0.0
 10
666.9739990234375
 20
370.3199462890625
 30
0.0
 10
666.7300415039062
 20
380.56396484375
 30
0.0
 10
665.2219848632812
 20
390.4459533691406
 30
0.0
 10
664.4209594726562
 20
395.6989440917969
 30
0.0
 10
659.60595703125
 20
397.636962890625
 30
0.0
 10
655.0679931640625
 20
394.6819458007812
 30
0.0
 10
649.6740112304688
 20
391.1699523925781
 30
0.0
 10
648.5830078125
 20
387.4459533691406
 30
0.0
 10
651.2869873046875
 20
381.7809448242188
 30
0.0
 10
644.9760131835938
 20
386.3719482421875
 30
0.0
 10
644.7369995117188
 20
392.1029357910156
 30
0.0
 10
650.6759643554688
 20
397.0099487304688
 30
0.0
 10
653.7889404296875
 20
399.5809631347656
 30
0.0
 10
657.0139770507812
 20
402.0039367675781
 30
0.0
 10
661.1089477539062
 20
402.761962890625
 30
0.0
 10
662.7269287109375
 20
403.0619506835938
 30
0.0
 10
662.5709228515625
 20
404.0569763183594
 30
0.0
 10
662.3789672851562
 20
405.1839599609375
 30
0.0
 10
660.989990234375
 20
413.3339538574219
 30
0.0
 10
659.095947265625
 20
424.4529724121094
 30
0.0
 10
657.5759887695312
 20
433.3729553222656
 30
0.0
 10
657.5759887695312
 20
433.3729553222656
 30
0.0
 10
592.35498046875
 20
361.9989624023438
 30
0.0
 10
592.35498046875
 20
361.9989624023438
 30
0.0
 10
592.35498046875
 20
361.9989624023438
 30
0.0
 10
590.802978515625
 20
363.5
 30
0.0
 10
590.802978515625
 20
363.5
 30
0.0
 10
590.802978515625
 20
363.5
 30
0.0
 10
610.7179565429688
 20
385.2829895019531
 30
0.0
 10
610.7179565429688
 20
385.2829895019531
 30
0.0
 10
610.5499267578125
 20
385.6940002441406
 30
0.0
 10
610.054931640625
 20
386.0910034179688
 30
0.0
 10
609.1869506835938
 20
386.5539855957031
 30
0.0
 10
601.8099365234375
 20
390.4919738769531
 30
0.0
 10
596.8379516601562
 20
394.6219787597656
 30
0.0
 10
593.0699462890625
 20
402.1349792480469
 30
0.0
 10
592.8509521484375
 20
402.5719909667969
 30
0.0
 10
592.7019653320312
 20
402.9319763183594
 30
0.0
 10
592.5909423828125
 20
403.2119750976562
 30
0.0
 10
592.5909423828125
 20
403.2119750976562
 30
0.0
 10
551.4839477539062
 20
360.7589721679688
 30
0.0
 10
551.4839477539062
 20
360.7589721679688
 30
0.0
 10
551.4839477539062
 20
360.7589721679688
 30
0.0
 10
549.9319458007812
 20
362.261962890625
 30
0.0
 10
549.9319458007812
 20
362.261962890625
 30
0.0
 10
549.9319458007812
 20
362.261962890625
 30
0.0
 10
570.1859741210938
 20
383.177978515625
 30
0.0
 10
570.1859741210938
 20
383.177978515625
 30
0.0
 10
569.5849609375
 20
383.8069763183594
 30
0.0
 10
568.4579467773438
 20
384.3359680175781
 30
0.0
 10
567.4159545898438
 20
384.6899719238281
 30
0.0
 10
552.93896484375
 20
389.6199645996094
 30
0.0
 10
545.574951171875
 20
400.8629760742188
 30
0.0
 10
541.3089599609375
 20
414.6169738769531
 30
0.0
 10
538.2569580078125
 20
424.4569702148438
 30
0.0
 10
536.7439575195312
 20
434.5189819335938
 30
0.0
 10
538.8589477539062
 20
444.8359680175781
 30
0.0
 10
540.9209594726562
 20
454.8949584960938
 30
0.0
 10
547.1859741210938
 20
462.06396484375
 30
0.0
 10
554.8629760742188
 20
468.2699584960938
 30
0.0
 10
556.7959594726562
 20
469.8329467773438
 30
0.0
 10
559.0189819335938
 20
469.4149475097656
 30
0.0
 10
561.10400390625
 20
468.7979736328125
 30
0.0
 10
564.2219848632812
 20
467.8729858398438
 30
0.0
 10
566.698974609375
 20
465.9609680175781
 30
0.0
 10
568.47802734375
 20
463.2029724121094
 30
0.0
 10
573.6730346679688
 20
455.1499633789062
 30
0.0
 10
571.9540405273438
 20
441.9779663085938
 30
0.0
 10
564.8410034179688
 20
435.5769653320312
 30
0.0
 10
564.2490234375
 20
435.0459594726562
 30
0.0
 10
563.7680053710938
 20
434.2249755859375
 30
0.0
 10
562.3619995117188
 20
434.303955078125
 30
0.0
 10
565.39599609375
 20
438.2759399414062
 30
0.0
 10
566.97998046875
 20
442.4969482421875
 30
0.0
 10
566.3159790039062
 20
447.3569641113281
 30
0.0
 10
565.4840087890625
 20
453.448974609375
 30
0.0
 10
562.9530029296875
 20
458.5549621582031
 30
0.0
 10
557.8519897460938
 20
462.1879577636719
 30
0.0
 10
554.4129638671875
 20
464.6359558105469
 30
0.0
 10
552.2219848632812
 20
464.376953125
 30
0.0
 10
549.27099609375
 20
461.2949523925781
 30
0.0
 10
546.1110229492188
 20
457.9969482421875
 30
0.0
 10
544.5659790039062
 20
453.8369445800781
 30
0.0
 10
544.1959838867188
 20
449.512939453125
 30
0.0
 10
542.5650024414062
 20
430.4479370117188
 30
0.0
 10
548.6849975585938
 20
414.0149536132812
 30
0.0
 10
561.9539794921875
 20
400.3169555664062
 30
0.0
 10
565.4840087890625
 20
396.6719665527344
 30
0.0
 10
569.948974609375
 20
394.1539611816406
 30
0.0
 10
575.0079956054688
 20
393.1559448242188
 30
0.0
 10
576.083984375
 20
392.9439392089844
 30
0.0
 10
577.9569702148438
 20
392.6119384765625
 30
0.0
 10
579.4609985351562
 20
392.751953125
 30
0.0
 10
579.4609985351562
 20
392.751953125
 30
0.0
 10
591.198974609375
 20
404.8689575195312
 30
0.0
 10
591.198974609375
 20
404.8689575195312
 30
0.0
 10
590.9509887695312
 20
406.5669555664062
 30
0.0
 10
589.8049926757812
 20
408.8269653320312
 30
0.0
 10
589.4759521484375
 20
409.8549499511719
 30
0.0
 10
586.1109619140625
 20
420.3689575195312
 30
0.0
 10
583.9409790039062
 20
431.0629577636719
 30
0.0
 10
584.8759765625
 20
442.2079467773438
 30
0.0
 10
585.447998046875
 20
449.0169372558594
 30
0.0
 10
589.14697265625
 20
454.1759338378906
 30
0.0
 10
593.531005859375
 20
458.9529418945312
 30
0.0
 10
596.5440063476562
 20
462.2359313964844
 30
0.0
 10
599.8359985351562
 20
465.2619323730469
 30
0.0
 10
603.4390258789062
 20
467.8989562988281
 30
0.0
 10
607.5660400390625
 20
470.9199523925781
 30
0.0
 10
611.1150512695312
 20
470.9789428710938
 30
0.0
 10
615.0070190429688
 20
467.5809631347656
 30
0.0
 10
631.9120483398438
 20
452.8219604492188
 30
0.0
 10
639.3800048828125
 20
434.5729675292969
 30
0.0
 10
635.2969970703125
 20
412.1859741210938
 30
0.0
 10
635.2969970703125
 20
412.1859741210938
 30
0.0
 10
656.9049682617188
 20
435.8269653320312
 30
0.0
 10
656.9049682617188
 20
435.8269653320312
 30
0.0
 10
657.1089477539062
 20
437.6839599609375
 30
0.0
 10
656.7449951171875
 20
439.9829711914062
 30
0.0
 10
656.2869873046875
 20
443.9729614257812
 30
0.0
 10
655.4149780273438
 20
451.5689697265625
 30
0.0
 10
649.4149780273438
 20
453.970947265625
 30
0.0
 10
644.81201171875
 20
457.9469604492188
 30
0.0
 10
644.7360229492188
 20
458.011962890625
 30
0.0
 10
644.6630249023438
 20
458.0679626464844
 30
0.0
 10
644.593994140625
 20
458.1129455566406
 30
0.0
 10
644.593994140625
 20
458.1129455566406
 30
0.0
 10
633.6929931640625
 20
446.8529357910156
 30
0.0
 10
633.6929931640625
 20
446.8529357910156
 30
0.0
 10
633.6929931640625
 20
446.8529357910156
 30
0.0
 10
632.1409912109375
 20
448.3559265136719
 30
0.0
 10
632.1409912109375
 20
448.3559265136719
 30
0.0
 10
632.1409912109375
 20
448.3559265136719
 30
0.0
 10
672.56201171875
 20
490.0989379882812
 30
0.0
 10
672.56201171875
 20
490.0989379882812
 30
0.0
 10
672.56201171875
 20
490.0989379882812
 30
0.0
 10
674.114013671875
 20
488.595947265625
 30
0.0
 10
674.114013671875
 20
488.595947265625
 30
0.0
 10
674.114013671875
 20
488.595947265625
 30
0.0
 10
652.3179931640625
 20
466.0869445800781
 30
0.0
 10
652.3179931640625
 20
466.0869445800781
 30
0.0
 10
652.4949951171875
 20
465.9319458007812
 30
0.0
 10
652.718994140625
 20
465.7779541015625
 30
0.0
 10
652.9920043945312
 20
465.6199340820312
 30
0.0
 10
653.0859985351562
 20
465.5659484863281
 30
0.0
 10
653.1730346679688
 20
465.4999389648438
 30
0.0
 10
653.2639770507812
 20
465.4419250488281
 30
0.0
 10
660.031005859375
 20
461.1149291992188
 30
0.0
 10
664.5859985351562
 20
456.0699157714844
 30
0.0
 10
664.949951171875
 20
446.9449157714844
 30
0.0
 10
664.98095703125
 20
446.1769104003906
 30
0.0
 10
665.137939453125
 20
445.8849182128906
 30
0.0
 10
665.1409301757812
 20
444.8459167480469
 30
0.0
 10
665.1409301757812
 20
444.8459167480469
 30
0.0
 10
699.794921875
 20
482.7709045410156
 30
0.0
 10
699.794921875
 20
482.7709045410156
 30
0.0
 10
699.794921875
 20
482.7709045410156
 30
0.0
 10
701.346923828125
 20
481.2679138183594
 30
0.0
 10
701.346923828125
 20
481.2679138183594
 30
0.0
 10
701.346923828125
 20
481.2679138183594
 30
0.0
 10
686.3359375
 20
464.8459167480469
 30
0.0
 10
686.3359375
 20
464.8459167480469
 30
0.0
 10
684.5909423828125
 20
461.4269104003906
 30
0.0
 10
685.284912109375
 20
458.1629028320312
 30
0.0
 10
688.10693359375
 20
454.3389282226562
 30
0.0
 10
692.0439453125
 20
449.0049133300781
 30
0.0
 10
696.199951171875
 20
443.8329162597656
 30
0.0
 10
700.1119384765625
 20
438.48193359375
 30
0.0
 10
710.8359375
 20
423.8129272460938
 30
0.0
 10
709.2459106445312
 20
408.1049194335938
 30
0.0
 10
696.3489379882812
 20
394.9289245605469
 30
0.0
 10
688.4519653320312
 20
386.8609313964844
 30
0.0
 10
685.0039672851562
 20
386.0749206542969
 30
0.0
 10
674.867919921875
 20
390.6779174804688
 30
0.0
 10
674.262939453125
 20
387.7289123535156
 30
0.0
 10
678.212890625
 20
365.013916015625
 30
0.0
 10
680.305908203125
 20
358.4949340820312
 30
0.0
 10
680.305908203125
 20
358.4949340820312
 30
0.0
 10
719.635009765625
 20
399.1059875488281
 30
0.0
 10
719.635009765625
 20
399.1059875488281
 30
0.0
  0
SPLINE
  5
4F
330
1F
100
AcDbEntity
  8
Layer 1
370
     0
100
AcDbSpline
210
0.0
220
0.0
230
1.0
 70
    11
 71
     3
 72
    47
 73
    43
 74
     0
 42
0.0000000001
 43
0.0000000001
 12
1.0
 22
0.0
 32
0.0
 13
1.0
 23
0.0
 33
0.0
 40
0.0
 40
0.0
 40
0.0
 40
0.0
 40
1.0
 40
1.0
 40
1.0
 40
2.0
 40
2.0
 40
2.0
 40
3.0
 40
3.0
 40
3.0
 40
4.0
 40
4.0
 40
4.0
 40
5.0
 40
5.0
 40
5.0
 40
6.0
 40
6.0
 40
6.0
 40
7.0
 40
7.0
 40
7.0
 40
8.0
 40
8.0
 40
8.0
 40
9.0
 40
9.0
 40
9.0
 40
10.0
 40
10.0
 40
10.0
 40
11.0
 40
11.0
 40
11.0
 40
12.0
 40
12.0
 40
12.0
 40
13.0
 40
13.0
 40
13.0
 40
14.0
 40
14.0
 40
14.0
 40
14.0
 10
628.1909790039062
 20
423.2619934082031
 30
0.0
 10
625.699951171875
 20
438.2479858398438
 30
0.0
 10
618.552001953125
 20
450.6009826660156
 30
0.0
 10
606.6099853515625
 20
459.9889831542969
 30
0.0
 10
601.4450073242188
 20
464.0489807128906
 30
0.0
 10
596.0379638671875
 20
462.2109680175781
 30
0.0
 10
593.6449584960938
 20
455.9989929199219
 30
0.0
 10
592.5829467773438
 20
453.239990234375
 30
0.0
 10
592.1869506835938
 20
450.343994140625
 30
0.0
 10
592.1079711914062
 20
447.3880004882812
 30
0.0
 10
591.85595703125
 20
438.0379943847656
 30
0.0
 10
593.886962890625
 20
429.0419921875
 30
0.0
 10
596.3529663085938
 20
420.1260070800781
 30
0.0
 10
596.4109497070312
 20
419.916015625
 30
0.0
 10
596.4659423828125
 20
419.718994140625
 30
0.0
 10
596.5189819335938
 20
419.5320129394531
 30
0.0
 10
597.06201171875
 20
417.2490234375
 30
0.0
 10
597.9209594726562
 20
415.0530090332031
 30
0.0
 10
599.0719604492188
 20
413.0080261230469
 30
0.0
 10
599.0719604492188
 20
413.0080261230469
 30
0.0
 10
602.0489501953125
 20
416.0830383300781
 30
0.0
 10
602.0489501953125
 20
416.0830383300781
 30
0.0
 10
603.1709594726562
 20
417.3760375976562
 30
0.0
 10
604.8959350585938
 20
417.9750366210938
 30
0.0
 10
606.5779418945312
 20
417.655029296875
 30
0.0
 10
606.5779418945312
 20
417.655029296875
 30
0.0
 10
600.0799560546875
 20
410.947021484375
 30
0.0
 10
600.0799560546875
 20
410.947021484375
 30
0.0
 10
604.1669311523438
 20
403.5710144042969
 30
0.0
 10
607.3439331054688
 20
399.7770080566406
 30
0.0
 10
614.7279663085938
 20
395.7030334472656
 30
0.0
 10
615.7279663085938
 20
395.1510314941406
 30
0.0
 10
618.0029907226562
 20
394.4680480957031
 30
0.0
 10
619.3839721679688
 20
394.7660217285156
 30
0.0
 10
619.3839721679688
 20
394.7660217285156
 30
0.0
 10
626.4089965820312
 20
402.4620361328125
 30
0.0
 10
626.4089965820312
 20
402.4620361328125
 30
0.0
 10
627.5089721679688
 20
404.5650329589844
 30
0.0
 10
628.1890258789062
 20
406.9070434570312
 30
0.0
 10
628.3599853515625
 20
409.6190490722656
 30
0.0
 10
628.6500244140625
 20
414.1900024414062
 30
0.0
 10
628.9409790039062
 20
418.7439880371094
 30
0.0
 10
628.1909790039062
 20
423.2619934082031
 30
0.0
  0
SPLINE
  5
50
330
1F
100
AcDbEntity
  8
Layer 1
370
     0
100
AcDbSpline
210
0.0
220
0.0
230
1.0
 70
    11
 71
     3
 72
    35
 73
    31
 74
     0
 42
0.0000000001
 43
0.0000000001
 12
1.0
 22
0.0
 32
0.0
 13
1.0
 23
0.0
 33
0.0
 40
0.0
 40
0.0
 40
0.0
 40
0.0
 40
1.0
 40
1.0
 40
1.0
 40
2.0
 40
2.0
 40
2.0
 40
3.0
 40
3.0
 40
3.0
 40
4.0
 40
4.0
 40
4.0
 40
5.0
 40
5.0
 40
5.0
 40
6.0
 40
6.0
 40
6.0
 40
7.0
 40
7.0
 40
7.0
 40
8.0
 40
8.0
 40
8.0
 40
9.0
 40
9.0
 40
9.0
 40
10.0
 40
10.0
 40
10.0
 40
10.0
 10
678.7680053710938
 20
400.5880126953125
 30
0.0
 10
679.8729858398438
 20
400.4380187988281
 30
0.0
 10
680.9030151367188
 20
399.56201171875
 30
0.0
 10
681.9180297851562
 20
398.9410095214844
 30
0.0
 10
684.3380126953125
 20
397.4580078125
 30
0.0
 10
686.8370361328125
 20
396.2019958496094
 30
0.0
 10
689.677001953125
 20
395.7380065917969
 30
0.0
 10
692.9520263671875
 20
395.2030029296875
 30
0.0
 10
695.6090087890625
 20
396.6990051269531
 30
0.0
 10
696.8699951171875
 20
399.8210144042969
 30
0.0
 10
700.8330078125
 20
409.6260070800781
 30
0.0
 10
699.6430053710938
 20
418.9500122070312
 30
0.0
 10
694.0850219726562
 20
427.7750244140625
 30
0.0
 10
690.8460083007812
 20
432.9180297851562
 30
0.0
 10
687.177001953125
 20
437.7650146484375
 30
0.0
 10
683.3150024414062
 20
442.4610290527344
 30
0.0
 10
680.7730102539062
 20
445.5540161132812
 30
0.0
 10
677.9110107421875
 20
449.9140319824219
 30
0.0
 10
677.3400268554688
 20
454.9990234375
 30
0.0
 10
677.3400268554688
 20
454.9990234375
 30
0.0
 10
665.760009765625
 20
442.3300170898438
 30
0.0
 10
665.760009765625
 20
442.3300170898438
 30
0.0
 10
665.7510375976562
 20
440.7940063476562
 30
0.0
 10
666.0140380859375
 20
438.68701171875
 30
0.0
 10
666.135009765625
 20
437.9580078125
 30
0.0
 10
667.6069946289062
 20
429.0780029296875
 30
0.0
 10
669.1940307617188
 20
420.2120056152344
 30
0.0
 10
670.4559936523438
 20
411.3009948730469
 30
0.0
 10
671.2050170898438
 20
406.0079956054688
 30
0.0
 10
672.406982421875
 20
401.4549865722656
 30
0.0
 10
678.7680053710938
 20
400.5880126953125
 30
0.0
  0
SPLINE
  5
51
330
1F
100
AcDbEntity
  8
Layer 1
370
     0
100
AcDbSpline
210
0.0
220
0.0
230
1.0
 70
    11
 71
     3
 72
    41
 73
    37
 74
     0
 42
0.0000000001
 43
0.0000000001
 12
1.0
 22
0.0
 32
0.0
 13
1.0
 23
0.0
 33
0.0
 40
0.0
 40
0.0
 40
0.0
 40
0.0
 40
1.0
 40
1.0
 40
1.0
 40
2.0
 40
2.0
 40
2.0
 40
3.0
 40
3.0
 40
3.0
 40
4.0
 40
4.0
 40
4.0
 40
5.0
 40
5.0
 40
5.0
 40
6.0
 40
6.0
 40
6.0
 40
7.0
 40
7.0
 40
7.0
 40
8.0
 40
8.0
 40
8.0
 40
9.0
 40
9.0
 40
9.0
 40
10.0
 40
10.0
 40
10.0
 40
11.0
 40
11.0
 40
11.0
 40
12.0
 40
12.0
 40
12.0
 40
12.0
 10
803.1719970703125
 20
392.1499938964844
 30
0.0
 10
799.239013671875
 20
383.9779968261719
 30
0.0
 10
794.8909912109375
 20
382.1909790039062
 30
0.0
 10
787.0339965820312
 20
386.4450073242188
 30
0.0
 10
768.7960205078125
 20
396.3200073242188
 30
0.0
 10
758.0039672851562
 20
414.3909912109375
 30
0.0
 10
760.4940185546875
 20
436.0400085449219
 30
0.0
 10
761.0660400390625
 20
441.0169982910156
 30
0.0
 10
763.4150390625
 20
445.322021484375
 30
0.0
 10
766.6190185546875
 20
449.135009765625
 30
0.0
 10
772.1539916992188
 20
455.7220153808594
 30
0.0
 10
778.3890380859375
 20
461.60400390625
 30
0.0
 10
784.9390258789062
 20
467.1620178222656
 30
0.0
 10
785.6790161132812
 20
467.7920227050781
 30
0.0
 10
786.5180053710938
 20
468.31201171875
 30
0.0
 10
787.3370361328125
 20
468.8440246582031
 30
0.0
 10
792.6240234375
 20
472.2760314941406
 30
0.0
 10
795.9430541992188
 20
471.3990173339844
 30
0.0
 10
798.4610595703125
 20
465.6610107421875
 30
0.0
 10
801.2280883789062
 20
459.3590087890625
 30
0.0
 10
801.1270751953125
 20
452.8180236816406
 30
0.0
 10
798.373046875
 20
446.6620178222656
 30
0.0
 10
793.2840576171875
 20
435.2860107421875
 30
0.0
 10
782.1140747070312
 20
425.6360168457031
 30
0.0
 10
772.31005859375
 20
418.009033203125
 30
0.0
 10
772.31005859375
 20
418.009033203125
 30
0.0
 10
773.2900390625
 20
415.7770385742188
 30
0.0
 10
773.2900390625
 20
415.7770385742188
 30
0.0
 10
778.7360229492188
 20
406.0540466308594
 30
0.0
 10
786.2830200195312
 20
398.4830322265625
 30
0.0
 10
796.238037109375
 20
393.4000244140625
 30
0.0
 10
797.2830200195312
 20
392.8680114746094
 30
0.0
 10
798.4850463867188
 20
392.5700378417969
 30
0.0
 10
799.6490478515625
 20
392.364013671875
 30
0.0
 10
800.7990112304688
 20
392.1589965820312
 30
0.0
 10
801.9949951171875
 20
392.2109985351562
 30
0.0
 10
803.1719970703125
 20
392.1499938964844
 30
0.0
  0
SPLINE
  5
52
330
1F
100
AcDbEntity
  8
Layer 1
370
     0
100
AcDbSpline
210
0.0
220
0.0
230
1.0
 70
    11
 71
     3
 72
    26
 73
    22
 74
     0
 42
0.0000000001
 43
0.0000000001
 12
1.0
 22
0.0
 32
0.0
 13
1.0
 23
0.0
 33
0.0
 40
0.0
 40
0.0
 40
0.0
 40
0.0
 40
1.0
 40
1.0
 40
1.0
 40
2.0
 40
2.0
 40
2.0
 40
3.0
 40
3.0
 40
3.0
 40
4.0
 40
4.0
 40
4.0
 40
5.0
 40
5.0
 40
5.0
 40
6.0
 40
6.0
 40
6.0
 40
7.0
 40
7.0
 40
7.0
 40
7.0
 10
771.7559814453125
 20
419.2560119628906
 30
0.0
 10
773.2470092773438
 20
420.666015625
 30
0.0
 10
775.4759521484375
 20
422.1790161132812
 30
0.0
 10
776.2319946289062
 20
422.9130249023438
 30
0.0
 10
779.3469848632812
 20
425.9380187988281
 30
0.0
 10
782.5189819335938
 20
428.43603515625
 30
0.0
 10
785.739990234375
 20
431.3480224609375
 30
0.0
 10
792.375
 20
437.3470153808594
 30
0.0
 10
793.7119750976562
 20
451.3330078125
 30
0.0
 10
790.9530029296875
 20
457.1840209960938
 30
0.0
 10
788.4429931640625
 20
462.5070190429688
 30
0.0
 10
784.4240112304688
 20
463.791015625
 30
0.0
 10
779.6510009765625
 20
460.4600219726562
 30
0.0
 10
775.6400146484375
 20
457.6600341796875
 30
0.0
 10
772.6329956054688
 20
453.905029296875
 30
0.0
 10
770.6259765625
 20
449.5080261230469
 30
0.0
 10
766.0479736328125
 20
439.4760131835938
 30
0.0
 10
768.3070068359375
 20
429.5470275878906
 30
0.0
 10
771.5570068359375
 20
419.7140197753906
 30
0.0
 10
771.5570068359375
 20
419.7140197753906
 30
0.0
 10
771.7559814453125
 20
419.2560119628906
 30
0.0
 10
771.7559814453125
 20
419.2560119628906
 30
0.0
  0
HATCH
  5
53
330
1F
100
AcDbEntity
  8
Layer 1
 62
     7
420
 16777215
100
AcDbHatch
 10
0.0
 20
0.0
 30
0.0
210
0.0
220
0.0
230
1.0
  2
SOLID
 70
     1
 71
     0
 91
       18
 92
        1
 93
        1
 72
     4
 94
        3
 73
     0
 74
     1
 95
       77
 96
       73
 40
0.0
 40
0.0
 40
0.0
 40
0.0
 40
1.0
 40
1.0
 40
1.0
 40
2.0
 40
2.0
 40
2.0
 40
3.0
 40
3.0
 40
3.0
 40
4.0
 40
4.0
 40
4.0
 40
5.0
 40
5.0
 40
5.0
 40
6.0
 40
6.0
 40
6.0
 40
7.0
 40
7.0
 40
7.0
 40
8.0
 40
8.0
 40
8.0
 40
9.0
 40
9.0
 40
9.0
 40
10.0
 40
10.0
 40
10.0
 40
11.0
 40
11.0
 40
11.0
 40
12.0
 40
12.0
 40
12.0
 40
13.0
 40
13.0
 40
13.0
 40
14.0
 40
14.0
 40
14.0
 40
15.0
 40
15.0
 40
15.0
 40
16.0
 40
16.0
 40
16.0
 40
17.0
 40
17.0
 40
17.0
 40
18.0
 40
18.0
 40
18.0
 40
19.0
 40
19.0
 40
19.0
 40
20.0
 40
20.0
 40
20.0
 40
21.0
 40
21.0
 40
21.0
 40
22.0
 40
22.0
 40
22.0
 40
23.0
 40
23.0
 40
23.0
 40
24.0
 40
24.0
 40
24.0
 40
24.0
 10
755.8170166015625
 20
389.3059997558594
 10
750.8619995117188
 20
383.5039978027344
 10
750.4200439453125
 20
383.3680114746094
 10
743.6719970703125
 20
387.2789916992188
 10
742.0759887695312
 20
388.2039794921875
 10
740.4920043945312
 20
389.1510009765625
 10
738.8789672851562
 20
390.0480041503906
 10
733.9779663085938
 20
392.7690124511719
 10
733.9729614257812
 20
392.7610168457031
 10
727.3629760742188
 20
393.4660034179688
 10
727.3880004882812
 20
393.6690063476562
 10
727.3369750976562
 20
393.9720153808594
 10
727.4509887695312
 20
394.0610046386719
 10
732.3219604492188
 20
397.8630065917969
 10
732.4439697265625
 20
403.2890014648438
 10
732.5039672851562
 20
408.739013671875
 10
732.6419677734375
 20
421.4250183105469
 10
728.8189697265625
 20
433.072021484375
 10
723.4519653320312
 20
444.3930053710938
 10
719.0849609375
 20
453.6060180664062
 10
714.6969604492188
 20
462.8580017089844
 10
712.9599609375
 20
473.0469970703125
 10
710.6939697265625
 20
486.3380126953125
 10
713.9319458007812
 20
498.0440063476562
 10
723.31298828125
 20
507.8460083007812
 10
726.9669799804688
 20
511.6629943847656
 10
730.41796875
 20
515.739013671875
 10
736.0800170898438
 20
516.9450073242188
 10
745.0140380859375
 20
518.8489990234375
 10
750.7490234375
 20
514.6080017089844
 10
751.3880004882812
 20
505.4600219726562
 10
751.8109741210938
 20
499.4040222167969
 10
750.6950073242188
 20
493.5980224609375
 10
749.302001953125
 20
487.7540283203125
 10
748.1580200195312
 20
482.9620361328125
 10
744.6420288085938
 20
480.4850158691406
 10
740.52001953125
 20
477.447021484375
 10
741.947998046875
 20
482.3760070800781
 10
743.3829956054688
 20
486.6540222167969
 10
743.9730224609375
 20
491.1390075683594
 10
744.259033203125
 20
493.3090209960938
 10
744.4330444335938
 20
495.4700012207031
 10
744.3090209960938
 20
497.6369934082031
 10
743.7830200195312
 20
506.9010009765625
 10
735.4100341796875
 20
512.1390075683594
 10
726.843994140625
 20
508.6229858398438
 10
725.2879638671875
 20
507.9839782714844
 10
724.6079711914062
 20
506.6510009765625
 10
723.9660034179688
 20
505.2589721679688
 10
718.9180297851562
 20
494.3259582519531
 10
719.8300170898438
 20
483.3649597167969
 10
723.614013671875
 20
472.303955078125
 10
727.3070068359375
 20
461.511962890625
 10
732.427001953125
 20
451.3049621582031
 10
736.3309936523438
 20
440.5969543457031
 10
740.2160034179688
 20
429.93994140625
 10
741.010986328125
 20
419.0309448242188
 10
739.8099975585938
 20
407.8639526367188
 10
739.614990234375
 20
406.0559387207031
 10
738.5440063476562
 20
404.9779663085938
 10
737.2550048828125
 20
403.9009399414062
 10
736.1400146484375
 20
402.9689331054688
 10
734.5170288085938
 20
402.6509399414062
 10
733.3800048828125
 20
400.6519470214844
 10
740.39501953125
 20
402.5379333496094
 10
745.2509765625
 20
398.7469482421875
 10
750.4000244140625
 20
395.8779602050781
 10
751.9170532226562
 20
395.032958984375
 10
753.3450317382812
 20
393.7949523925781
 10
754.9700317382812
 20
393.4269714355469
 10
758.739990234375
 20
392.5750122070312
 10
757.4959716796875
 20
391.27099609375
 10
755.8170166015625
 20
389.3059997558594
 97
        0
 97
        0
 92
        1
 93
        1
 72
     4
 94
        3
 73
     0
 74
     1
 95
       38
 96
       34
 40
0.0
 40
0.0
 40
0.0
 40
0.0
 40
1.0
 40
1.0
 40
1.0
 40
2.0
 40
2.0
 40
2.0
 40
3.0
 40
3.0
 40
3.0
 40
4.0
 40
4.0
 40
4.0
 40
5.0
 40
5.0
 40
5.0
 40
6.0
 40
6.0
 40
6.0
 40
7.0
 40
7.0
 40
7.0
 40
8.0
 40
8.0
 40
8.0
 40
9.0
 40
9.0
 40
9.0
 40
10.0
 40
10.0
 40
10.0
 40
11.0
 40
11.0
 40
11.0
 40
11.0
 10
229.1699981689453
 20
513.343994140625
 10
233.3349914550781
 20
512.6090087890625
 10
236.7319946289062
 20
510.156005859375
 10
239.8789978027344
 20
507.4639892578125
 10
244.8199920654297
 20
503.2369995117188
 10
249.1389923095703
 20
498.3009948730469
 10
254.5709991455078
 20
494.625
 10
260.1399841308594
 20
490.8569946289062
 10
266.06298828125
 20
488.6220092773438
 10
272.9389953613281
 20
489.9159851074219
 10
277.5409851074219
 20
490.781982421875
 10
282.81298828125
 20
493.9779968261719
 10
284.4750061035156
 20
497.4879760742188
 10
276.8810119628906
 20
492.0489807128906
 10
269.364013671875
 20
492.0609741210938
 10
261.7680053710938
 20
496.0959777832031
 10
258.4020080566406
 20
497.8839721679688
 10
255.4580078125
 20
500.2959899902344
 10
252.6399993896484
 20
502.8679809570312
 10
248.3199920654297
 20
506.81298828125
 10
244.3529968261719
 20
511.1689758300781
 10
239.3110046386719
 20
514.2839965820312
 10
233.8160095214844
 20
517.6799926757812
 10
228.1340026855469
 20
518.6090087890625
 10
222.4120025634766
 20
515.1439819335938
 10
215.3500061035156
 20
510.8669738769531
 10
210.5230102539062
 20
504.5909729003906
 10
206.6630096435547
 20
496.3139953613281
 10
209.9280090332031
 20
498.3679809570312
 10
209.9280090332031
 20
498.3679809570312
 10
211.1000061035156
 20
501.1019897460938
 10
214.9969940185547
 20
510.197998046875
 10
221.4880065917969
 20
514.7000122070312
 10
229.1699981689453
 20
513.343994140625
 97
        0
 97
        0
 92
        1
 93
        1
 72
     4
 94
        3
 73
     0
 74
     1
 95
      188
 96
      184
 40
0.0
 40
0.0
 40
0.0
 40
0.0
 40
1.0
 40
1.0
 40
1.0
 40
2.0
 40
2.0
 40
2.0
 40
3.0
 40
3.0
 40
3.0
 40
4.0
 40
4.0
 40
4.0
 40
5.0
 40
5.0
 40
5.0
 40
6.0
 40
6.0
 40
6.0
 40
7.0
 40
7.0
 40
7.0
 40
8.0
 40
8.0
 40
8.0
 40
9.0
 40
9.0
 40
9.0
 40
10.0
 40
10.0
 40
10.0
 40
11.0
 40
11.0
 40
11.0
 40
12.0
 40
12.0
 40
12.0
 40
13.0
 40
13.0
 40
13.0
 40
14.0
 40
14.0
 40
14.0
 40
15.0
 40
15.0
 40
15.0
 40
16.0
 40
16.0
 40
16.0
 40
17.0
 40
17.0
 40
17.0
 40
18.0
 40
18.0
 40
18.0
 40
19.0
 40
19.0
 40
19.0
 40
20.0
 40
20.0
 40
20.0
 40
21.0
 40
21.0
 40
21.0
 40
22.0
 40
22.0
 40
22.0
 40
23.0
 40
23.0
 40
23.0
 40
24.0
 40
24.0
 40
24.0
 40
25.0
 40
25.0
 40
25.0
 40
26.0
 40
26.0
 40
26.0
 40
27.0
 40
27.0
 40
27.0
 40
28.0
 40
28.0
 40
28.0
 40
29.0
 40
29.0
 40
29.0
 40
30.0
 40
30.0
 40
30.0
 40
31.0
 40
31.0
 40
31.0
 40
32.0
 40
32.0
 40
32.0
 40
33.0
 40
33.0
 40
33.0
 40
34.0
 40
34.0
 40
34.0
 40
35.0
 40
35.0
 40
35.0
 40
36.0
 40
36.0
 40
36.0
 40
37.0
 40
37.0
 40
37.0
 40
38.0
 40
38.0
 40
38.0
 40
39.0
 40
39.0
 40
39.0
 40
40.0
 40
40.0
 40
40.0
 40
41.0
 40
41.0
 40
41.0
 40
42.0
 40
42.0
 40
42.0
 40
43.0
 40
43.0
 40
43.0
 40
44.0
 40
44.0
 40
44.0
 40
45.0
 40
45.0
 40
45.0
 40
46.0
 40
46.0
 40
46.0
 40
47.0
 40
47.0
 40
47.0
 40
48.0
 40
48.0
 40
48.0
 40
49.0
 40
49.0
 40
49.0
 40
50.0
 40
50.0
 40
50.0
 40
51.0
 40
51.0
 40
51.0
 40
52.0
 40
52.0
 40
52.0
 40
53.0
 40
53.0
 40
53.0
 40
54.0
 40
54.0
 40
54.0
 40
55.0
 40
55.0
 40
55.0
 40
56.0
 40
56.0
 40
56.0
 40
57.0
 40
57.0
 40
57.0
 40
58.0
 40
58.0
 40
58.0
 40
59.0
 40
59.0
 40
59.0
 40
60.0
 40
60.0
 40
60.0
 40
61.0
 40
61.0
 40
61.0
 40
61.0
 10
365.0889892578125
 20
379.9700012207031
 10
366.0260009765625
 20
378.822998046875
 10
367.3450012207031
 20
378.1730041503906
 10
368.8320007324219
 20
378.385009765625
 10
369.7059936523438
 20
378.5110168457031
 10
370.5169982910156
 20
379.0700073242188
 10
371.5979919433594
 20
379.5400085449219
 10
369.1579895019531
 20
375.35400390625
 10
366.6329956054688
 20
374.52099609375
 10
363.0220031738281
 20
376.6329956054688
 10
361.8930053710938
 20
377.2919921875
 10
361.1340026855469
 20
377.635986328125
 10
359.8880004882812
 20
376.68798828125
 10
352.2650146484375
 20
370.8840026855469
 10
344.1669921875
 20
368.2890014648438
 10
335.7239990234375
 20
368.2039794921875
 10
335.7239990234375
 20
368.2039794921875
 10
306.1950073242188
 20
337.7099609375
 10
306.1950073242188
 20
337.7099609375
 10
306.1950073242188
 20
337.7099609375
 10
304.6430053710938
 20
339.2129516601562
 10
304.6430053710938
 20
339.2129516601562
 10
304.6430053710938
 20
339.2129516601562
 10
332.781005859375
 20
368.2679443359375
 10
332.781005859375
 20
368.2679443359375
 10
328.3040161132812
 20
368.5139465332031
 10
323.7330017089844
 20
369.4319458007812
 10
319.0880126953125
 20
370.9149475097656
 10
315.0590209960938
 20
372.2009582519531
 10
311.0810241699219
 20
373.6519470214844
 10
307.10400390625
 20
375.0909423828125
 10
306.9290161132812
 20
375.1539306640625
 10
306.7529907226562
 20
375.2149353027344
 10
306.5750122070312
 20
375.2679443359375
 10
306.5750122070312
 20
375.2679443359375
 10
294.6100158691406
 20
362.907958984375
 10
294.6100158691406
 20
362.907958984375
 10
294.6100158691406
 20
362.907958984375
 10
293.0580139160156
 20
364.4109497070312
 10
293.0580139160156
 20
364.4109497070312
 10
293.0580139160156
 20
364.4109497070312
 10
304.2050170898438
 20
375.9259643554688
 10
304.2050170898438
 20
375.9259643554688
 10
300.9340209960938
 20
376.6459655761719
 10
297.593017578125
 20
376.68896484375
 10
294.2350158691406
 20
376.5699768066406
 10
291.8180236816406
 20
376.4849853515625
 10
290.1250305175781
 20
375.3599853515625
 10
289.4810180664062
 20
372.9039916992188
 10
288.5560302734375
 20
369.3759765625
 10
285.4430236816406
 20
368.2129821777344
 10
282.760009765625
 20
366.5379943847656
 10
283.4020080566406
 20
371.8930053710938
 10
286.6990051269531
 20
375.5749816894531
 10
290.1950073242188
 20
379.1080017089844
 10
295.3250122070312
 20
384.291015625
 10
301.7000122070312
 20
384.8880004882812
 10
308.3480224609375
 20
383.4700012207031
 10
309.7300109863281
 20
383.1749877929688
 10
310.6670227050781
 20
383.1409912109375
 10
311.3480224609375
 20
383.2900085449219
 10
311.3480224609375
 20
383.2900085449219
 10
314.9910278320312
 20
387.0630187988281
 10
314.9910278320312
 20
387.0630187988281
 10
314.8340148925781
 20
387.20703125
 10
314.5830383300781
 20
387.3710327148438
 10
314.2140197753906
 20
387.5690307617188
 10
309.35302734375
 20
390.18603515625
 10
304.7450256347656
 20
393.3190307617188
 10
299.3490295410156
 20
394.8450317382812
 10
296.5940246582031
 20
395.6240234375
 10
294.02001953125
 20
395.3700256347656
 10
291.8400268554688
 20
393.4210205078125
 10
291.2250366210938
 20
394.0180053710938
 10
291.6270141601562
 20
394.3900146484375
 10
291.8670349121094
 20
394.6780090332031
 10
298.6810302734375
 20
402.8940124511719
 10
299.1670227050781
 20
412.2220153808594
 10
296.7790222167969
 20
422.0960083007812
 10
294.7300109863281
 20
430.5650024414062
 10
291.1770324707031
 20
438.5240173339844
 10
288.5060119628906
 20
446.7799987792969
 10
286.0800170898438
 20
454.2789916992188
 10
285.3610229492188
 20
462.0950012207031
 10
284.4309997558594
 20
469.85400390625
 10
284.0740051269531
 20
472.8380126953125
 10
282.8460083007812
 20
473.2860107421875
 10
280.0950012207031
 20
472.8590087890625
 10
276.9980163574219
 20
472.3789978027344
 10
275.2449951171875
 20
469.8840026855469
 10
272.4939880371094
 20
468.822998046875
 10
275.9709777832031
 20
474.5339965820312
 10
281.3819885253906
 20
478.6440124511719
 10
284.7890014648438
 20
484.4010009765625
 10
288.1920166015625
 20
490.1499938964844
 10
291.364990234375
 20
496.2170104980469
 10
297.7890014648438
 20
500.1400146484375
 10
296.6669921875
 20
497.301025390625
 10
294.7300109863281
 20
495.4200134277344
 10
293.4010009765625
 20
493.1800231933594
 10
291.7350158691406
 20
490.3740234375
 10
290.0350036621094
 20
487.6090087890625
 10
290.0499877929688
 20
484.1530151367188
 10
290.0549926757812
 20
482.6750183105469
 10
290.4519958496094
 20
482.0960083007812
 10
292.0559997558594
 20
481.9570007324219
 10
294.75
 20
481.7229919433594
 10
298.3410034179688
 20
481.4469909667969
 10
299.2279968261719
 20
479.06298828125
 10
299.9759826660156
 20
477.052001953125
 10
297.0690002441406
 20
474.7460021972656
 10
295.2349853515625
 20
473.2469787597656
 10
292.3509826660156
 20
470.8899841308594
 10
292.1899719238281
 20
468.4319763183594
 10
292.8319702148438
 20
464.9979858398438
 10
294.3829650878906
 20
456.7029724121094
 10
297.3259582519531
 20
448.9140014648438
 10
300.4659729003906
 20
441.1640014648438
 10
305.7779846191406
 20
428.0509948730469
 10
306.6609802246094
 20
415.0459899902344
 10
299.6879577636719
 20
402.1830139160156
 10
299.6079711914062
 20
402.0370178222656
 10
299.7019653320312
 20
401.7960205078125
 10
299.7229614257812
 20
401.4760131835938
 10
307.470947265625
 20
402.9010009765625
 10
313.511962890625
 20
398.7420043945312
 10
319.6759643554688
 20
395.1940002441406
 10
320.4609680175781
 20
394.7420043945312
 10
321.2189636230469
 20
394.3519897460938
 10
321.9329528808594
 20
394.2260131835938
 10
321.9329528808594
 20
394.2260131835938
 10
334.2769470214844
 20
406.9720153808594
 10
334.2769470214844
 20
406.9720153808594
 10
335.3239440917969
 20
409.3830261230469
 10
335.5069580078125
 20
412.4330139160156
 10
335.3889465332031
 20
414.5630187988281
 10
334.8969421386719
 20
423.5070190429688
 10
331.626953125
 20
431.6800231933594
 10
327.9369506835938
 20
439.6910095214844
 10
323.1239624023438
 20
450.1430053710938
 10
318.60595703125
 20
460.7160034179688
 10
314.3569641113281
 20
471.4110107421875
 10
308.0599670410156
 20
487.2650146484375
 10
311.9579772949219
 20
500.9520263671875
 10
322.9609680175781
 20
513.2100219726562
 10
325.4329528808594
 20
515.9650268554688
 10
328.011962890625
 20
518.6110229492188
 10
331.157958984375
 20
520.6120300292969
 10
335.8269653320312
 20
523.5810241699219
 10
339.89697265625
 20
523.4970397949219
 10
344.0169677734375
 20
519.8660278320312
 10
351.48095703125
 20
513.2860412597656
 10
353.7339782714844
 20
504.8900146484375
 10
351.428955078125
 20
495.3790283203125
 10
348.8689575195312
 20
484.8080139160156
 10
342.9419555664062
 20
475.9630126953125
 10
335.1069641113281
 20
468.7880249023438
 10
330.1879577636719
 20
464.2830200195312
 10
328.907958984375
 20
460.3520202636719
 10
332.5549621582031
 20
454.864013671875
 10
332.9109497070312
 20
454.3280029296875
 10
333.1509704589844
 20
453.7030029296875
 10
333.3849487304688
 20
453.0970153808594
 10
333.6819458007812
 20
452.3260192871094
 10
333.9799499511719
 20
451.9910278320312
 10
334.2779541015625
 20
451.9200134277344
 10
334.2779541015625
 20
451.9200134277344
 10
362.0669555664062
 20
480.6190185546875
 10
362.0669555664062
 20
480.6190185546875
 10
362.0669555664062
 20
480.6190185546875
 10
363.6189575195312
 20
479.1160278320312
 10
363.6189575195312
 20
479.1160278320312
 10
363.6189575195312
 20
479.1160278320312
 10
355.8199462890625
 20
471.0630187988281
 10
355.8199462890625
 20
471.0630187988281
 10
368.2149353027344
 20
466.8020324707031
 10
372.2409362792969
 20
455.6020202636719
 10
376.1879577636719
 20
444.9500122070312
 10
384.594970703125
 20
422.2610168457031
 10
380.6829528808594
 20
401.2030029296875
 10
365.886962890625
 20
382.1180114746094
 10
365.4010009765625
 20
381.489990234375
 10
364.260986328125
 20
380.9819946289062
 10
365.0889892578125
 20
379.9700012207031
 97
        0
 97
        0
 92
        1
 93
        1
 72
     4
 94
        3
 73
     0
 74
     1
 95
       26
 96
       22
 40
0.0
 40
0.0
 40
0.0
 40
0.0
 40
1.0
 40
1.0
 40
1.0
 40
2.0
 40
2.0
 40
2.0
 40
3.0
 40
3.0
 40
3.0
 40
4.0
 40
4.0
 40
4.0
 40
5.0
 40
5.0
 40
5.0
 40
6.0
 40
6.0
 40
6.0
 40
7.0
 40
7.0
 40
7.0
 40
7.0
 10
330.4280090332031
 20
467.0069885253906
 10
335.4620056152344
 20
471.9140014648438
 10
339.5740051269531
 20
477.5169982910156
 10
341.8829956054688
 20
484.18798828125
 10
345.5579833984375
 20
494.802001953125
 10
343.8989868164062
 20
504.2699890136719
 10
335.2470092773438
 20
512.0409851074219
 10
330.4980163574219
 20
516.3079833984375
 10
327.6020202636719
 20
515.97998046875
 10
324.3269958496094
 20
510.5959777832031
 10
321.2170104980469
 20
505.4809875488281
 10
319.6199951171875
 20
499.9129638671875
 10
319.4649963378906
 20
493.1559753417969
 10
319.4490051269531
 20
493.4969787597656
 10
319.458984375
 20
493.06298828125
 10
319.4909973144531
 20
492.6299743652344
 10
320.1809997558594
 20
483.3399658203125
 10
324.6959838867188
 20
475.2589721679688
 10
327.7640075683594
 20
466.7279663085938
 10
328.5360107421875
 20
464.5790100097656
 10
329.7409973144531
 20
466.3370056152344
 10
330.4280090332031
 20
467.0069885253906
 97
        0
 97
        0
 92
        1
 93
        1
 72
     4
 94
        3
 73
     0
 74
     1
 95
       32
 96
       28
 40
0.0
 40
0.0
 40
0.0
 40
0.0
 40
1.0
 40
1.0
 40
1.0
 40
2.0
 40
2.0
 40
2.0
 40
3.0
 40
3.0
 40
3.0
 40
4.0
 40
4.0
 40
4.0
 40
5.0
 40
5.0
 40
5.0
 40
6.0
 40
6.0
 40
6.0
 40
7.0
 40
7.0
 40
7.0
 40
8.0
 40
8.0
 40
8.0
 40
9.0
 40
9.0
 40
9.0
 40
9.0
 10
341.0360107421875
 20
376.7869873046875
 10
341.0360107421875
 20
376.7869873046875
 10
350.7050170898438
 20
386.7769775390625
 10
350.7050170898438
 20
386.7769775390625
 10
351.1420288085938
 20
387.9469909667969
 10
350.2660217285156
 20
388.7659912109375
 10
347.9220275878906
 20
390.1789855957031
 10
343.822021484375
 20
392.6509704589844
 10
339.3350219726562
 20
394.2559814453125
 10
334.8310241699219
 20
395.7949829101562
 10
330.7480163574219
 20
397.1909790039062
 10
330.7430114746094
 20
397.1619873046875
 10
332.4810180664062
 20
401.1219787597656
 10
332.5160217285156
 20
401.2009887695312
 10
332.3890075683594
 20
401.4689636230469
 10
332.2460327148438
 20
401.7729797363281
 10
332.2460327148438
 20
401.7729797363281
 10
313.6110229492188
 20
382.5259704589844
 10
313.6110229492188
 20
382.5259704589844
 10
314.1200256347656
 20
382.1769714355469
 10
315.0280151367188
 20
381.9749755859375
 10
315.5010375976562
 20
381.8259582519531
 10
322.2010498046875
 20
379.719970703125
 10
328.6650390625
 20
376.8619689941406
 10
335.697021484375
 20
375.8019714355469
 10
337.7950134277344
 20
375.4859924316406
 10
339.5220031738281
 20
375.8399963378906
 10
341.0360107421875
 20
376.7869873046875
 97
        0
 97
        0
 92
        1
 93
        1
 72
     4
 94
        3
 73
     0
 74
     1
 95
       65
 96
       61
 40
0.0
 40
0.0
 40
0.0
 40
0.0
 40
1.0
 40
1.0
 40
1.0
 40
2.0
 40
2.0
 40
2.0
 40
3.0
 40
3.0
 40
3.0
 40
4.0
 40
4.0
 40
4.0
 40
5.0
 40
5.0
 40
5.0
 40
6.0
 40
6.0
 40
6.0
 40
7.0
 40
7.0
 40
7.0
 40
8.0
 40
8.0
 40
8.0
 40
9.0
 40
9.0
 40
9.0
 40
10.0
 40
10.0
 40
10.0
 40
11.0
 40
11.0
 40
11.0
 40
12.0
 40
12.0
 40
12.0
 40
13.0
 40
13.0
 40
13.0
 40
14.0
 40
14.0
 40
14.0
 40
15.0
 40
15.0
 40
15.0
 40
16.0
 40
16.0
 40
16.0
 40
17.0
 40
17.0
 40
17.0
 40
18.0
 40
18.0
 40
18.0
 40
19.0
 40
19.0
 40
19.0
 40
20.0
 40
20.0
 40
20.0
 40
20.0
 10
373.1449890136719
 20
421.1940002441406
 10
372.2460021972656
 20
434.0769958496094
 10
366.7039794921875
 20
445.6480102539062
 10
359.5199890136719
 20
456.3170166015625
 10
357.5090026855469
 20
459.302001953125
 10
354.9010009765625
 20
461.7850036621094
 10
351.3869934082031
 20
463.114013671875
 10
350.3679809570312
 20
463.5
 10
349.4349975585938
 20
463.6860046386719
 10
348.5749816894531
 20
463.5870056152344
 10
348.5749816894531
 20
463.5870056152344
 10
336.1059875488281
 20
450.7080078125
 10
336.1059875488281
 20
450.7080078125
 10
335.43798828125
 20
449.0220031738281
 10
336.1819763183594
 20
447.5060119628906
 10
338.0399780273438
 20
443.864013671875
 10
344.2759704589844
 20
431.6390075683594
 10
346.3909912109375
 20
419.2590026855469
 10
339.7549743652344
 20
406.468017578125
 10
338.9449768066406
 20
404.906005859375
 10
340.1229858398438
 20
404.9040222167969
 10
341.0409851074219
 20
404.6390075683594
 10
345.7559814453125
 20
403.281005859375
 10
350.2219848632812
 20
401.3619995117188
 10
354.4659729003906
 20
398.8810119628906
 10
356.1489868164062
 20
397.8970031738281
 10
357.6019592285156
 20
395.6240234375
 10
359.3509826660156
 20
395.7070007324219
 10
359.3509826660156
 20
395.7070007324219
 10
368.2509765625
 20
404.9020080566406
 10
368.2509765625
 20
404.9020080566406
 10
368.2509765625
 20
404.9020080566406
 10
369.802978515625
 20
403.3990173339844
 10
369.802978515625
 20
403.3990173339844
 10
369.802978515625
 20
403.3990173339844
 10
342.7639770507812
 20
375.4730224609375
 10
342.7639770507812
 20
375.4730224609375
 10
348.0659790039062
 20
375.4660339355469
 10
352.3409729003906
 20
376.2410278320312
 10
356.4289855957031
 20
377.9040222167969
 10
357.1539916992188
 20
378.1990356445312
 10
358.344970703125
 20
378.2400207519531
 10
358.4819946289062
 20
379.2250366210938
 10
358.6279907226562
 20
380.2860412597656
 10
357.4970092773438
 20
380.5200500488281
 10
356.7760009765625
 20
380.925048828125
 10
355.8169860839844
 20
381.4650573730469
 10
354.89599609375
 20
381.4550476074219
 10
354.2430114746094
 20
380.3990478515625
 10
353.7740173339844
 20
379.6390380859375
 10
353.2250061035156
 20
379.0060424804688
 10
351.9049987792969
 20
378.8870544433594
 10
353.9859924316406
 20
383.8060607910156
 10
357.0249938964844
 20
385.4390563964844
 10
360.4110107421875
 20
383.1660461425781
 10
362.6890258789062
 20
381.6360473632812
 10
363.6679992675781
 20
382.4580383300781
 10
364.7260131835938
 20
384.2920532226562
 10
371.3240051269531
 20
395.72900390625
 10
374.0469970703125
 20
408.2699890136719
 10
373.1449890136719
 20
421.1940002441406
 97
        0
 97
        0
 92
        1
 93
        1
 72
     4
 94
        3
 73
     0
 74
     1
 95
       62
 96
       58
 40
0.0
 40
0.0
 40
0.0
 40
0.0
 40
1.0
 40
1.0
 40
1.0
 40
2.0
 40
2.0
 40
2.0
 40
3.0
 40
3.0
 40
3.0
 40
4.0
 40
4.0
 40
4.0
 40
5.0
 40
5.0
 40
5.0
 40
6.0
 40
6.0
 40
6.0
 40
7.0
 40
7.0
 40
7.0
 40
8.0
 40
8.0
 40
8.0
 40
9.0
 40
9.0
 40
9.0
 40
10.0
 40
10.0
 40
10.0
 40
11.0
 40
11.0
 40
11.0
 40
12.0
 40
12.0
 40
12.0
 40
13.0
 40
13.0
 40
13.0
 40
14.0
 40
14.0
 40
14.0
 40
15.0
 40
15.0
 40
15.0
 40
16.0
 40
16.0
 40
16.0
 40
17.0
 40
17.0
 40
17.0
 40
18.0
 40
18.0
 40
18.0
 40
19.0
 40
19.0
 40
19.0
 40
19.0
 10
279.9110107421875
 20
429.0480041503906
 10
279.9110107421875
 20
429.0480041503906
 10
281.4630126953125
 20
427.5450134277344
 10
281.4630126953125
 20
427.5450134277344
 10
281.4630126953125
 20
427.5450134277344
 10
251.9600067138672
 20
397.0799865722656
 10
251.9600067138672
 20
397.0799865722656
 10
251.6110076904297
 20
396.4769897460938
 10
251.2800140380859
 20
395.8619995117188
 10
250.9620056152344
 20
395.3289794921875
 10
248.5890045166016
 20
391.3559875488281
 10
245.0050048828125
 20
388.6919860839844
 10
241.3990020751953
 20
385.8379821777344
 10
241.3990020751953
 20
385.8379821777344
 10
240.7200012207031
 20
385.468994140625
 10
240.7200012207031
 20
385.468994140625
 10
240.7200012207031
 20
385.468994140625
 10
217.85400390625
 20
361.8559875488281
 10
217.85400390625
 20
361.8559875488281
 10
217.85400390625
 20
361.8559875488281
 10
216.302001953125
 20
363.3589782714844
 10
216.302001953125
 20
363.3589782714844
 10
216.302001953125
 20
363.3589782714844
 10
239.0960083007812
 20
386.8779907226562
 10
239.0960083007812
 20
386.8779907226562
 10
238.8480072021484
 20
387.1689758300781
 10
238.3450012207031
 20
387.4509887695312
 10
237.5150146484375
 20
387.7039794921875
 10
224.9070129394531
 20
391.5499877929688
 10
217.7030181884766
 20
400.8739929199219
 10
213.8010101318359
 20
412.656982421875
 10
207.4260101318359
 20
431.9089965820312
 10
209.3660125732422
 20
450.135986328125
 10
222.7000122070312
 20
466.2809753417969
 10
225.2060089111328
 20
469.3149719238281
 10
228.2830200195312
 20
471.7359619140625
 10
231.3570098876953
 20
474.1639709472656
 10
232.9070129394531
 20
475.3879699707031
 10
234.1720123291016
 20
475.2069702148438
 10
235.7500152587891
 20
474.177978515625
 10
245.1900177001953
 20
468.0209655761719
 10
248.1300201416016
 20
456.6669921875
 10
242.8030090332031
 20
446.7489624023438
 10
238.2260131835938
 20
438.2289733886719
 10
231.427001953125
 20
431.719970703125
 10
223.8320007324219
 20
425.9939575195312
 10
221.7770080566406
 20
424.4449462890625
 10
221.5540008544922
 20
423.1559448242188
 10
222.4969940185547
 20
420.844970703125
 10
227.0659942626953
 20
409.64697265625
 10
233.7159881591797
 20
400.5689697265625
 10
245.7460021972656
 20
396.5009765625
 10
246.6370086669922
 20
396.1999816894531
 10
247.3840026855469
 20
396.0329895019531
 10
248.0720062255859
 20
396.1659851074219
 10
248.0720062255859
 20
396.1659851074219
 10
279.9110107421875
 20
429.0480041503906
 10
279.9110107421875
 20
429.0480041503906
 97
        0
 97
        0
 92
        1
 93
        1
 72
     4
 94
        3
 73
     0
 74
     1
 95
       23
 96
       19
 40
0.0
 40
0.0
 40
0.0
 40
0.0
 40
1.0
 40
1.0
 40
1.0
 40
2.0
 40
2.0
 40
2.0
 40
3.0
 40
3.0
 40
3.0
 40
4.0
 40
4.0
 40
4.0
 40
5.0
 40
5.0
 40
5.0
 40
6.0
 40
6.0
 40
6.0
 40
6.0
 10
222.5839996337891
 20
428.510009765625
 10
225.4559936523438
 20
430.6670227050781
 10
228.3479919433594
 20
432.8059997558594
 10
230.8509979248047
 20
435.385009765625
 10
239.5919952392578
 20
444.3930053710938
 10
238.9579925537109
 20
455.6840209960938
 10
229.3069915771484
 20
463.8340148925781
 10
225.9549865722656
 20
466.6640014648438
 10
225.4269866943359
 20
466.6060180664062
 10
223.4309844970703
 20
462.6940002441406
 10
219.8739776611328
 20
455.7269897460938
 10
219.2919921875
 20
448.1520080566406
 10
219.0609893798828
 20
440.5249938964844
 10
218.8489837646484
 20
436.7909851074219
 10
219.5519866943359
 20
433.1539916992188
 10
220.0639953613281
 20
429.4939880371094
 10
220.343994140625
 20
427.4949951171875
 10
221.0899963378906
 20
427.3869934082031
 10
222.5839996337891
 20
428.510009765625
 97
        0
 97
        0
 92
        1
 93
        1
 72
     4
 94
        3
 73
     0
 74
     1
 95
      173
 96
      169
 40
0.0
 40
0.0
 40
0.0
 40
0.0
 40
1.0
 40
1.0
 40
1.0
 40
2.0
 40
2.0
 40
2.0
 40
3.0
 40
3.0
 40
3.0
 40
4.0
 40
4.0
 40
4.0
 40
5.0
 40
5.0
 40
5.0
 40
6.0
 40
6.0
 40
6.0
 40
7.0
 40
7.0
 40
7.0
 40
8.0
 40
8.0
 40
8.0
 40
9.0
 40
9.0
 40
9.0
 40
10.0
 40
10.0
 40
10.0
 40
11.0
 40
11.0
 40
11.0
 40
12.0
 40
12.0
 40
12.0
 40
13.0
 40
13.0
 40
13.0
 40
14.0
 40
14.0
 40
14.0
 40
15.0
 40
15.0
 40
15.0
 40
16.0
 40
16.0
 40
16.0
 40
17.0
 40
17.0
 40
17.0
 40
18.0
 40
18.0
 40
18.0
 40
19.0
 40
19.0
 40
19.0
 40
20.0
 40
20.0
 40
20.0
 40
21.0
 40
21.0
 40
21.0
 40
22.0
 40
22.0
 40
22.0
 40
23.0
 40
23.0
 40
23.0
 40
24.0
 40
24.0
 40
24.0
 40
25.0
 40
25.0
 40
25.0
 40
26.0
 40
26.0
 40
26.0
 40
27.0
 40
27.0
 40
27.0
 40
28.0
 40
28.0
 40
28.0
 40
29.0
 40
29.0
 40
29.0
 40
30.0
 40
30.0
 40
30.0
 40
31.0
 40
31.0
 40
31.0
 40
32.0
 40
32.0
 40
32.0
 40
33.0
 40
33.0
 40
33.0
 40
34.0
 40
34.0
 40
34.0
 40
35.0
 40
35.0
 40
35.0
 40
36.0
 40
36.0
 40
36.0
 40
37.0
 40
37.0
 40
37.0
 40
38.0
 40
38.0
 40
38.0
 40
39.0
 40
39.0
 40
39.0
 40
40.0
 40
40.0
 40
40.0
 40
41.0
 40
41.0
 40
41.0
 40
42.0
 40
42.0
 40
42.0
 40
43.0
 40
43.0
 40
43.0
 40
44.0
 40
44.0
 40
44.0
 40
45.0
 40
45.0
 40
45.0
 40
46.0
 40
46.0
 40
46.0
 40
47.0
 40
47.0
 40
47.0
 40
48.0
 40
48.0
 40
48.0
 40
49.0
 40
49.0
 40
49.0
 40
50.0
 40
50.0
 40
50.0
 40
51.0
 40
51.0
 40
51.0
 40
52.0
 40
52.0
 40
52.0
 40
53.0
 40
53.0
 40
53.0
 40
54.0
 40
54.0
 40
54.0
 40
55.0
 40
55.0
 40
55.0
 40
56.0
 40
56.0
 40
56.0
 40
56.0
 10
191.9640045166016
 20
474.6480102539062
 10
198.1620025634766
 20
459.8690185546875
 10
200.5579986572266
 20
444.5830078125
 10
196.4759979248047
 20
428.7890014648438
 10
193.9909973144531
 20
419.1730041503906
 10
189.0970001220703
 20
410.7309875488281
 10
182.8260040283203
 20
403.0870056152344
 10
179.7929992675781
 20
399.3890075683594
 10
176.7990112304688
 20
395.6329956054688
 10
173.4739990234375
 20
392.2070007324219
 10
168.8390045166016
 20
387.4309997558594
 10
166.1470031738281
 20
387.2170104980469
 10
160.5480041503906
 20
390.7839965820312
 10
157.3440093994141
 20
392.8249816894531
 10
154.3370056152344
 20
395.1749877929688
 10
151.1549987792969
 20
397.2529907226562
 10
148.9369964599609
 20
398.7009887695312
 10
146.7980041503906
 20
399.5419921875
 10
144.8789978027344
 20
396.447998046875
 10
143.6309967041016
 20
394.4360046386719
 10
141.3349914550781
 20
393.3630065917969
 10
139.0009918212891
 20
391.7369995117188
 10
139.0899963378906
 20
396.1709899902344
 10
140.8579864501953
 20
399.3930053710938
 10
143.9279937744141
 20
401.4880065917969
 10
146.8919982910156
 20
403.5090026855469
 10
147.9649963378906
 20
405.6750183105469
 10
146.7169952392578
 20
409.0180053710938
 10
146.5529937744141
 20
409.4570007324219
 10
146.4889984130859
 20
410.3450012207031
 10
146.4249877929688
 20
411.114990234375
 10
146.4249877929688
 20
411.114990234375
 10
99.72099304199219
 20
362.885986328125
 10
99.72099304199219
 20
362.885986328125
 10
99.72099304199219
 20
362.885986328125
 10
98.16899108886719
 20
364.3889770507812
 10
98.16899108886719
 20
364.3889770507812
 10
98.16899108886719
 20
364.3889770507812
 10
122.3049926757812
 20
389.3149719238281
 10
122.3049926757812
 20
389.3149719238281
 10
121.9339904785156
 20
389.5869750976562
 10
121.2599945068359
 20
389.9209594726562
 10
120.218994140625
 20
390.4579772949219
 10
115.7909927368164
 20
392.7429809570312
 10
111.0089950561523
 20
394.260986328125
 10
106.6929931640625
 20
396.8279724121094
 10
104.5679931640625
 20
398.0909729003906
 10
102.4539947509766
 20
397.9989624023438
 10
100.8159942626953
 20
395.5299682617188
 10
99.87599182128906
 20
394.1139831542969
 10
98.44599151611328
 20
393.001953125
 10
97.1449966430664
 20
391.8579711914062
 10
96.63199615478516
 20
391.406982421875
 10
95.96399688720703
 20
390.5919799804688
 10
95.17799377441406
 20
391.1739807128906
 10
94.38599395751953
 20
391.760986328125
 10
94.51099395751953
 20
392.7889709472656
 10
94.82999420166016
 20
393.583984375
 10
95.99699401855469
 20
396.4889831542969
 10
97.7909927368164
 20
399.0989990234375
 10
100.629997253418
 20
400.3819885253906
 10
103.7319946289062
 20
401.7829895019531
 10
103.7760009765625
 20
403.9109802246094
 10
103.3489990234375
 20
406.68798828125
 10
99.19999694824219
 20
433.6429748535156
 10
95.08899688720703
 20
460.60400390625
 10
91.0459976196289
 20
487.5759887695312
 10
90.697998046875
 20
489.8939819335938
 10
89.9209976196289
 20
491.1099853515625
 10
87.46399688720703
 20
491.8079833984375
 10
82.88399505615234
 20
493.1079711914062
 10
78.33799743652344
 20
494.708984375
 10
75.68799591064453
 20
499.2849731445312
 10
75.47699737548828
 20
499.6499633789062
 10
75.27599334716797
 20
499.8669738769531
 10
75.08499908447266
 20
499.9759826660156
 10
75.08499908447266
 20
499.9759826660156
 10
61.18499755859375
 20
485.6209716796875
 10
61.18499755859375
 20
485.6209716796875
 10
61.18499755859375
 20
485.6209716796875
 10
59.63299560546875
 20
487.1239624023438
 10
59.63299560546875
 20
487.1239624023438
 10
59.63299560546875
 20
487.1239624023438
 10
108.2159957885742
 20
537.2959594726562
 10
108.2159957885742
 20
537.2959594726562
 10
108.2159957885742
 20
537.2959594726562
 10
109.7679977416992
 20
535.79296875
 10
109.7679977416992
 20
535.79296875
 10
109.7679977416992
 20
535.79296875
 10
82.04199981689453
 20
507.1689758300781
 10
82.04199981689453
 20
507.1689758300781
 10
81.95899963378906
 20
506.3479614257812
 10
82.3290023803711
 20
505.5369873046875
 10
83.03399658203125
 20
504.6239624023438
 10
85.78899383544922
 20
501.0589599609375
 10
89.75299835205078
 20
499.5249633789062
 10
93.86099243164062
 20
498.4379577636719
 10
96.3179931640625
 20
497.7879638671875
 10
97.38198852539062
 20
496.7219543457031
 10
97.60599517822266
 20
494.0699462890625
 10
97.9679946899414
 20
489.8099365234375
 10
98.8499984741211
 20
485.5939331054688
 10
99.65999603271484
 20
480.5569458007812
 10
99.65999603271484
 20
480.5569458007812
 10
151.0809936523438
 20
533.3599548339844
 10
151.0809936523438
 20
533.3599548339844
 10
151.0809936523438
 20
533.3599548339844
 10
152.6329956054688
 20
531.8569641113281
 10
152.6329956054688
 20
531.8569641113281
 10
152.6329956054688
 20
531.8569641113281
 10
126.375
 20
504.89697265625
 10
126.375
 20
504.89697265625
 10
126.4029998779297
 20
504.1979675292969
 10
126.8209991455078
 20
503.4839782714844
 10
127.6490020751953
 20
502.6839599609375
 10
129.8300018310547
 20
500.5769653320312
 10
131.6540069580078
 20
498.1019592285156
 10
133.8059997558594
 20
495.9619750976562
 10
135.0989990234375
 20
494.6759643554688
 10
136.6340026855469
 20
492.9479675292969
 10
138.2180023193359
 20
492.761962890625
 10
143.4109954833984
 20
492.1529541015625
 10
143.3690032958984
 20
488.5079650878906
 10
143.8919982910156
 20
484.7329711914062
 10
143.8919982910156
 20
484.7329711914062
 10
154.9779968261719
 20
407.6479797363281
 10
154.9779968261719
 20
407.6479797363281
 10
155.1170043945312
 20
406.7259826660156
 10
155.1419982910156
 20
405.8749694824219
 10
156.2469940185547
 20
405.2429809570312
 10
160.9559936523438
 20
402.5469665527344
 10
165.6269989013672
 20
399.7699890136719
 10
170.1869964599609
 20
396.8289794921875
 10
172.5809936523438
 20
395.2859802246094
 10
174.093994140625
 20
395.760986328125
 10
175.9400024414062
 20
397.8059692382812
 10
187.3549957275391
 20
410.4509582519531
 10
192.2050018310547
 20
425.4409790039062
 10
191.2259979248047
 20
442.1849670410156
 10
190.2539978027344
 20
458.8079528808594
 10
183.8679962158203
 20
473.5519714355469
 10
173.8320007324219
 20
486.7539672851562
 10
171.8399963378906
 20
489.3739624023438
 10
169.3209991455078
 20
491.4299621582031
 10
166.7700042724609
 20
493.4819641113281
 10
165.6510009765625
 20
494.3819580078125
 10
164.6829986572266
 20
494.8479614257812
 10
163.7550048828125
 20
494.7999572753906
 10
163.7550048828125
 20
494.7999572753906
 10
148.5770111083984
 20
479.1239624023438
 10
148.5770111083984
 20
479.1239624023438
 10
148.5770111083984
 20
479.1239624023438
 10
147.0250091552734
 20
480.626953125
 10
147.0250091552734
 20
480.626953125
 10
147.0250091552734
 20
480.626953125
 10
195.6080017089844
 20
530.7989501953125
 10
195.6080017089844
 20
530.7989501953125
 10
195.6080017089844
 20
530.7989501953125
 10
197.1600036621094
 20
529.2959594726562
 10
197.1600036621094
 20
529.2959594726562
 10
197.1600036621094
 20
529.2959594726562
 10
170.9190063476562
 20
502.1949462890625
 10
170.9190063476562
 20
502.1949462890625
 10
171.0230102539062
 20
502.1149597167969
 10
171.1450042724609
 20
502.033935546875
 10
171.2880096435547
 20
501.949951171875
 10
181.9299926757812
 20
495.6919860839844
 10
187.427001953125
 20
485.4660034179688
 10
191.9640045166016
 20
474.6480102539062
 97
        0
 97
        0
 92
        1
 93
        1
 72
     4
 94
        3
 73
     0
 74
     1
 95
       44
 96
       40
 40
0.0
 40
0.0
 40
0.0
 40
0.0
 40
1.0
 40
1.0
 40
1.0
 40
2.0
 40
2.0
 40
2.0
 40
3.0
 40
3.0
 40
3.0
 40
4.0
 40
4.0
 40
4.0
 40
5.0
 40
5.0
 40
5.0
 40
6.0
 40
6.0
 40
6.0
 40
7.0
 40
7.0
 40
7.0
 40
8.0
 40
8.0
 40
8.0
 40
9.0
 40
9.0
 40
9.0
 40
10.0
 40
10.0
 40
10.0
 40
11.0
 40
11.0
 40
11.0
 40
12.0
 40
12.0
 40
12.0
 40
13.0
 40
13.0
 40
13.0
 40
13.0
 10
145.7760009765625
 20
416.0480041503906
 10
144.5989990234375
 20
423.4460144042969
 10
143.6080017089844
 20
430.8739929199219
 10
142.5489959716797
 20
438.291015625
 10
140.4619903564453
 20
452.9100036621094
 10
138.3779907226562
 20
467.530029296875
 10
136.2819976806641
 20
482.1480102539062
 10
136.1279907226562
 20
483.2190246582031
 10
136.0229949951172
 20
484.3320007324219
 10
134.6889953613281
 20
484.7200012207031
 10
128.6139984130859
 20
486.4909973144531
 10
124.6489944458008
 20
491.0029907226562
 10
120.8529968261719
 20
495.6300048828125
 10
119.9959945678711
 20
496.6740112304688
 10
119.379997253418
 20
497.1580200195312
 10
118.650993347168
 20
496.9599914550781
 10
118.650993347168
 20
496.9599914550781
 10
100.0409927368164
 20
477.85498046875
 10
100.0409927368164
 20
477.85498046875
 10
100.0179901123047
 20
477.7319946289062
 10
100.0229949951172
 20
477.6079711914062
 10
100.057991027832
 20
477.4829711914062
 10
100.057991027832
 20
477.4829711914062
 10
110.9599914550781
 20
405.77197265625
 10
110.9599914550781
 20
405.77197265625
 10
111.2009887695312
 20
404.1439819335938
 10
111.9129943847656
 20
403.4239807128906
 10
113.3759918212891
 20
402.81396484375
 10
118.2679901123047
 20
400.7699584960938
 10
123.5169906616211
 20
399.4939575195312
 10
127.9609985351562
 20
396.4889526367188
 10
128.2680053710938
 20
396.2809448242188
 10
128.5449981689453
 20
396.1239624023438
 10
128.7989959716797
 20
396.0159606933594
 10
128.7989959716797
 20
396.0159606933594
 10
145.3359985351562
 20
413.0909729003906
 10
145.3359985351562
 20
413.0909729003906
 10
145.8070068359375
 20
413.93798828125
 10
145.9660034179688
 20
414.8569946289062
 10
145.7760009765625
 20
416.0480041503906
 97
        0
 97
        0
 92
        1
 93
        1
 72
     4
 94
        3
 73
     0
 74
     1
 95
      167
 96
      163
 40
0.0
 40
0.0
 40
0.0
 40
0.0
 40
1.0
 40
1.0
 40
1.0
 40
2.0
 40
2.0
 40
2.0
 40
3.0
 40
3.0
 40
3.0
 40
4.0
 40
4.0
 40
4.0
 40
5.0
 40
5.0
 40
5.0
 40
6.0
 40
6.0
 40
6.0
 40
7.0
 40
7.0
 40
7.0
 40
8.0
 40
8.0
 40
8.0
 40
9.0
 40
9.0
 40
9.0
 40
10.0
 40
10.0
 40
10.0
 40
11.0
 40
11.0
 40
11.0
 40
12.0
 40
12.0
 40
12.0
 40
13.0
 40
13.0
 40
13.0
 40
14.0
 40
14.0
 40
14.0
 40
15.0
 40
15.0
 40
15.0
 40
16.0
 40
16.0
 40
16.0
 40
17.0
 40
17.0
 40
17.0
 40
18.0
 40
18.0
 40
18.0
 40
19.0
 40
19.0
 40
19.0
 40
20.0
 40
20.0
 40
20.0
 40
21.0
 40
21.0
 40
21.0
 40
22.0
 40
22.0
 40
22.0
 40
23.0
 40
23.0
 40
23.0
 40
24.0
 40
24.0
 40
24.0
 40
25.0
 40
25.0
 40
25.0
 40
26.0
 40
26.0
 40
26.0
 40
27.0
 40
27.0
 40
27.0
 40
28.0
 40
28.0
 40
28.0
 40
29.0
 40
29.0
 40
29.0
 40
30.0
 40
30.0
 40
30.0
 40
31.0
 40
31.0
 40
31.0
 40
32.0
 40
32.0
 40
32.0
 40
33.0
 40
33.0
 40
33.0
 40
34.0
 40
34.0
 40
34.0
 40
35.0
 40
35.0
 40
35.0
 40
36.0
 40
36.0
 40
36.0
 40
37.0
 40
37.0
 40
37.0
 40
38.0
 40
38.0
 40
38.0
 40
39.0
 40
39.0
 40
39.0
 40
40.0
 40
40.0
 40
40.0
 40
41.0
 40
41.0
 40
41.0
 40
42.0
 40
42.0
 40
42.0
 40
43.0
 40
43.0
 40
43.0
 40
44.0
 40
44.0
 40
44.0
 40
45.0
 40
45.0
 40
45.0
 40
46.0
 40
46.0
 40
46.0
 40
47.0
 40
47.0
 40
47.0
 40
48.0
 40
48.0
 40
48.0
 40
49.0
 40
49.0
 40
49.0
 40
50.0
 40
50.0
 40
50.0
 40
51.0
 40
51.0
 40
51.0
 40
52.0
 40
52.0
 40
52.0
 40
53.0
 40
53.0
 40
53.0
 40
54.0
 40
54.0
 40
54.0
 40
54.0
 10
499.5499877929688
 20
383.8330078125
 10
494.4679870605469
 20
385.0469970703125
 10
494.5369873046875
 20
385.2239990234375
 10
498.1519775390625
 20
388.9089965820312
 10
505.2839660644531
 20
396.177001953125
 10
511.9049682617188
 20
403.8779907226562
 10
514.5079956054688
 20
413.9979858398438
 10
517.1179809570312
 20
424.1479797363281
 10
518.0479736328125
 20
434.5509948730469
 10
517.3939819335938
 20
445.0349731445312
 10
516.52099609375
 20
459.0379638671875
 10
511.3399963378906
 20
471.8589782714844
 10
506.2559814453125
 20
484.6909790039062
 10
505.2909851074219
 20
487.1279907226562
 10
503.1169738769531
 20
489.6999816894531
 10
503.1899719238281
 20
491.8879699707031
 10
503.1899719238281
 20
491.8879699707031
 10
518.7659912109375
 20
507.9769592285156
 10
518.7659912109375
 20
507.9769592285156
 10
519.0
 20
505.3499450683594
 10
519.9329833984375
 20
503.6599731445312
 10
521.2470092773438
 20
502.1099548339844
 10
523.447021484375
 20
499.5149536132812
 10
526.1890258789062
 20
497.5369567871094
 10
528.7550048828125
 20
495.3609619140625
 10
535.135986328125
 20
489.9479675292969
 10
536.7999877929688
 20
478.9829711914062
 10
532.3679809570312
 20
471.719970703125
 10
531.447998046875
 20
470.2129821777344
 10
530.427001953125
 20
468.8119812011719
 10
529.0789794921875
 20
467.7129821777344
 10
527.1319580078125
 20
466.1229858398438
 10
524.5050048828125
 20
466.7479858398438
 10
524.1239624023438
 20
468.844970703125
 10
523.9629516601562
 20
469.7279663085938
 10
523.6659545898438
 20
470.9609680175781
 10
525.3939819335938
 20
469.761962890625
 10
526.7049560546875
 20
468.8519592285156
 10
527.0549926757812
 20
470.5549621582031
 10
527.6599731445312
 20
471.1899719238281
 10
528.4049682617188
 20
471.9719848632812
 10
527.708984375
 20
472.9059753417969
 10
527.2239990234375
 20
473.5379638671875
 10
526.4169921875
 20
474.5919494628906
 10
525.7050170898438
 20
473.7669677734375
 10
525.1119995117188
 20
473.1319580078125
 10
524.1530151367188
 20
472.1049499511719
 10
523.0570068359375
 20
471.14697265625
 10
522.3389892578125
 20
469.9649658203125
 10
521.3690185546875
 20
468.365966796875
 10
520.5419921875
 20
466.4159545898438
 10
522.2279663085938
 20
464.8779602050781
 10
523.9309692382812
 20
463.324951171875
 10
526.0009765625
 20
463.9129638671875
 10
527.5919799804688
 20
465.1829528808594
 10
532.4549560546875
 20
469.0629577636719
 10
536.989990234375
 20
473.3079528808594
 10
539.989990234375
 20
478.8609619140625
 10
544.9649658203125
 20
488.0689697265625
 10
542.9149780273438
 20
498.4419555664062
 10
535.06396484375
 20
505.0699462890625
 10
532.8329467773438
 20
506.9549560546875
 10
530.7019653320312
 20
509.0099487304688
 10
528.7999877929688
 20
511.2229614257812
 10
527.1430053710938
 20
513.1519470214844
 10
526.5499877929688
 20
514.7639465332031
 10
526.9550170898438
 20
516.4349670410156
 10
526.9550170898438
 20
516.4349670410156
 10
536.9010009765625
 20
526.7019653320312
 10
536.9010009765625
 20
526.7019653320312
 10
536.9010009765625
 20
526.7019653320312
 10
535.3489990234375
 20
528.2049560546875
 10
535.3489990234375
 20
528.2049560546875
 10
535.3489990234375
 20
528.2049560546875
 10
502.2369995117188
 20
494.0079650878906
 10
502.2369995117188
 20
494.0079650878906
 10
501.7630004882812
 20
494.1099548339844
 10
501.31201171875
 20
494.6219787597656
 10
500.7380065917969
 20
495.6549682617188
 10
495.3550109863281
 20
505.3519592285156
 10
487.6430053710938
 20
512.6179809570312
 10
477.4169921875
 20
517.0869750976562
 10
473.2869873046875
 20
518.8919677734375
 10
469.0189819335938
 20
520.0599670410156
 10
464.4499816894531
 20
519.3879699707031
 10
454.3639831542969
 20
517.9039611816406
 10
448.9349670410156
 20
510.81396484375
 10
444.8049926757812
 20
502.5199584960938
 10
440.7059936523438
 20
494.2869567871094
 10
442.0159912109375
 20
486.39794921875
 10
447.8760070800781
 20
479.4509582519531
 10
451.1050109863281
 20
475.6239624023438
 10
455.3139953613281
 20
473.4849548339844
 10
460.5910034179688
 20
474.5259704589844
 10
464.8380126953125
 20
475.3639831542969
 10
469.6109924316406
 20
479.5879821777344
 10
470.9410095214844
 20
483.7459716796875
 10
470.6060180664062
 20
483.6019592285156
 10
470.2669982910156
 20
483.5419616699219
 10
470.0509948730469
 20
483.3459777832031
 10
469.5700073242188
 20
482.9099731445312
 10
469.1199951171875
 20
482.4319763183594
 10
468.7120056152344
 20
481.9269714355469
 10
465.4250183105469
 20
477.85498046875
 10
461.6849975585938
 20
476.9629821777344
 10
457.0090026855469
 20
479.4239807128906
 10
450.6589965820312
 20
482.7659912109375
 10
447.4089965820312
 20
488.2289733886719
 10
446.3890075683594
 20
495.2489929199219
 10
444.8200073242188
 20
506.0469970703125
 10
452.8450012207031
 20
513.22900390625
 10
463.1440124511719
 20
509.7380065917969
 10
471.0010070800781
 20
507.0750122070312
 10
478.27001953125
 20
503.1589965820312
 10
484.1960144042969
 20
497.1060180664062
 10
490.5060119628906
 20
490.6620178222656
 10
494.0580139160156
 20
482.6280212402344
 10
497.427001953125
 20
474.4850158691406
 10
505.1380004882812
 20
455.8510131835938
 10
510.9980163574219
 20
436.9440307617188
 10
507.8280029296875
 20
416.291015625
 10
506.1600036621094
 20
405.4230041503906
 10
503.6790161132812
 20
395.2100219726562
 10
494.8269958496094
 20
387.6340026855469
 10
493.2869873046875
 20
386.3160095214844
 10
492.2429809570312
 20
386.1230163574219
 10
490.6000061035156
 20
386.8359985351562
 10
486.5180053710938
 20
388.6069946289062
 10
482.4020080566406
 20
390.2999877929688
 10
478.3099975585938
 20
392.0480041503906
 10
469.3049926757812
 20
395.8970031738281
 10
460.0969848632812
 20
397.9920043945312
 10
450.4570007324219
 20
394.697998046875
 10
438.1270141601562
 20
390.4840087890625
 10
429.7489929199219
 20
381.5390014648438
 10
422.8290100097656
 20
370.9960021972656
 10
422.0060119628906
 20
369.7420043945312
 10
421.2030029296875
 20
368.2179870605469
 10
421.4420166015625
 20
366.1470031738281
 10
425.0570068359375
 20
368.6050109863281
 10
428.6270141601562
 20
370.3990173339844
 10
429.5880126953125
 20
375.1239929199219
 10
430.47900390625
 20
379.5069885253906
 10
433.7040100097656
 20
382.4819946289062
 10
437.5599975585938
 20
384.552978515625
 10
443.9909973144531
 20
388.0049743652344
 10
450.9150085449219
 20
388.8319702148438
 10
458.0750122070312
 20
387.8759765625
 10
466.0440063476562
 20
386.8109741210938
 10
473.2770080566406
 20
383.5269775390625
 10
480.4420166015625
 20
380.1489868164062
 10
494.166015625
 20
373.6789855957031
 10
508.35400390625
 20
370.6199951171875
 10
523.43701171875
 20
374.0559997558594
 10
531.0530395507812
 20
375.7900085449219
 10
537.5540161132812
 20
379.3829956054688
 10
541.8049926757812
 20
386.322998046875
 10
539.0960083007812
 20
385.2080078125
 10
536.7689819335938
 20
383.4609985351562
 10
533.9580078125
 20
382.6180114746094
 10
522.343994140625
 20
379.135009765625
 10
510.9159851074219
 20
381.1180114746094
 10
499.5499877929688
 20
383.8330078125
 97
        0
 97
        0
 92
        1
 93
        1
 72
     4
 94
        3
 73
     0
 74
     1
 95
       53
 96
       49
 40
0.0
 40
0.0
 40
0.0
 40
0.0
 40
1.0
 40
1.0
 40
1.0
 40
2.0
 40
2.0
 40
2.0
 40
3.0
 40
3.0
 40
3.0
 40
4.0
 40
4.0
 40
4.0
 40
5.0
 40
5.0
 40
5.0
 40
6.0
 40
6.0
 40
6.0
 40
7.0
 40
7.0
 40
7.0
 40
8.0
 40
8.0
 40
8.0
 40
9.0
 40
9.0
 40
9.0
 40
10.0
 40
10.0
 40
10.0
 40
11.0
 40
11.0
 40
11.0
 40
12.0
 40
12.0
 40
12.0
 40
13.0
 40
13.0
 40
13.0
 40
14.0
 40
14.0
 40
14.0
 40
15.0
 40
15.0
 40
15.0
 40
16.0
 40
16.0
 40
16.0
 40
16.0
 10
451.3160095214844
 20
424.7909851074219
 10
451.3160095214844
 20
424.7909851074219
 10
388.7090148925781
 20
360.135986328125
 10
388.7090148925781
 20
360.135986328125
 10
388.7090148925781
 20
360.135986328125
 10
387.1570129394531
 20
361.6389770507812
 10
387.1570129394531
 20
361.6389770507812
 10
387.1570129394531
 20
361.6389770507812
 10
410.9609985351562
 20
386.2229614257812
 10
410.9609985351562
 20
386.2229614257812
 10
410.8819885253906
 20
386.27294921875
 10
410.7990112304688
 20
386.323974609375
 10
410.708984375
 20
386.3749694824219
 10
395.0079956054688
 20
395.3679809570312
 10
387.6029968261719
 20
409.3229675292969
 10
386.5649719238281
 20
427.0359802246094
 10
386.2979736328125
 20
431.5869750976562
 10
385.9979858398438
 20
436.1399841308594
 10
385.8619689941406
 20
440.6949768066406
 10
385.6739807128906
 20
446.9879760742188
 10
387.4399719238281
 20
452.68798828125
 10
391.3209838867188
 20
457.7119750976562
 10
395.3359985351562
 20
462.9099731445312
 10
399.9149780273438
 20
467.5169677734375
 10
405.3389892578125
 20
471.2329711914062
 10
409.4539794921875
 20
474.0539855957031
 10
413.6849975585938
 20
473.3409729003906
 10
416.8309936523438
 20
469.4219665527344
 10
422.8890075683594
 20
461.8779602050781
 10
423.0929870605469
 20
447.8359680175781
 10
417.2219848632812
 20
439.3709716796875
 10
412.6349792480469
 20
432.7559814453125
 10
406.4679870605469
 20
427.7449645996094
 10
400.1179809570312
 20
422.9779663085938
 10
398.2099914550781
 20
421.5459594726562
 10
397.89697265625
 20
420.4039611816406
 10
398.843994140625
 20
418.1669616699219
 10
403.0440063476562
 20
408.2479553222656
 10
406.9629821777344
 20
401.8549499511719
 10
416.3269958496094
 20
396.3739624023438
 10
417.5329895019531
 20
395.66796875
 10
418.7250061035156
 20
395.1949768066406
 10
419.8809814453125
 20
395.4239501953125
 10
419.8809814453125
 20
395.4239501953125
 10
449.7639770507812
 20
426.2939453125
 10
449.7639770507812
 20
426.2939453125
 10
449.7639770507812
 20
426.2939453125
 10
451.3160095214844
 20
424.7909851074219
 10
451.3160095214844
 20
424.7909851074219
 97
        0
 97
        0
 92
        1
 93
        1
 72
     4
 94
        3
 73
     0
 74
     1
 95
       29
 96
       25
 40
0.0
 40
0.0
 40
0.0
 40
0.0
 40
1.0
 40
1.0
 40
1.0
 40
2.0
 40
2.0
 40
2.0
 40
3.0
 40
3.0
 40
3.0
 40
4.0
 40
4.0
 40
4.0
 40
5.0
 40
5.0
 40
5.0
 40
6.0
 40
6.0
 40
6.0
 40
7.0
 40
7.0
 40
7.0
 40
8.0
 40
8.0
 40
8.0
 40
8.0
 10
399.010009765625
 20
425.2969970703125
 10
400.9259948730469
 20
426.8919982910156
 10
403.0550231933594
 20
428.2279968261719
 10
405.0299987792969
 20
429.7539978027344
 10
413.385986328125
 20
436.2149963378906
 10
415.677001953125
 20
450.6719970703125
 10
409.5379943847656
 20
459.3399963378906
 10
407.7959899902344
 20
461.7980041503906
 10
406.135986328125
 20
465.3150024414062
 10
402.4309997558594
 20
464.7070007324219
 10
398.6910095214844
 20
464.093994140625
 10
396.9169921875
 20
460.7760009765625
 10
395.5639953613281
 20
457.4729919433594
 10
395.281005859375
 20
456.781005859375
 10
395.1789855957031
 20
456.0079956054688
 10
395.0480041503906
 20
455.2630004882812
 10
394.3489990234375
 20
451.2940063476562
 10
393.9320068359375
 20
447.302001953125
 10
394.1910095214844
 20
443.4010009765625
 10
393.9089965820312
 20
437.5660095214844
 10
394.8529968261719
 20
432.0159912109375
 10
396.1069946289062
 20
426.4869995117188
 10
396.56201171875
 20
424.489990234375
 10
397.0969848632812
 20
423.7049865722656
 10
399.010009765625
 20
425.2969970703125
 97
        0
 97
        0
 92
        1
 93
        1
 72
     4
 94
        3
 73
     0
 74
     1
 95
      200
 96
      196
 40
0.0
 40
0.0
 40
0.0
 40
0.0
 40
1.0
 40
1.0
 40
1.0
 40
2.0
 40
2.0
 40
2.0
 40
3.0
 40
3.0
 40
3.0
 40
4.0
 40
4.0
 40
4.0
 40
5.0
 40
5.0
 40
5.0
 40
6.0
 40
6.0
 40
6.0
 40
7.0
 40
7.0
 40
7.0
 40
8.0
 40
8.0
 40
8.0
 40
9.0
 40
9.0
 40
9.0
 40
10.0
 40
10.0
 40
10.0
 40
11.0
 40
11.0
 40
11.0
 40
12.0
 40
12.0
 40
12.0
 40
13.0
 40
13.0
 40
13.0
 40
14.0
 40
14.0
 40
14.0
 40
15.0
 40
15.0
 40
15.0
 40
16.0
 40
16.0
 40
16.0
 40
17.0
 40
17.0
 40
17.0
 40
18.0
 40
18.0
 40
18.0
 40
19.0
 40
19.0
 40
19.0
 40
20.0
 40
20.0
 40
20.0
 40
21.0
 40
21.0
 40
21.0
 40
22.0
 40
22.0
 40
22.0
 40
23.0
 40
23.0
 40
23.0
 40
24.0
 40
24.0
 40
24.0
 40
25.0
 40
25.0
 40
25.0
 40
26.0
 40
26.0
 40
26.0
 40
27.0
 40
27.0
 40
27.0
 40
28.0
 40
28.0
 40
28.0
 40
29.0
 40
29.0
 40
29.0
 40
30.0
 40
30.0
 40
30.0
 40
31.0
 40
31.0
 40
31.0
 40
32.0
 40
32.0
 40
32.0
 40
33.0
 40
33.0
 40
33.0
 40
34.0
 40
34.0
 40
34.0
 40
35.0
 40
35.0
 40
35.0
 40
36.0
 40
36.0
 40
36.0
 40
37.0
 40
37.0
 40
37.0
 40
38.0
 40
38.0
 40
38.0
 40
39.0
 40
39.0
 40
39.0
 40
40.0
 40
40.0
 40
40.0
 40
41.0
 40
41.0
 40
41.0
 40
42.0
 40
42.0
 40
42.0
 40
43.0
 40
43.0
 40
43.0
 40
44.0
 40
44.0
 40
44.0
 40
45.0
 40
45.0
 40
45.0
 40
46.0
 40
46.0
 40
46.0
 40
47.0
 40
47.0
 40
47.0
 40
48.0
 40
48.0
 40
48.0
 40
49.0
 40
49.0
 40
49.0
 40
50.0
 40
50.0
 40
50.0
 40
51.0
 40
51.0
 40
51.0
 40
52.0
 40
52.0
 40
52.0
 40
53.0
 40
53.0
 40
53.0
 40
54.0
 40
54.0
 40
54.0
 40
55.0
 40
55.0
 40
55.0
 40
56.0
 40
56.0
 40
56.0
 40
57.0
 40
57.0
 40
57.0
 40
58.0
 40
58.0
 40
58.0
 40
59.0
 40
59.0
 40
59.0
 40
60.0
 40
60.0
 40
60.0
 40
61.0
 40
61.0
 40
61.0
 40
62.0
 40
62.0
 40
62.0
 40
63.0
 40
63.0
 40
63.0
 40
64.0
 40
64.0
 40
64.0
 40
65.0
 40
65.0
 40
65.0
 40
65.0
 10
719.635009765625
 20
399.1059875488281
 10
719.635009765625
 20
399.1059875488281
 10
721.18701171875
 20
397.6029968261719
 10
721.18701171875
 20
397.6029968261719
 10
721.18701171875
 20
397.6029968261719
 10
652.5690307617188
 20
326.740966796875
 10
652.5690307617188
 20
326.740966796875
 10
652.5690307617188
 20
326.740966796875
 10
651.0170288085938
 20
328.2439575195312
 10
651.0170288085938
 20
328.2439575195312
 10
651.0170288085938
 20
328.2439575195312
 10
672.2960205078125
 20
350.2179565429688
 10
672.2960205078125
 20
350.2179565429688
 10
673.33203125
 20
352.6729431152344
 10
671.7080078125
 20
354.6809692382812
 10
669.8380126953125
 20
360.8599548339844
 10
666.9739990234375
 20
370.3199462890625
 10
666.7300415039062
 20
380.56396484375
 10
665.2219848632812
 20
390.4459533691406
 10
664.4209594726562
 20
395.6989440917969
 10
659.60595703125
 20
397.636962890625
 10
655.0679931640625
 20
394.6819458007812
 10
649.6740112304688
 20
391.1699523925781
 10
648.5830078125
 20
387.4459533691406
 10
651.2869873046875
 20
381.7809448242188
 10
644.9760131835938
 20
386.3719482421875
 10
644.7369995117188
 20
392.1029357910156
 10
650.6759643554688
 20
397.0099487304688
 10
653.7889404296875
 20
399.5809631347656
 10
657.0139770507812
 20
402.0039367675781
 10
661.1089477539062
 20
402.761962890625
 10
662.7269287109375
 20
403.0619506835938
 10
662.5709228515625
 20
404.0569763183594
 10
662.3789672851562
 20
405.1839599609375
 10
660.989990234375
 20
413.3339538574219
 10
659.095947265625
 20
424.4529724121094
 10
657.5759887695312
 20
433.3729553222656
 10
657.5759887695312
 20
433.3729553222656
 10
592.35498046875
 20
361.9989624023438
 10
592.35498046875
 20
361.9989624023438
 10
592.35498046875
 20
361.9989624023438
 10
590.802978515625
 20
363.5
 10
590.802978515625
 20
363.5
 10
590.802978515625
 20
363.5
 10
610.7179565429688
 20
385.2829895019531
 10
610.7179565429688
 20
385.2829895019531
 10
610.5499267578125
 20
385.6940002441406
 10
610.054931640625
 20
386.0910034179688
 10
609.1869506835938
 20
386.5539855957031
 10
601.8099365234375
 20
390.4919738769531
 10
596.8379516601562
 20
394.6219787597656
 10
593.0699462890625
 20
402.1349792480469
 10
592.8509521484375
 20
402.5719909667969
 10
592.7019653320312
 20
402.9319763183594
 10
592.5909423828125
 20
403.2119750976562
 10
592.5909423828125
 20
403.2119750976562
 10
551.4839477539062
 20
360.7589721679688
 10
551.4839477539062
 20
360.7589721679688
 10
551.4839477539062
 20
360.7589721679688
 10
549.9319458007812
 20
362.261962890625
 10
549.9319458007812
 20
362.261962890625
 10
549.9319458007812
 20
362.261962890625
 10
570.1859741210938
 20
383.177978515625
 10
570.1859741210938
 20
383.177978515625
 10
569.5849609375
 20
383.8069763183594
 10
568.4579467773438
 20
384.3359680175781
 10
567.4159545898438
 20
384.6899719238281
 10
552.93896484375
 20
389.6199645996094
 10
545.574951171875
 20
400.8629760742188
 10
541.3089599609375
 20
414.6169738769531
 10
538.2569580078125
 20
424.4569702148438
 10
536.7439575195312
 20
434.5189819335938
 10
538.8589477539062
 20
444.8359680175781
 10
540.9209594726562
 20
454.8949584960938
 10
547.1859741210938
 20
462.06396484375
 10
554.8629760742188
 20
468.2699584960938
 10
556.7959594726562
 20
469.8329467773438
 10
559.0189819335938
 20
469.4149475097656
 10
561.10400390625
 20
468.7979736328125
 10
564.2219848632812
 20
467.8729858398438
 10
566.698974609375
 20
465.9609680175781
 10
568.47802734375
 20
463.2029724121094
 10
573.6730346679688
 20
455.1499633789062
 10
571.9540405273438
 20
441.9779663085938
 10
564.8410034179688
 20
435.5769653320312
 10
564.2490234375
 20
435.0459594726562
 10
563.7680053710938
 20
434.2249755859375
 10
562.3619995117188
 20
434.303955078125
 10
565.39599609375
 20
438.2759399414062
 10
566.97998046875
 20
442.4969482421875
 10
566.3159790039062
 20
447.3569641113281
 10
565.4840087890625
 20
453.448974609375
 10
562.9530029296875
 20
458.5549621582031
 10
557.8519897460938
 20
462.1879577636719
 10
554.4129638671875
 20
464.6359558105469
 10
552.2219848632812
 20
464.376953125
 10
549.27099609375
 20
461.2949523925781
 10
546.1110229492188
 20
457.9969482421875
 10
544.5659790039062
 20
453.8369445800781
 10
544.1959838867188
 20
449.512939453125
 10
542.5650024414062
 20
430.4479370117188
 10
548.6849975585938
 20
414.0149536132812
 10
561.9539794921875
 20
400.3169555664062
 10
565.4840087890625
 20
396.6719665527344
 10
569.948974609375
 20
394.1539611816406
 10
575.0079956054688
 20
393.1559448242188
 10
576.083984375
 20
392.9439392089844
 10
577.9569702148438
 20
392.6119384765625
 10
579.4609985351562
 20
392.751953125
 10
579.4609985351562
 20
392.751953125
 10
591.198974609375
 20
404.8689575195312
 10
591.198974609375
 20
404.8689575195312
 10
590.9509887695312
 20
406.5669555664062
 10
589.8049926757812
 20
408.8269653320312
 10
589.4759521484375
 20
409.8549499511719
 10
586.1109619140625
 20
420.3689575195312
 10
583.9409790039062
 20
431.0629577636719
 10
584.8759765625
 20
442.2079467773438
 10
585.447998046875
 20
449.0169372558594
 10
589.14697265625
 20
454.1759338378906
 10
593.531005859375
 20
458.9529418945312
 10
596.5440063476562
 20
462.2359313964844
 10
599.8359985351562
 20
465.2619323730469
 10
603.4390258789062
 20
467.8989562988281
 10
607.5660400390625
 20
470.9199523925781
 10
611.1150512695312
 20
470.9789428710938
 10
615.0070190429688
 20
467.5809631347656
 10
631.9120483398438
 20
452.8219604492188
 10
639.3800048828125
 20
434.5729675292969
 10
635.2969970703125
 20
412.1859741210938
 10
635.2969970703125
 20
412.1859741210938
 10
656.9049682617188
 20
435.8269653320312
 10
656.9049682617188
 20
435.8269653320312
 10
657.1089477539062
 20
437.6839599609375
 10
656.7449951171875
 20
439.9829711914062
 10
656.2869873046875
 20
443.9729614257812
 10
655.4149780273438
 20
451.5689697265625
 10
649.4149780273438
 20
453.970947265625
 10
644.81201171875
 20
457.9469604492188
 10
644.7360229492188
 20
458.011962890625
 10
644.6630249023438
 20
458.0679626464844
 10
644.593994140625
 20
458.1129455566406
 10
644.593994140625
 20
458.1129455566406
 10
633.6929931640625
 20
446.8529357910156
 10
633.6929931640625
 20
446.8529357910156
 10
633.6929931640625
 20
446.8529357910156
 10
632.1409912109375
 20
448.3559265136719
 10
632.1409912109375
 20
448.3559265136719
 10
632.1409912109375
 20
448.3559265136719
 10
672.56201171875
 20
490.0989379882812
 10
672.56201171875
 20
490.0989379882812
 10
672.56201171875
 20
490.0989379882812
 10
674.114013671875
 20
488.595947265625
 10
674.114013671875
 20
488.595947265625
 10
674.114013671875
 20
488.595947265625
 10
652.3179931640625
 20
466.0869445800781
 10
652.3179931640625
 20
466.0869445800781
 10
652.4949951171875
 20
465.9319458007812
 10
652.718994140625
 20
465.7779541015625
 10
652.9920043945312
 20
465.6199340820312
 10
653.0859985351562
 20
465.5659484863281
 10
653.1730346679688
 20
465.4999389648438
 10
653.2639770507812
 20
465.4419250488281
 10
660.031005859375
 20
461.1149291992188
 10
664.5859985351562
 20
456.0699157714844
 10
664.949951171875
 20
446.9449157714844
 10
664.98095703125
 20
446.1769104003906
 10
665.137939453125
 20
445.8849182128906
 10
665.1409301757812
 20
444.8459167480469
 10
665.1409301757812
 20
444.8459167480469
 10
699.794921875
 20
482.7709045410156
 10
699.794921875
 20
482.7709045410156
 10
699.794921875
 20
482.7709045410156
 10
701.346923828125
 20
481.2679138183594
 10
701.346923828125
 20
481.2679138183594
 10
701.346923828125
 20
481.2679138183594
 10
686.3359375
 20
464.8459167480469
 10
686.3359375
 20
464.8459167480469
 10
684.5909423828125
 20
461.4269104003906
 10
685.284912109375
 20
458.1629028320312
 10
688.10693359375
 20
454.3389282226562
 10
692.0439453125
 20
449.0049133300781
 10
696.199951171875
 20
443.8329162597656
 10
700.1119384765625
 20
438.48193359375
 10
710.8359375
 20
423.8129272460938
 10
709.2459106445312
 20
408.1049194335938
 10
696.3489379882812
 20
394.9289245605469
 10
688.4519653320312
 20
386.8609313964844
 10
685.0039672851562
 20
386.0749206542969
 10
674.867919921875
 20
390.6779174804688
 10
674.262939453125
 20
387.7289123535156
 10
678.212890625
 20
365.013916015625
 10
680.305908203125
 20
358.4949340820312
 10
680.305908203125
 20
358.4949340820312
 10
719.635009765625
 20
399.1059875488281
 10
719.635009765625
 20
399.1059875488281
 97
        0
 97
        0
 92
        1
 93
        1
 72
     4
 94
        3
 73
     0
 74
     1
 95
       47
 96
       43
 40
0.0
 40
0.0
 40
0.0
 40
0.0
 40
1.0
 40
1.0
 40
1.0
 40
2.0
 40
2.0
 40
2.0
 40
3.0
 40
3.0
 40
3.0
 40
4.0
 40
4.0
 40
4.0
 40
5.0
 40
5.0
 40
5.0
 40
6.0
 40
6.0
 40
6.0
 40
7.0
 40
7.0
 40
7.0
 40
8.0
 40
8.0
 40
8.0
 40
9.0
 40
9.0
 40
9.0
 40
10.0
 40
10.0
 40
10.0
 40
11.0
 40
11.0
 40
11.0
 40
12.0
 40
12.0
 40
12.0
 40
13.0
 40
13.0
 40
13.0
 40
14.0
 40
14.0
 40
14.0
 40
14.0
 10
628.1909790039062
 20
423.2619934082031
 10
625.699951171875
 20
438.2479858398438
 10
618.552001953125
 20
450.6009826660156
 10
606.6099853515625
 20
459.9889831542969
 10
601.4450073242188
 20
464.0489807128906
 10
596.0379638671875
 20
462.2109680175781
 10
593.6449584960938
 20
455.9989929199219
 10
592.5829467773438
 20
453.239990234375
 10
592.1869506835938
 20
450.343994140625
 10
592.1079711914062
 20
447.3880004882812
 10
591.85595703125
 20
438.0379943847656
 10
593.886962890625
 20
429.0419921875
 10
596.3529663085938
 20
420.1260070800781
 10
596.4109497070312
 20
419.916015625
 10
596.4659423828125
 20
419.718994140625
 10
596.5189819335938
 20
419.5320129394531
 10
597.06201171875
 20
417.2490234375
 10
597.9209594726562
 20
415.0530090332031
 10
599.0719604492188
 20
413.0080261230469
 10
599.0719604492188
 20
413.0080261230469
 10
602.0489501953125
 20
416.0830383300781
 10
602.0489501953125
 20
416.0830383300781
 10
603.1709594726562
 20
417.3760375976562
 10
604.8959350585938
 20
417.9750366210938
 10
606.5779418945312
 20
417.655029296875
 10
606.5779418945312
 20
417.655029296875
 10
600.0799560546875
 20
410.947021484375
 10
600.0799560546875
 20
410.947021484375
 10
604.1669311523438
 20
403.5710144042969
 10
607.3439331054688
 20
399.7770080566406
 10
614.7279663085938
 20
395.7030334472656
 10
615.7279663085938
 20
395.1510314941406
 10
618.0029907226562
 20
394.4680480957031
 10
619.3839721679688
 20
394.7660217285156
 10
619.3839721679688
 20
394.7660217285156
 10
626.4089965820312
 20
402.4620361328125
 10
626.4089965820312
 20
402.4620361328125
 10
627.5089721679688
 20
404.5650329589844
 10
628.1890258789062
 20
406.9070434570312
 10
628.3599853515625
 20
409.6190490722656
 10
628.6500244140625
 20
414.1900024414062
 10
628.9409790039062
 20
418.7439880371094
 10
628.1909790039062
 20
423.2619934082031
 97
        0
 97
        0
 92
        1
 93
        1
 72
     4
 94
        3
 73
     0
 74
     1
 95
       35
 96
       31
 40
0.0
 40
0.0
 40
0.0
 40
0.0
 40
1.0
 40
1.0
 40
1.0
 40
2.0
 40
2.0
 40
2.0
 40
3.0
 40
3.0
 40
3.0
 40
4.0
 40
4.0
 40
4.0
 40
5.0
 40
5.0
 40
5.0
 40
6.0
 40
6.0
 40
6.0
 40
7.0
 40
7.0
 40
7.0
 40
8.0
 40
8.0
 40
8.0
 40
9.0
 40
9.0
 40
9.0
 40
10.0
 40
10.0
 40
10.0
 40
10.0
 10
678.7680053710938
 20
400.5880126953125
 10
679.8729858398438
 20
400.4380187988281
 10
680.9030151367188
 20
399.56201171875
 10
681.9180297851562
 20
398.9410095214844
 10
684.3380126953125
 20
397.4580078125
 10
686.8370361328125
 20
396.2019958496094
 10
689.677001953125
 20
395.7380065917969
 10
692.9520263671875
 20
395.2030029296875
 10
695.6090087890625
 20
396.6990051269531
 10
696.8699951171875
 20
399.8210144042969
 10
700.8330078125
 20
409.6260070800781
 10
699.6430053710938
 20
418.9500122070312
 10
694.0850219726562
 20
427.7750244140625
 10
690.8460083007812
 20
432.9180297851562
 10
687.177001953125
 20
437.7650146484375
 10
683.3150024414062
 20
442.4610290527344
 10
680.7730102539062
 20
445.5540161132812
 10
677.9110107421875
 20
449.9140319824219
 10
677.3400268554688
 20
454.9990234375
 10
677.3400268554688
 20
454.9990234375
 10
665.760009765625
 20
442.3300170898438
 10
665.760009765625
 20
442.3300170898438
 10
665.7510375976562
 20
440.7940063476562
 10
666.0140380859375
 20
438.68701171875
 10
666.135009765625
 20
437.9580078125
 10
667.6069946289062
 20
429.0780029296875
 10
669.1940307617188
 20
420.2120056152344
 10
670.4559936523438
 20
411.3009948730469
 10
671.2050170898438
 20
406.0079956054688
 10
672.406982421875
 20
401.4549865722656
 10
678.7680053710938
 20
400.5880126953125
 97
        0
 97
        0
 92
        1
 93
        1
 72
     4
 94
        3
 73
     0
 74
     1
 95
       41
 96
       37
 40
0.0
 40
0.0
 40
0.0
 40
0.0
 40
1.0
 40
1.0
 40
1.0
 40
2.0
 40
2.0
 40
2.0
 40
3.0
 40
3.0
 40
3.0
 40
4.0
 40
4.0
 40
4.0
 40
5.0
 40
5.0
 40
5.0
 40
6.0
 40
6.0
 40
6.0
 40
7.0
 40
7.0
 40
7.0
 40
8.0
 40
8.0
 40
8.0
 40
9.0
 40
9.0
 40
9.0
 40
10.0
 40
10.0
 40
10.0
 40
11.0
 40
11.0
 40
11.0
 40
12.0
 40
12.0
 40
12.0
 40
12.0
 10
803.1719970703125
 20
392.1499938964844
 10
799.239013671875
 20
383.9779968261719
 10
794.8909912109375
 20
382.1909790039062
 10
787.0339965820312
 20
386.4450073242188
 10
768.7960205078125
 20
396.3200073242188
 10
758.0039672851562
 20
414.3909912109375
 10
760.4940185546875
 20
436.0400085449219
 10
761.0660400390625
 20
441.0169982910156
 10
763.4150390625
 20
445.322021484375
 10
766.6190185546875
 20
449.135009765625
 10
772.1539916992188
 20
455.7220153808594
 10
778.3890380859375
 20
461.60400390625
 10
784.9390258789062
 20
467.1620178222656
 10
785.6790161132812
 20
467.7920227050781
 10
786.5180053710938
 20
468.31201171875
 10
787.3370361328125
 20
468.8440246582031
 10
792.6240234375
 20
472.2760314941406
 10
795.9430541992188
 20
471.3990173339844
 10
798.4610595703125
 20
465.6610107421875
 10
801.2280883789062
 20
459.3590087890625
 10
801.1270751953125
 20
452.8180236816406
 10
798.373046875
 20
446.6620178222656
 10
793.2840576171875
 20
435.2860107421875
 10
782.1140747070312
 20
425.6360168457031
 10
772.31005859375
 20
418.009033203125
 10
772.31005859375
 20
418.009033203125
 10
773.2900390625
 20
415.7770385742188
 10
773.2900390625
 20
415.7770385742188
 10
778.7360229492188
 20
406.0540466308594
 10
786.2830200195312
 20
398.4830322265625
 10
796.238037109375
 20
393.4000244140625
 10
797.2830200195312
 20
392.8680114746094
 10
798.4850463867188
 20
392.5700378417969
 10
799.6490478515625
 20
392.364013671875
 10
800.7990112304688
 20
392.1589965820312
 10
801.9949951171875
 20
392.2109985351562
 10
803.1719970703125
 20
392.1499938964844
 97
        0
 97
        0
 92
        1
 93
        1
 72
     4
 94
        3
 73
     0
 74
     1
 95
       26
 96
       22
 40
0.0
 40
0.0
 40
0.0
 40
0.0
 40
1.0
 40
1.0
 40
1.0
 40
2.0
 40
2.0
 40
2.0
 40
3.0
 40
3.0
 40
3.0
 40
4.0
 40
4.0
 40
4.0
 40
5.0
 40
5.0
 40
5.0
 40
6.0
 40
6.0
 40
6.0
 40
7.0
 40
7.0
 40
7.0
 40
7.0
 10
771.7559814453125
 20
419.2560119628906
 10
773.2470092773438
 20
420.666015625
 10
775.4759521484375
 20
422.1790161132812
 10
776.2319946289062
 20
422.9130249023438
 10
779.3469848632812
 20
425.9380187988281
 10
782.5189819335938
 20
428.43603515625
 10
785.739990234375
 20
431.3480224609375
 10
792.375
 20
437.3470153808594
 10
793.7119750976562
 20
451.3330078125
 10
790.9530029296875
 20
457.1840209960938
 10
788.4429931640625
 20
462.5070190429688
 10
784.4240112304688
 20
463.791015625
 10
779.6510009765625
 20
460.4600219726562
 10
775.6400146484375
 20
457.6600341796875
 10
772.6329956054688
 20
453.905029296875
 10
770.6259765625
 20
449.5080261230469
 10
766.0479736328125
 20
439.4760131835938
 10
768.3070068359375
 20
429.5470275878906
 10
771.5570068359375
 20
419.7140197753906
 10
771.5570068359375
 20
419.7140197753906
 10
771.7559814453125
 20
419.2560119628906
 10
771.7559814453125
 20
419.2560119628906
 97
        0
 97
        0
 75
     2
 76
     1
 98
        0
  0
ENDSEC
  0
SECTION
  2
OBJECTS
  0
DICTIONARY
  5
C
330
0
100
AcDbDictionary
281
     1
  3
ACAD_GROUP
350
D
  3
ACAD_LAYOUT
350
1A
  3
ACAD_MATERIAL
350
3B
  3
ACAD_MLEADERSTYLE
350
55
  3
ACAD_MLINESTYLE
350
17
  3
ACAD_PLOTSETTINGS
350
19
  3
ACAD_PLOTSTYLENAME
350
E
  3
ACAD_TABLESTYLE
350
54
  3
ACAD_VISUALSTYLE
350
2A
  0
SUN
  5
3F
330
29
100
AcDbSun
 90
        1
290
     0
 63
     7
421
 16777215
 40
1.0
291
     1
 91
  2455826
 92
 54000000
292
     0
 70
     2
 71
   256
280
     1
  0
DICTIONARY
  5
D
102
{ACAD_REACTORS
330
C
102
}
330
C
100
AcDbDictionary
281
     1
  0
DICTIONARY
  5
1A
102
{ACAD_REACTORS
330
C
102
}
330
C
100
AcDbDictionary
281
     1
  3
Layout1
350
1E
  3
Layout2
350
26
  3
Model
350
22
  0
DICTIONARY
  5
3B
102
{ACAD_REACTORS
330
C
102
}
330
C
100
AcDbDictionary
281
     1
  3
ByBlock
350
3D
  3
ByLayer
350
3C
  3
Global
350
3E
  0
DICTIONARY
  5
55
102
{ACAD_REACTORS
330
C
102
}
330
C
100
AcDbDictionary
281
     1
  0
DICTIONARY
  5
17
102
{ACAD_REACTORS
330
C
102
}
330
C
100
AcDbDictionary
281
     1
  3
Standard
350
18
  0
DICTIONARY
  5
19
102
{ACAD_REACTORS
330
C
102
}
330
C
100
AcDbDictionary
281
     1
  0
ACDBDICTIONARYWDFLT
  5
E
102
{ACAD_REACTORS
330
C
102
}
330
C
100
AcDbDictionary
281
     1
  3
Normal
350
F
100
AcDbDictionaryWithDefault
340
F
  0
DICTIONARY
  5
54
102
{ACAD_REACTORS
330
C
102
}
330
C
100
AcDbDictionary
281
     1
  0
DICTIONARY
  5
2A
102
{ACAD_REACTORS
330
C
102
}
330
C
100
AcDbDictionary
281
     1
  3
2dWireframe
350
2F
  3
3D Hidden
350
31
  3
3dWireframe
350
30
  3
Basic
350
32
  3
Brighten
350
36
  3
ColorChange
350
3A
  3
Conceptual
350
34
  3
Dim
350
35
  3
Facepattern
350
39
  3
Flat
350
2B
  3
FlatWithEdges
350
2C
  3
Gouraud
350
2D
  3
GouraudWithEdges
350
2E
  3
Linepattern
350
38
  3
Realistic
350
33
  3
Thicken
350
37
  0
LAYOUT
  5
1E
102
{ACAD_REACTORS
330
1A
102
}
330
1A
100
AcDbPlotSettings
  1

  2
none_device
  4

  6

 40
0.0
 41
0.0
 42
0.0
 43
0.0
 44
0.0
 45
0.0
 46
0.0
 47
0.0
 48
0.0
 49
0.0
140
0.0
141
0.0
142
1.0
143
1.0
 70
   688
 72
     0
 73
     0
 74
     5
  7

 75
    16
 76
     0
 77
     2
 78
   300
147
1.0
148
0.0
149
0.0
100
AcDbLayout
  1
Layout1
 70
     1
 71
     1
 10
0.0
 20
0.0
 11
12.0
 21
9.0
 12
0.0
 22
0.0
 32
0.0
 14
1.000000000000000E+20
 24
1.000000000000000E+20
 34
1.000000000000000E+20
 15
-1.000000000000000E+20
 25
-1.000000000000000E+20
 35
-1.000000000000000E+20
146
0.0
 13
0.0
 23
0.0
 33
0.0
 16
1.0
 26
0.0
 36
0.0
 17
0.0
 27
1.0
 37
0.0
 76
     0
330
1B
  0
LAYOUT
  5
26
102
{ACAD_REACTORS
330
1A
102
}
330
1A
100
AcDbPlotSettings
  1

  2
none_device
  4

  6

 40
0.0
 41
0.0
 42
0.0
 43
0.0
 44
0.0
 45
0.0
 46
0.0
 47
0.0
 48
0.0
 49
0.0
140
0.0
141
0.0
142
1.0
143
1.0
 70
   688
 72
     0
 73
     0
 74
     5
  7

 75
    16
 76
     0
 77
     2
 78
   300
147
1.0
148
0.0
149
0.0
100
AcDbLayout
  1
Layout2
 70
     1
 71
     2
 10
0.0
 20
0.0
 11
0.0
 21
0.0
 12
0.0
 22
0.0
 32
0.0
 14
0.0
 24
0.0
 34
0.0
 15
0.0
 25
0.0
 35
0.0
146
0.0
 13
0.0
 23
0.0
 33
0.0
 16
1.0
 26
0.0
 36
0.0
 17
0.0
 27
1.0
 37
0.0
 76
     0
330
23
  0
LAYOUT
  5
22
102
{ACAD_REACTORS
330
1A
102
}
330
1A
100
AcDbPlotSettings
  1

  2
none_device
  4

  6

 40
0.0
 41
0.0
 42
0.0
 43
0.0
 44
0.0
 45
0.0
 46
0.0
 47
0.0
 48
0.0
 49
0.0
140
0.0
141
0.0
142
1.0
143
1.0
 70
  1712
 72
     0
 73
     0
 74
     0
  7

 75
     0
 76
     0
 77
     2
 78
   300
147
1.0
148
0.0
149
0.0
100
AcDbLayout
  1
Model
 70
     1
 71
     0
 10
0.0
 20
0.0
 11
12.0
 21
9.0
 12
0.0
 22
0.0
 32
0.0
 14
1.000000000000000E+20
 24
1.000000000000000E+20
 34
1.000000000000000E+20
 15
-1.000000000000000E+20
 25
-1.000000000000000E+20
 35
-1.000000000000000E+20
146
0.0
 13
0.0
 23
0.0
 33
0.0
 16
1.0
 26
0.0
 36
0.0
 17
0.0
 27
1.0
 37
0.0
 76
     0
330
1F
331
29
  0
MATERIAL
  5
3D
102
{ACAD_REACTORS
330
3B
102
}
330
3B
100
AcDbMaterial
  1
ByBlock
 72
     1
 94
      127
  0
MATERIAL
  5
3C
102
{ACAD_REACTORS
330
3B
102
}
330
3B
100
AcDbMaterial
  1
ByLayer
 72
     1
 94
      127
  0
MATERIAL
  5
3E
102
{ACAD_REACTORS
330
3B
102
}
330
3B
100
AcDbMaterial
  1
Global
 72
     1
 94
      127
  0
MLINESTYLE
  5
18
102
{ACAD_REACTORS
330
17
102
}
330
17
100
AcDbMlineStyle
  2
Standard
 70
     0
  3

 62
   256
 51
90.0
 52
90.0
 71
     2
 49
0.5
 62
   256
  6
BYLAYER
 49
-0.5
 62
   256
  6
BYLAYER
  0
ACDBPLACEHOLDER
  5
F
102
{ACAD_REACTORS
330
E
102
}
330
E
  0
VISUALSTYLE
  5
2F
102
{ACAD_REACTORS
330
2A
102
}
330
2A
100
AcDbVisualStyle
  2
2dWireframe
 70
     4
177
     2
291
     0
 71
     0
176
     1
 72
     2
176
     1
 73
     0
176
     1
 90
        0
176
     1
 40
-0.6
176
     1
 41
-30.0
176
     1
 62
     5
 63
     7
421
 16777215
176
     1
 74
     1
176
     1
 91
        4
176
     1
 64
     7
176
     1
 65
   257
176
     1
 75
     1
176
     1
175
     1
176
     1
 42
1.0
176
     1
 92
        0
176
     1
 66
   257
176
     1
 43
1.0
176
     1
 76
     1
176
     1
 77
     6
176
     1
 78
     2
176
     1
 67
     7
176
     1
 79
     5
176
     1
170
     0
176
     1
171
     0
176
     1
290
     0
176
     1
 93
        1
176
     1
 44
0.0
176
     1
173
     0
176
     1
  0
VISUALSTYLE
  5
31
102
{ACAD_REACTORS
330
2A
102
}
330
2A
100
AcDbVisualStyle
  2
3D Hidden
 70
     6
177
     2
291
     0
 71
     1
176
     1
 72
     2
176
     1
 73
     2
176
     1
 90
        0
176
     1
 40
-0.6
176
     1
 41
-30.0
176
     1
 62
     5
 63
     7
421
 16777215
176
     1
 74
     2
176
     1
 91
        2
176
     1
 64
     7
176
     1
 65
   257
176
     1
 75
     2
176
     1
175
     1
176
     1
 42
40.0
176
     1
 92
        0
176
     1
 66
   257
176
     1
 43
1.0
176
     1
 76
     1
176
     1
 77
     6
176
     1
 78
     2
176
     1
 67
     7
176
     1
 79
     3
176
     1
170
     0
176
     1
171
     0
176
     1
290
     0
176
     1
 93
        1
176
     1
 44
0.0
176
     1
173
     0
176
     1
  0
VISUALSTYLE
  5
30
102
{ACAD_REACTORS
330
2A
102
}
330
2A
100
AcDbVisualStyle
  2
3dWireframe
 70
     5
177
     2
291
     0
 71
     0
176
     1
 72
     2
176
     1
 73
     0
176
     1
 90
        0
176
     1
 40
-0.6
176
     1
 41
-30.0
176
     1
 62
     5
 63
     7
421
 16777215
176
     1
 74
     1
176
     1
 91
        4
176
     1
 64
     7
176
     1
 65
   257
176
     1
 75
     1
176
     1
175
     1
176
     1
 42
1.0
176
     1
 92
        0
176
     1
 66
   257
176
     1
 43
1.0
176
     1
 76
     1
176
     1
 77
     6
176
     1
 78
     2
176
     1
 67
     7
176
     1
 79
     5
176
     1
170
     0
176
     1
171
     0
176
     1
290
     0
176
     1
 93
        1
176
     1
 44
0.0
176
     1
173
     0
176
     1
  0
VISUALSTYLE
  5
32
102
{ACAD_REACTORS
330
2A
102
}
330
2A
100
AcDbVisualStyle
  2
Basic
 70
     7
177
     2
291
     1
 71
     1
176
     1
 72
     0
176
     1
 73
     1
176
     1
 90
        0
176
     1
 40
-0.6
176
     1
 41
-30.0
176
     1
 62
     5
 63
     7
421
 16777215
176
     1
 74
     0
176
     1
 91
        4
176
     1
 64
     7
176
     1
 65
   257
176
     1
 75
     1
176
     1
175
     1
176
     1
 42
1.0
176
     1
 92
        8
176
     1
 66
     7
176
     1
 43
1.0
176
     1
 76
     1
176
     1
 77
     6
176
     1
 78
     2
176
     1
 67
     7
176
     1
 79
     5
176
     1
170
     0
176
     1
171
     0
176
     1
290
     0
176
     1
 93
        1
176
     1
 44
0.0
176
     1
173
     0
176
     1
  0
VISUALSTYLE
  5
36
102
{ACAD_REACTORS
330
2A
102
}
330
2A
100
AcDbVisualStyle
  2
Brighten
 70
    12
177
     2
291
     1
 71
     2
176
     1
 72
     2
176
     1
 73
     0
176
     1
 90
        0
176
     1
 40
-0.6
176
     1
 41
-30.0
176
     1
 62
     5
 63
     7
421
 16777215
176
     1
 74
     1
176
     1
 91
        4
176
     1
 64
     7
176
     1
 65
   257
176
     1
 75
     1
176
     1
175
     1
176
     1
 42
1.0
176
     1
 92
        8
176
     1
 66
     7
176
     1
 43
1.0
176
     1
 76
     1
176
     1
 77
     6
176
     1
 78
     2
176
     1
 67
     7
176
     1
 79
     5
176
     1
170
     0
176
     1
171
     0
176
     1
290
     0
176
     1
 93
        1
176
     1
 44
50.0
176
     1
173
     0
176
     1
  0
VISUALSTYLE
  5
3A
102
{ACAD_REACTORS
330
2A
102
}
330
2A
100
AcDbVisualStyle
  2
ColorChange
 70
    16
177
     2
291
     1
 71
     2
176
     1
 72
     2
176
     1
 73
     3
176
     1
 90
        0
176
     1
 40
-0.6
176
     1
 41
-30.0
176
     1
 62
     5
 63
     8
421
  8421504
176
     1
 74
     1
176
     1
 91
        4
176
     1
 64
     7
176
     1
 65
   257
176
     1
 75
     1
176
     1
175
     1
176
     1
 42
1.0
176
     1
 92
        8
176
     1
 66
     8
424
  8421504
176
     1
 43
1.0
176
     1
 76
     1
176
     1
 77
     6
176
     1
 78
     2
176
     1
 67
     7
176
     1
 79
     5
176
     1
170
     0
176
     1
171
     0
176
     1
290
     0
176
     1
 93
        1
176
     1
 44
0.0
176
     1
173
     0
176
     1
  0
VISUALSTYLE
  5
34
102
{ACAD_REACTORS
330
2A
102
}
330
2A
100
AcDbVisualStyle
  2
Conceptual
 70
     9
177
     2
291
     0
 71
     3
176
     1
 72
     2
176
     1
 73
     0
176
     1
 90
        0
176
     1
 40
-0.6
176
     1
 41
-30.0
176
     1
 62
     5
 63
     7
421
 16777215
176
     1
 74
     2
176
     1
 91
        2
176
     1
 64
     7
176
     1
 65
   257
176
     1
 75
     1
176
     1
175
     1
176
     1
 42
40.0
176
     1
 92
        8
176
     1
 66
     7
176
     1
 43
1.0
176
     1
 76
     1
176
     1
 77
     6
176
     1
 78
     2
176
     1
 67
     7
176
     1
 79
     3
176
     1
170
     0
176
     1
171
     0
176
     1
290
     0
176
     1
 93
        1
176
     1
 44
0.0
176
     1
173
     0
176
     1
  0
VISUALSTYLE
  5
35
102
{ACAD_REACTORS
330
2A
102
}
330
2A
100
AcDbVisualStyle
  2
Dim
 70
    11
177
     2
291
     1
 71
     2
176
     1
 72
     2
176
     1
 73
     0
176
     1
 90
        0
176
     1
 40
-0.6
176
     1
 41
-30.0
176
     1
 62
     5
 63
     7
421
 16777215
176
     1
 74
     1
176
     1
 91
        4
176
     1
 64
     7
176
     1
 65
   257
176
     1
 75
     1
176
     1
175
     1
176
     1
 42
1.0
176
     1
 92
        8
176
     1
 66
     7
176
     1
 43
1.0
176
     1
 76
     1
176
     1
 77
     6
176
     1
 78
     2
176
     1
 67
     7
176
     1
 79
     5
176
     1
170
     0
176
     1
171
     0
176
     1
290
     0
176
     1
 93
        1
176
     1
 44
-50.0
176
     1
173
     0
176
     1
  0
VISUALSTYLE
  5
39
102
{ACAD_REACTORS
330
2A
102
}
330
2A
100
AcDbVisualStyle
  2
Facepattern
 70
    15
177
     2
291
     1
 71
     2
176
     1
 72
     2
176
     1
 73
     0
176
     1
 90
        0
176
     1
 40
-0.6
176
     1
 41
-30.0
176
     1
 62
     5
 63
     7
421
 16777215
176
     1
 74
     1
176
     1
 91
        4
176
     1
 64
     7
176
     1
 65
   257
176
     1
 75
     1
176
     1
175
     1
176
     1
 42
1.0
176
     1
 92
        8
176
     1
 66
     7
176
     1
 43
1.0
176
     1
 76
     1
176
     1
 77
     6
176
     1
 78
     2
176
     1
 67
     7
176
     1
 79
     5
176
     1
170
     0
176
     1
171
     0
176
     1
290
     0
176
     1
 93
        1
176
     1
 44
0.0
176
     1
173
     0
176
     1
  0
VISUALSTYLE
  5
2B
102
{ACAD_REACTORS
330
2A
102
}
330
2A
100
AcDbVisualStyle
  2
Flat
 70
     0
177
     2
291
     1
 71
     2
176
     1
 72
     1
176
     1
 73
     1
176
     1
 90
        2
176
     1
 40
-0.6
176
     1
 41
30.0
176
     1
 62
     5
 63
     7
421
 16777215
176
     1
 74
     0
176
     1
 91
        4
176
     1
 64
     7
176
     1
 65
   257
176
     1
 75
     1
176
     1
175
     1
176
     1
 42
1.0
176
     1
 92
        8
176
     1
 66
     7
176
     1
 43
1.0
176
     1
 76
     1
176
     1
 77
     6
176
     1
 78
     2
176
     1
 67
     7
176
     1
 79
     5
176
     1
170
     0
176
     1
171
     0
176
     1
290
     0
176
     1
 93
       13
176
     1
 44
0.0
176
     1
173
     0
176
     1
  0
VISUALSTYLE
  5
2C
102
{ACAD_REACTORS
330
2A
102
}
330
2A
100
AcDbVisualStyle
  2
FlatWithEdges
 70
     1
177
     2
291
     1
 71
     2
176
     1
 72
     1
176
     1
 73
     1
176
     1
 90
        2
176
     1
 40
-0.6
176
     1
 41
30.0
176
     1
 62
     5
 63
     7
421
 16777215
176
     1
 74
     1
176
     1
 91
        4
176
     1
 64
     7
176
     1
 65
   257
176
     1
 75
     1
176
     1
175
     1
176
     1
 42
1.0
176
     1
 92
        0
176
     1
 66
   257
176
     1
 43
1.0
176
     1
 76
     1
176
     1
 77
     6
176
     1
 78
     2
176
     1
 67
     7
176
     1
 79
     5
176
     1
170
     0
176
     1
171
     0
176
     1
290
     0
176
     1
 93
       13
176
     1
 44
0.0
176
     1
173
     0
176
     1
  0
VISUALSTYLE
  5
2D
102
{ACAD_REACTORS
330
2A
102
}
330
2A
100
AcDbVisualStyle
  2
Gouraud
 70
     2
177
     2
291
     1
 71
     2
176
     1
 72
     2
176
     1
 73
     1
176
     1
 90
        2
176
     1
 40
-0.6
176
     1
 41
30.0
176
     1
 62
     5
 63
     7
421
 16777215
176
     1
 74
     0
176
     1
 91
        4
176
     1
 64
     7
176
     1
 65
   257
176
     1
 75
     1
176
     1
175
     1
176
     1
 42
1.0
176
     1
 92
        0
176
     1
 66
     7
176
     1
 43
1.0
176
     1
 76
     1
176
     1
 77
     6
176
     1
 78
     2
176
     1
 67
     7
176
     1
 79
     5
176
     1
170
     0
176
     1
171
     0
176
     1
290
     0
176
     1
 93
       13
176
     1
 44
0.0
176
     1
173
     0
176
     1
  0
VISUALSTYLE
  5
2E
102
{ACAD_REACTORS
330
2A
102
}
330
2A
100
AcDbVisualStyle
  2
GouraudWithEdges
 70
     3
177
     2
291
     1
 71
     2
176
     1
 72
     2
176
     1
 73
     1
176
     1
 90
        2
176
     1
 40
-0.6
176
     1
 41
30.0
176
     1
 62
     5
 63
     7
421
 16777215
176
     1
 74
     1
176
     1
 91
        4
176
     1
 64
     7
176
     1
 65
   257
176
     1
 75
     1
176
     1
175
     1
176
     1
 42
1.0
176
     1
 92
        0
176
     1
 66
   257
176
     1
 43
1.0
176
     1
 76
     1
176
     1
 77
     6
176
     1
 78
     2
176
     1
 67
     7
176
     1
 79
     5
176
     1
170
     0
176
     1
171
     0
176
     1
290
     0
176
     1
 93
       13
176
     1
 44
0.0
176
     1
173
     0
176
     1
  0
VISUALSTYLE
  5
38
102
{ACAD_REACTORS
330
2A
102
}
330
2A
100
AcDbVisualStyle
  2
Linepattern
 70
    14
177
     2
291
     1
 71
     2
176
     1
 72
     2
176
     1
 73
     0
176
     1
 90
        0
176
     1
 40
-0.6
176
     1
 41
-30.0
176
     1
 62
     5
 63
     7
421
 16777215
176
     1
 74
     1
176
     1
 91
        4
176
     1
 64
     7
176
     1
 65
   257
176
     1
 75
     7
176
     1
175
     7
176
     1
 42
1.0
176
     1
 92
        8
176
     1
 66
     7
176
     1
 43
1.0
176
     1
 76
     1
176
     1
 77
     6
176
     1
 78
     2
176
     1
 67
     7
176
     1
 79
     5
176
     1
170
     0
176
     1
171
     0
176
     1
290
     0
176
     1
 93
        1
176
     1
 44
0.0
176
     1
173
     0
176
     1
  0
VISUALSTYLE
  5
33
102
{ACAD_REACTORS
330
2A
102
}
330
2A
100
AcDbVisualStyle
  2
Realistic
 70
     8
177
     2
291
     0
 71
     2
176
     1
 72
     2
176
     1
 73
     0
176
     1
 90
        0
176
     1
 40
-0.6
176
     1
 41
-30.0
176
     1
 62
     5
 63
     7
421
 16777215
176
     1
 74
     1
176
     1
 91
        0
176
     1
 64
     7
176
     1
 65
   257
176
     1
 75
     1
176
     1
175
     1
176
     1
 42
1.0
176
     1
 92
        8
176
     1
 66
     8
424
  7895160
176
     1
 43
1.0
176
     1
 76
     1
176
     1
 77
     6
176
     1
 78
     2
176
     1
 67
     7
176
     1
 79
     5
176
     1
170
     0
176
     1
171
     0
176
     1
290
     0
176
     1
 93
       13
176
     1
 44
0.0
176
     1
173
     0
176
     1
  0
VISUALSTYLE
  5
37
102
{ACAD_REACTORS
330
2A
102
}
330
2A
100
AcDbVisualStyle
  2
Thicken
 70
    13
177
     2
291
     1
 71
     2
176
     1
 72
     2
176
     1
 73
     0
176
     1
 90
        0
176
     1
 40
-0.6
176
     1
 41
-30.0
176
     1
 62
     5
 63
     7
421
 16777215
176
     1
 74
     1
176
     1
 91
        4
176
     1
 64
     7
176
     1
 65
   257
176
     1
 75
     1
176
     1
175
     1
176
     1
 42
1.0
176
     1
 92
       12
176
     1
 66
     7
176
     1
 43
1.0
176
     1
 76
     1
176
     1
 77
     6
176
     1
 78
     2
176
     1
 67
     7
176
     1
 79
     5
176
     1
170
     0
176
     1
171
     0
176
     1
290
     0
176
     1
 93
        1
176
     1
 44
0.0
176
     1
173
     0
176
     1
  0
ENDSEC
  0
EOF
